<?xml version="1.0" encoding="utf-8"?>
<!-- Generator: Adobe Illustrator 24.1.2, SVG Export Plug-In . SVG Version: 6.00 Build 0)  -->
<svg version="1.1" xmlns="http://www.w3.org/2000/svg" xmlns:xlink="http://www.w3.org/1999/xlink" x="0px" y="0px"
	 viewBox="0 0 108 108" style="enable-background:new 0 0 108 108;" xml:space="preserve">
<style type="text/css">
	.st0{display:none;}
	.st1{font-family:'BodoniMT-BoldItalic';}
	.st2{font-size:26px;}
	.st3{fill:#FFFFFF;stroke:#000000;stroke-width:0.25;stroke-miterlimit:10;}
	.st4{fill:#1D1D1B;}
</style>
<g id="Слой_1" class="st0">
	
		<image style="display:inline;overflow:visible;" width="1125" height="1188" xlink:href="C:\Users\Simon\Downloads\Telegram Desktop\photo_2021-01-24_09-56-50.jpg"  transform="matrix(9.053031e-02 0 0 9.053031e-02 3 0)">
	</image>
</g>
<g id="Слой_2">
	<g>
		<text transform="matrix(1 0 0 1 0.7417 63.0249)" class="st1 st2">Dres</text>
		<text transform="matrix(-1 0 0 1 101.6274 63.0731)" class="st1 st2">res</text>
		<line class="st3" x1="70.5" y1="45.5" x2="78.5" y2="37.5"/>
		<line class="st3" x1="85" y1="45.8" x2="93" y2="37.8"/>
		<line class="st3" x1="79" y1="31.8" x2="87" y2="23.8"/>
		<line class="st3" x1="72.7" y1="78.5" x2="80.7" y2="70.5"/>
		<line class="st3" x1="85.2" y1="78.8" x2="93.2" y2="70.8"/>
		<g>
			<g>
				<g>
					<g>
						<path class="st4" d="M101.8,54.6l1.1,0c0,3.2-0.3,6.4-0.8,9.5l-1.1-0.2C101.5,60.8,101.8,57.7,101.8,54.6z"/>
						<path d="M102.6,64.1c0.6-3.2,0.8-6.4,0.8-9.6h0.4c0,1.6-0.1,3.2-0.2,4.8c0.8-0.4,1.2-1.5,1.3-2.1l0,0c0,0.6,0.3,1.3,0.9,1.4
							c1,0.2,1-1.2,1-1.9c0-0.9,0-1.8-1-1.9c-0.2,0-0.6,0-0.6,0.3c0,0.1,0.1,0.2,0.2,0.3c0.1,0.1,0.2,0.2,0.2,0.5
							c0,0.4-0.3,0.6-0.7,0.6c-0.4,0-0.6-0.4-0.6-0.7c0-0.9,1.1-1.2,1.8-1.2c1.2,0,2,1,2,2.4c-0.1,1.2-0.8,2.1-1.9,2.1
							c-0.3,0-0.6-0.1-1-0.3l-0.5,0.7l0.4,0.7c0.4-0.1,0.7-0.2,1-0.1c1,0.2,1.6,1.2,1.5,2.4c-0.2,1.5-1.2,2.3-2.4,2.1
							c-0.7-0.1-1.6-0.6-1.5-1.5c0.1-0.4,0.4-0.7,0.7-0.6c0.3,0,0.6,0.3,0.6,0.7c0,0.2-0.1,0.3-0.3,0.4c-0.1,0.1-0.2,0.1-0.2,0.2
							c0,0.2,0.3,0.4,0.5,0.4c1,0.2,1.3-1,1.3-1.8c0.1-0.7,0.3-2-0.7-2c-0.6,0-1,0.7-1.1,1.3l0,0c-0.1-0.6-0.2-1.8-0.9-2.3
							c-0.1,1.6-0.3,3.2-0.6,4.7L102.6,64.1z"/>
					</g>
					<g>
						<path class="st4" d="M101,63.8l1.1,0.2c-0.5,3.1-1.4,6.2-2.5,9.1l-1-0.4C99.7,69.9,100.5,66.9,101,63.8z"/>
						<path d="M100.1,73.3c1.1-3,2-6.1,2.5-9.2l0.3,0.1c-0.3,1.6-0.6,3.1-1,4.6c0.8-0.2,1.4-1.3,1.7-1.8l0,0
							c-0.1,0.6,0.1,1.4,0.7,1.6c0.9,0.3,1.2-1,1.3-1.7c0.2-0.9,0.3-1.8-0.7-2.1c-0.2,0-0.6-0.1-0.6,0.2c0,0.1,0.1,0.2,0.2,0.3
							c0.1,0.1,0.2,0.3,0.1,0.5c-0.1,0.4-0.4,0.5-0.8,0.5c-0.4-0.1-0.6-0.5-0.5-0.8c0.2-0.9,1.2-1,1.9-0.8c1.2,0.2,1.9,1.3,1.5,2.7
							c-0.3,1.1-1.1,1.9-2.2,1.7c-0.3,0-0.6-0.2-0.9-0.4c-0.2,0.2-0.4,0.4-0.6,0.6l0.2,0.8c0.4,0,0.7,0,1,0.1c1,0.4,1.4,1.5,1,2.6
							c-0.5,1.4-1.6,2-2.7,1.6c-0.7-0.3-1.5-0.9-1.2-1.7c0.1-0.4,0.5-0.6,0.9-0.5c0.3,0.1,0.5,0.4,0.4,0.8c-0.1,0.2-0.2,0.3-0.3,0.4
							c-0.1,0.1-0.2,0.1-0.3,0.2c-0.1,0.2,0.3,0.4,0.4,0.5c1,0.4,1.4-0.7,1.7-1.5c0.2-0.7,0.6-1.9-0.3-2.1c-0.6-0.1-1.1,0.5-1.4,1
							l0,0c0.1-0.6,0.1-1.8-0.5-2.4c-0.4,1.5-0.9,3-1.5,4.5L100.1,73.3z"/>
					</g>
					<g>
						<path class="st4" d="M98.6,72.7l1,0.4c-1.1,2.9-2.6,5.7-4.4,8.2l-0.9-0.7C96,78.3,97.5,75.6,98.6,72.7z"/>
						<path d="M95.6,81.7c1.9-2.5,3.3-5.3,4.5-8.3l0.3,0.1c-0.6,1.5-1.2,2.9-2,4.3c0.9,0,1.7-0.9,2-1.4l0,0
							c-0.2,0.5-0.2,1.3,0.3,1.7c0.8,0.5,1.4-0.7,1.7-1.4c0.4-0.8,0.7-1.7-0.3-2.2c-0.2-0.1-0.5-0.2-0.6,0.1c0,0.1,0,0.2,0.1,0.3
							c0.1,0.1,0.1,0.3,0,0.5c-0.2,0.4-0.5,0.4-0.8,0.3c-0.3-0.1-0.5-0.6-0.3-0.9c0.3-0.8,1.4-0.7,2-0.4c1.1,0.4,1.6,1.7,0.9,3
							c-0.5,1.1-1.5,1.7-2.5,1.2c-0.3-0.1-0.5-0.3-0.8-0.6l-0.7,0.4l0,0.8c0.4,0,0.7,0.1,0.9,0.3c0.9,0.6,1,1.8,0.4,2.8
							c-0.8,1.3-2.1,1.6-3.1,0.9c-0.6-0.4-1.2-1.3-0.7-2c0.2-0.3,0.6-0.4,0.9-0.2c0.3,0.2,0.4,0.5,0.2,0.9c-0.1,0.2-0.3,0.2-0.4,0.3
							c-0.1,0-0.3,0-0.3,0.1c-0.1,0.2,0.2,0.5,0.3,0.6c0.8,0.6,1.6-0.3,2-1c0.4-0.6,1.1-1.7,0.2-2.1c-0.6-0.3-1.2,0.2-1.6,0.7l0,0
							c0.2-0.6,0.5-1.7,0.1-2.5c-0.7,1.4-1.6,2.7-2.5,4L95.6,81.7z"/>
					</g>
					<g>
						<path class="st4" d="M94.3,80.7l0.9,0.7c-1.8,2.5-4,4.6-6.6,6l-0.5-1C90.4,85,92.5,83,94.3,80.7z"/>
						<path d="M88.9,87.8c2.6-1.4,4.9-3.6,6.8-6.1l0.3,0.2c-0.9,1.2-2,2.4-3.1,3.5c0.8,0.3,1.9-0.3,2.3-0.7l0,0
							c-0.3,0.5-0.6,1.2-0.2,1.7c0.6,0.8,1.6-0.3,2-0.8c0.7-0.7,1.1-1.5,0.4-2.2c-0.1-0.1-0.5-0.3-0.6-0.1c0,0.1,0,0.2,0,0.3
							c0,0.1,0,0.3-0.1,0.5c-0.2,0.3-0.6,0.3-0.9,0c-0.3-0.2-0.3-0.7,0-1c0.5-0.7,1.5-0.3,2.1,0.1c1,0.7,1.1,2,0,3.2
							c-0.8,0.9-2,1.2-2.8,0.5c-0.2-0.2-0.4-0.5-0.5-0.8l-0.8,0.2c-0.1,0.3-0.1,0.5-0.2,0.8c0.4,0.2,0.6,0.4,0.8,0.6
							c0.6,0.8,0.3,2.1-0.8,2.8c-1.3,0.9-2.7,0.7-3.3-0.4c-0.3-0.6-0.6-1.6,0.2-2.1c0.3-0.2,0.7-0.2,1,0.2c0.2,0.3,0.2,0.7-0.2,0.9
							c-0.2,0.1-0.4,0.1-0.5,0.1c-0.1,0-0.3-0.1-0.3,0c-0.2,0.1-0.1,0.5,0,0.6c0.5,0.9,1.6,0.3,2.3-0.2c0.6-0.4,1.7-1.3,1-1.9
							c-0.5-0.4-1.2-0.2-1.7,0.1l0,0c0.4-0.4,1.1-1.4,0.9-2.3c-1.1,1-2.4,1.9-3.7,2.7L88.9,87.8z"/>
					</g>
					<g>
						<path class="st4" d="M88.1,86.3l0.5,1c-2.5,1.4-5.4,1.9-8.2,1.4l0.2-1.1C83.1,88.1,85.7,87.6,88.1,86.3z"/>
						<path d="M80.3,89.3c2.9,0.5,5.9,0,8.6-1.5l0.2,0.3c-1.3,0.7-2.7,1.2-4.2,1.5c0.3,0.3,0.7,0.5,1.1,0.6c0.4,0.1,0.9,0.1,1.2,0
							l0,0c-0.5,0.2-1.2,0.7-1.1,1.4c0.1,1,1.6,0.5,2.3,0.3c0.9-0.3,1.8-0.8,1.4-1.8c-0.1-0.2-0.3-0.5-0.5-0.4
							c-0.1,0-0.1,0.2-0.1,0.3c-0.1,0.1-0.1,0.3-0.4,0.4c-0.4,0.2-0.7,0-0.8-0.4c-0.1-0.3,0.1-0.7,0.4-0.9c0.8-0.3,1.5,0.4,1.8,1
							c0.6,1.1,0.1,2.3-1.5,2.9c-1.3,0.5-2.5,0-2.8-1c-0.1-0.3-0.1-0.6,0-1L85,90.8c-0.2,0.2-0.4,0.4-0.6,0.5
							c0.2,0.3,0.3,0.7,0.3,0.9c0,0.5-0.2,1-0.6,1.3c-0.4,0.3-1,0.5-1.7,0.5c-0.8,0-1.5-0.3-2-0.7c-0.4-0.4-0.6-1-0.5-1.6
							c0.1-0.7,0.6-1.7,1.4-1.6c0.4,0,0.7,0.3,0.7,0.7c0,0.3-0.3,0.6-0.7,0.6c-0.2,0-0.4-0.1-0.5-0.3c-0.1-0.1-0.2-0.2-0.2-0.2
							c-0.2,0-0.4,0.4-0.4,0.5c-0.2,1,1.1,1.3,2,1.2c0.8,0,2.2-0.1,2-1C84,91.3,83.3,91,82.7,91l0,0c0.6-0.1,1.7-0.6,2-1.4
							c-1.5,0.3-3,0.2-4.4,0L80.3,89.3z"/>
					</g>
					<g>
						<path class="st4" d="M80.6,87.6l-0.2,1.1c-2.8-0.5-5.4-2-7.6-4l0.8-0.8C75.7,85.8,78.1,87.2,80.6,87.6z"/>
						<path d="M72.5,85.1c2.3,2.1,5,3.6,7.9,4.1l-0.1,0.3c-1.5-0.3-2.9-0.8-4.2-1.5c0,0.9,0.9,1.6,1.4,1.9l0,0
							c-0.6-0.1-1.4-0.2-1.7,0.4c-0.3,0.4,0,0.8,0.3,1.1c0.4,0.3,0.9,0.4,1.3,0.6c0.5,0.1,1,0.3,1.4,0.2c0.4-0.1,0.7-0.3,0.9-0.8
							c0.1-0.2,0.1-0.6-0.2-0.6c-0.1,0-0.2,0.1-0.3,0.1c-0.1,0.1-0.3,0.1-0.5,0.1c-0.4-0.1-0.5-0.5-0.4-0.8c0.1-0.4,0.5-0.5,0.9-0.4
							c0.8,0.2,0.9,1.3,0.8,1.9c-0.2,1.2-1.5,1.9-3.1,1.3c-1.3-0.4-1.9-1.5-1.5-2.5c0.1-0.3,0.3-0.5,0.6-0.8
							c-0.2-0.2-0.3-0.5-0.4-0.7l-0.8,0c0,0.4-0.2,0.7-0.3,0.9c-0.3,0.4-0.8,0.7-1.3,0.7c-0.5,0-1.1-0.2-1.6-0.5
							c-1.3-1-1.5-2.3-0.7-3.2c0.5-0.5,1.4-1.1,2-0.5c0.3,0.2,0.4,0.7,0.2,1c-0.2,0.3-0.6,0.4-0.9,0.1c-0.2-0.1-0.2-0.3-0.2-0.5
							c0-0.1,0-0.3-0.1-0.3c-0.2-0.2-0.5,0.1-0.6,0.2c-0.7,0.8,0.2,1.6,0.9,2.1c0.6,0.4,1.8,1.2,2.2,0.4c0.3-0.6-0.2-1.2-0.6-1.6
							l0,0c0.6,0.3,1.7,0.6,2.4,0.1c-1.3-0.7-2.6-1.6-3.7-2.7L72.5,85.1z"/>
					</g>
					<g>
						<path class="st4" d="M73.6,83.9l-0.8,0.8c-2.2-2-4-4.6-5.5-7.3l1-0.5C69.7,79.5,71.5,82,73.6,83.9z"/>
						<path d="M66.9,77.7c1.5,2.8,3.3,5.4,5.6,7.5l-0.2,0.3c-1.1-1-2.2-2.2-3.1-3.4c-0.3,0.8,0.1,1.9,0.4,2.4l0,0
							c-0.4-0.4-1.1-0.8-1.7-0.4c-0.8,0.5,0.1,1.6,0.6,2.1c0.6,0.7,1.4,1.3,2.1,0.6c0.1-0.1,0.4-0.4,0.2-0.6c-0.1-0.1-0.2,0-0.3,0
							c-0.1,0-0.3,0-0.5-0.2c-0.3-0.3-0.2-0.7,0-0.9c0.3-0.2,0.7-0.2,1,0.1c0.6,0.6,0.1,1.6-0.4,2.1c-0.8,0.9-2.2,0.8-3.2-0.4
							c-0.8-0.9-0.9-2.1-0.1-2.9c0.2-0.2,0.5-0.3,0.9-0.4c0-0.3-0.1-0.6-0.1-0.8l-0.8-0.3c-0.2,0.3-0.4,0.6-0.7,0.7
							c-0.9,0.5-2,0.1-2.7-0.9c-0.8-1.3-0.5-2.6,0.6-3.1c0.6-0.3,1.6-0.6,2.1,0.2c0.2,0.3,0.1,0.8-0.2,1c-0.3,0.2-0.7,0.1-0.9-0.2
							c-0.1-0.2-0.1-0.4-0.1-0.5c0-0.1,0.1-0.3,0-0.3c-0.1-0.2-0.5-0.1-0.6,0c-0.9,0.5-0.4,1.5,0.1,2.2c0.4,0.6,1.1,1.7,1.8,1.1
							c0.5-0.4,0.3-1.2,0.1-1.7l0,0c0.4,0.5,1.3,1.2,2.2,1.1c-0.9-1.2-1.7-2.6-2.5-4L66.9,77.7z"/>
					</g>
					<g>
						<path class="st4" d="M68.3,76.9l-1,0.5c-1.5-2.7-2.6-5.7-3.4-8.7l1.1-0.3C65.8,71.3,66.9,74.2,68.3,76.9z"/>
						<path d="M63.4,68.8c0.8,3.1,2,6.1,3.5,8.9l-0.3,0.2c-0.7-1.4-1.4-2.8-2-4.3c-0.5,0.7-0.4,1.9-0.2,2.4l0,0
							c-0.3-0.5-0.9-1.1-1.5-0.9c-0.9,0.3-0.3,1.5-0.1,2.2c0.4,0.8,0.9,1.6,1.8,1.2c0.2-0.1,0.5-0.3,0.4-0.5c0-0.1-0.2-0.1-0.3-0.1
							c-0.1,0-0.3-0.1-0.4-0.3c-0.2-0.4,0-0.7,0.3-0.8c0.3-0.2,0.7,0,0.9,0.4c0.4,0.8-0.4,1.5-1,1.8c-1.1,0.6-2.3,0.1-2.9-1.3
							c-0.5-1.1-0.2-2.2,0.7-2.7c0.3-0.1,0.6-0.2,1-0.2l0.1-0.8c-0.2-0.2-0.4-0.3-0.7-0.5c-0.3,0.3-0.6,0.4-0.9,0.5
							c-1,0.3-2-0.4-2.4-1.5c-0.5-1.4,0.1-2.6,1.3-2.9c0.7-0.2,1.7-0.2,2,0.7c0.1,0.4,0,0.8-0.4,0.9c-0.3,0.1-0.7,0-0.8-0.4
							c-0.1-0.2,0-0.4,0.1-0.5c0.1-0.1,0.1-0.2,0.1-0.3c-0.1-0.2-0.5-0.2-0.6-0.1c-1,0.3-0.7,1.4-0.5,2.2c0.2,0.7,0.6,1.9,1.5,1.5
							c0.6-0.3,0.6-1.1,0.5-1.6l0,0c0.3,0.5,1,1.5,1.8,1.7c-0.6-1.5-1.1-3-1.5-4.5L63.4,68.8z"/>
					</g>
					<g>
						<path class="st4" d="M65,68.4l-1.1,0.3c-0.8-3-1.4-6.2-1.6-9.3l1.1-0.1C63.7,62.3,64.2,65.4,65,68.4z"/>
						<path d="M61.8,59.4c0.3,3.2,0.8,6.4,1.6,9.4l-0.3,0.1c-0.4-1.5-0.8-3.1-1-4.6c-0.7,0.6-0.7,1.8-0.7,2.4l0,0
							c-0.2-0.5-0.6-1.2-1.3-1.2c-1,0.1-0.6,1.4-0.5,2.1c0.2,0.9,0.5,1.8,1.5,1.6c0.2,0,0.5-0.2,0.5-0.4c0-0.1-0.1-0.1-0.3-0.2
							c-0.1-0.1-0.3-0.2-0.3-0.4c-0.1-0.4,0.2-0.7,0.5-0.7c0.4-0.1,0.7,0.2,0.8,0.5c0.2,0.9-0.7,1.4-1.4,1.6
							c-1.2,0.3-2.2-0.4-2.6-1.8c-0.2-1.1,0.2-2.2,1.3-2.5c0.3-0.1,0.6-0.1,1,0l0.3-0.8l-0.6-0.6c-0.3,0.2-0.6,0.3-0.9,0.3
							c-1.1,0.1-1.9-0.8-2-1.9c-0.2-1.5,0.6-2.5,1.8-2.6c0.7-0.1,1.7,0.1,1.8,1c0,0.4-0.2,0.7-0.6,0.8c-0.3,0-0.7-0.1-0.7-0.5
							c0-0.2,0.1-0.4,0.1-0.5c0.1-0.1,0.2-0.2,0.2-0.3c0-0.2-0.4-0.3-0.6-0.2c-1,0.1-1,1.2-0.9,2.1c0.1,0.7,0.2,2,1.2,1.8
							c0.6-0.2,0.8-0.9,0.8-1.5l0,0c0.2,0.6,0.7,1.7,1.5,2c-0.3-1.6-0.5-3.1-0.6-4.7L61.8,59.4z"/>
					</g>
					<g>
						<path class="st4" d="M63.4,59.2l-1.1,0.1c-0.3-3.2-0.3-6.4,0-9.5l1.1,0.1C63.2,53,63.2,56.1,63.4,59.2z"/>
						<path d="M61.8,49.7c-0.3,3.2-0.3,6.4,0,9.6l-0.3,0c-0.1-1.6-0.2-3.2-0.2-4.8c-0.7,0.4-1,1.6-1.1,2.2l0,0
							c-0.1-0.6-0.4-1.3-1-1.4c-1-0.1-0.9,1.3-0.9,2c0,0.9,0.2,1.8,1.2,1.8c0.2,0,0.6-0.1,0.5-0.3c0-0.1-0.1-0.1-0.2-0.2
							c-0.1-0.1-0.2-0.2-0.2-0.5c0-0.4,0.3-0.6,0.6-0.6c0.4,0,0.7,0.3,0.7,0.7c0.1,0.9-0.9,1.2-1.6,1.3c-1.2,0.1-2.1-0.8-2.2-2.3
							c-0.1-1.2,0.6-2.1,1.7-2.2c0.3,0,0.6,0,1,0.2l0.4-0.7l-0.4-0.7c-0.4,0.2-0.7,0.2-1,0.2c-1-0.1-1.7-1.1-1.7-2.2
							c0.1-1.5,1-2.4,2.2-2.3c0.7,0.1,1.7,0.4,1.6,1.3c0,0.4-0.3,0.7-0.7,0.7c-0.4,0-0.6-0.3-0.6-0.7c0-0.2,0.1-0.4,0.2-0.5
							c0.1-0.1,0.2-0.2,0.2-0.2c0-0.2-0.4-0.3-0.5-0.3c-1-0.1-1.2,1.1-1.2,1.9c0,0.7-0.1,2,0.9,1.9c0.6-0.1,0.9-0.8,1-1.4l0,0
							c0.1,0.6,0.4,1.7,1.1,2.2c0-1.6,0.1-3.2,0.2-4.8L61.8,49.7z"/>
					</g>
					<g>
						<path class="st4" d="M63.4,49.9l-1.1-0.1c0.3-3.2,0.8-6.3,1.6-9.3l1.1,0.3C64.2,43.7,63.7,46.8,63.4,49.9z"/>
						<path d="M63.4,40.3c-0.8,3.1-1.4,6.3-1.6,9.4l-0.3,0c0.1-1.6,0.3-3.2,0.6-4.7c-0.8,0.3-1.3,1.4-1.5,2l0,0
							c0-0.6-0.2-1.4-0.8-1.5c-0.9-0.2-1.1,1.1-1.2,1.8c-0.1,0.9-0.1,1.8,0.9,2c0.2,0,0.6,0,0.6-0.2c0-0.1-0.1-0.2-0.2-0.3
							c-0.1-0.1-0.2-0.3-0.1-0.5c0-0.4,0.4-0.6,0.7-0.5c0.4,0,0.6,0.4,0.6,0.8c-0.1,0.9-1.1,1.1-1.8,1c-1.2-0.1-2-1.1-1.8-2.6
							c0.2-1.2,1-2,2-1.9c0.3,0,0.6,0.1,0.9,0.3l0.6-0.6l-0.3-0.8c-0.4,0.1-0.7,0.1-1,0c-1-0.3-1.5-1.4-1.3-2.5
							c0.3-1.4,1.4-2.2,2.6-1.8c0.7,0.2,1.6,0.7,1.4,1.6c-0.1,0.4-0.4,0.6-0.8,0.6c-0.3-0.1-0.6-0.4-0.5-0.7
							c0.1-0.2,0.2-0.3,0.3-0.4c0.1-0.1,0.2-0.1,0.3-0.2c0.1-0.2-0.3-0.4-0.5-0.4c-1-0.3-1.3,0.8-1.5,1.6c-0.1,0.7-0.5,2,0.5,2.1
							c0.6,0.1,1.1-0.6,1.3-1.2l0,0c0,0.6,0.1,1.8,0.7,2.4c0.3-1.6,0.6-3.1,1-4.6L63.4,40.3z"/>
					</g>
					<g>
						<path class="st4" d="M65,40.7l-1.1-0.3c0.8-3,1.9-6,3.4-8.7l1,0.5C66.9,34.9,65.8,37.8,65,40.7z"/>
						<path d="M66.9,31.4c-1.5,2.8-2.6,5.8-3.5,8.9l-0.3-0.1c0.4-1.5,0.9-3,1.5-4.5c-0.8,0.1-1.5,1.1-1.8,1.6l0,0
							c0.1-0.6,0.1-1.4-0.5-1.6c-0.9-0.4-1.3,0.9-1.5,1.6c-0.3,0.9-0.5,1.8,0.5,2.1c0.2,0.1,0.5,0.1,0.6-0.1c0-0.1-0.1-0.2-0.1-0.3
							c-0.1-0.1-0.1-0.3-0.1-0.5c0.1-0.4,0.5-0.5,0.8-0.4c0.4,0.1,0.5,0.5,0.4,0.9c-0.2,0.9-1.3,0.8-2,0.7c-1.2-0.3-1.7-1.5-1.3-2.9
							c0.4-1.1,1.3-1.8,2.4-1.5c0.3,0.1,0.6,0.2,0.9,0.5c0.2-0.2,0.4-0.3,0.7-0.5l-0.1-0.8c-0.4,0-0.7-0.1-1-0.2
							c-1-0.5-1.2-1.6-0.7-2.7c0.6-1.4,1.8-1.9,2.9-1.3c0.6,0.3,1.4,1.1,1,1.9c-0.2,0.3-0.6,0.5-0.9,0.4c-0.3-0.1-0.5-0.5-0.3-0.8
							c0.1-0.2,0.2-0.3,0.4-0.3c0.1,0,0.3-0.1,0.3-0.1c0.1-0.2-0.2-0.4-0.4-0.5c-0.9-0.5-1.5,0.5-1.8,1.3c-0.3,0.6-0.9,1.8,0.1,2.1
							c0.6,0.2,1.2-0.4,1.5-0.9l0,0c-0.1,0.6-0.3,1.8,0.2,2.5c0.6-1.5,1.2-2.9,2-4.3L66.9,31.4z"/>
					</g>
					<g>
						<path class="st4" d="M68.3,32.2l-1-0.5c1.5-2.7,3.3-5.3,5.5-7.3l0.8,0.8C71.5,27.1,69.7,29.6,68.3,32.2z"/>
						<path d="M72.5,24c-2.3,2.1-4.1,4.7-5.6,7.5l-0.3-0.2c0.7-1.4,1.6-2.7,2.5-4c-0.8-0.1-1.8,0.7-2.2,1.1l0,0
							c0.2-0.5,0.4-1.3-0.1-1.7c-0.8-0.6-1.5,0.6-1.9,1.2c-0.5,0.8-0.9,1.6,0,2.2c0.1,0.1,0.5,0.2,0.6,0c0-0.1,0-0.2-0.1-0.3
							c0-0.1,0-0.3,0.1-0.5c0.2-0.3,0.6-0.4,0.9-0.2c0.3,0.2,0.4,0.6,0.2,0.9c-0.4,0.8-1.5,0.5-2.1,0.2c-1.1-0.6-1.3-1.8-0.5-3.1
							c0.7-1,1.8-1.5,2.7-0.9c0.2,0.1,0.5,0.4,0.7,0.7l0.8-0.3c0-0.3,0.1-0.5,0.1-0.8c-0.4-0.1-0.7-0.3-0.9-0.4
							c-0.8-0.7-0.7-1.9,0.1-2.9c1.1-1.2,2.4-1.3,3.2-0.3c0.5,0.5,1,1.5,0.3,2.1c-0.3,0.3-0.7,0.3-1,0.1c-0.3-0.2-0.3-0.6,0-0.9
							c0.2-0.2,0.3-0.2,0.5-0.2c0.1,0,0.3,0,0.3,0c0.2-0.2-0.1-0.5-0.2-0.6c-0.7-0.8-1.6,0-2.2,0.7c-0.5,0.5-1.4,1.6-0.6,2.1
							c0.5,0.3,1.2-0.1,1.7-0.4l0,0c-0.3,0.5-0.8,1.6-0.4,2.4c0.9-1.2,2-2.4,3.1-3.5L72.5,24z"/>
					</g>
					<g>
						<path class="st4" d="M73.6,25.2l-0.8-0.8c2.2-2,4.8-3.5,7.6-4l0.2,1.1C78.1,21.9,75.7,23.3,73.6,25.2z"/>
						<path d="M80.3,19.8c-2.9,0.5-5.6,2.1-7.9,4.1l-0.2-0.3c1.1-1,2.4-1.9,3.7-2.7c-0.7-0.5-1.9-0.1-2.4,0.1l0,0
							c0.4-0.4,0.9-1,0.6-1.6c-0.4-0.9-1.6-0.1-2.2,0.4c-0.8,0.6-1.5,1.2-0.8,2.1c0.1,0.1,0.4,0.4,0.6,0.2c0.1-0.1,0.1-0.2,0.1-0.3
							c0-0.1,0.1-0.3,0.2-0.5c0.3-0.3,0.7-0.2,0.9,0.1c0.2,0.3,0.1,0.7-0.1,1c-0.7,0.5-1.6,0-2-0.5c-0.8-0.9-0.6-2.2,0.7-3.2
							c0.5-0.4,1.1-0.6,1.6-0.5c0.5,0,1,0.3,1.3,0.7c0.2,0.2,0.3,0.5,0.3,0.9l0.9,0c0.1-0.2,0.3-0.5,0.4-0.7
							c-0.3-0.3-0.5-0.5-0.6-0.8c-0.4-1,0.3-2.1,1.5-2.5c1.6-0.5,2.9,0.1,3.1,1.3c0.1,0.7,0,1.8-0.8,2c-0.3,0.1-0.7-0.1-0.9-0.4
							c-0.1-0.3,0-0.7,0.4-0.8c0.2-0.1,0.4,0,0.5,0.1c0.1,0.1,0.2,0.2,0.3,0.1c0.2,0,0.2-0.4,0.2-0.6c-0.1-0.5-0.4-0.7-0.9-0.8
							c-0.4,0-1,0.1-1.4,0.2c-0.3,0.1-0.9,0.3-1.2,0.6c-0.4,0.3-0.6,0.6-0.3,1c0.3,0.5,1.1,0.5,1.7,0.4l0,0
							c-0.5,0.3-1.4,1.1-1.5,1.9c1.3-0.7,2.8-1.2,4.2-1.5L80.3,19.8z"/>
					</g>
					<g>
						<path class="st4" d="M80.6,21.5l-0.2-1.1c2.8-0.5,5.7,0,8.2,1.4l-0.5,1C85.7,21.5,83.1,21,80.6,21.5z"/>
						<path d="M88.9,21.3c-2.6-1.4-5.7-2-8.6-1.5l-0.1-0.3c1.5-0.3,3-0.3,4.4,0c-0.3-0.8-1.4-1.2-2-1.4l0,0c0.6-0.1,1.3-0.3,1.5-0.9
							c0.2-1-1.3-1-2.1-1c-1,0-2,0.2-1.9,1.2c0,0.2,0.1,0.5,0.4,0.5c0.1,0,0.1-0.1,0.2-0.2c0.1-0.1,0.2-0.2,0.5-0.3
							c0.4,0,0.6,0.3,0.7,0.6c0,0.4-0.3,0.6-0.7,0.7c-0.9,0.1-1.3-0.9-1.4-1.6c-0.1-0.6,0.1-1.2,0.5-1.6c0.4-0.4,1.1-0.7,2-0.7
							c0.7,0,1.3,0.2,1.7,0.5c0.4,0.4,0.6,0.8,0.6,1.3c0,0.3-0.1,0.6-0.3,0.9c0.2,0.2,0.4,0.3,0.7,0.5l0.8-0.3c-0.1-0.4-0.1-0.7,0-1
							c0.3-1,1.6-1.4,2.8-1c1.6,0.6,2.1,1.9,1.5,2.9c-0.3,0.6-1.1,1.4-1.8,1c-0.3-0.2-0.5-0.5-0.4-0.9c0.1-0.3,0.5-0.5,0.8-0.4
							c0.2,0.1,0.3,0.2,0.4,0.4c0.1,0.1,0.1,0.3,0.2,0.3c0.2,0.1,0.4-0.2,0.5-0.4c0.5-0.9-0.6-1.5-1.5-1.8c-0.7-0.3-2.1-0.7-2.2,0.3
							c-0.1,0.6,0.6,1.1,1.1,1.4l0,0c-0.6-0.1-1.8-0.1-2.3,0.6c1.5,0.3,2.9,0.8,4.2,1.5L88.9,21.3z"/>
					</g>
					<g>
						<path class="st4" d="M88.1,22.8l0.5-1c2.6,1.4,4.8,3.5,6.6,6l-0.9,0.7C92.5,26.1,90.4,24.1,88.1,22.8z"/>
						<path d="M95.6,27.4c-1.9-2.5-4.1-4.7-6.8-6.1L89,21c1.3,0.7,2.6,1.6,3.7,2.7c0.2-0.8-0.5-1.8-0.9-2.3l0,0
							c0.5,0.3,1.3,0.5,1.7,0.1c0.7-0.7-0.4-1.6-1.1-2c-0.8-0.6-1.7-1-2.2-0.1c-0.1,0.1-0.2,0.5,0,0.6c0.1,0,0.2,0,0.3,0
							c0.1,0,0.3,0,0.5,0.1c0.3,0.2,0.4,0.6,0.2,0.9c-0.2,0.3-0.6,0.4-0.9,0.2c-0.7-0.5-0.5-1.5-0.2-2.1c0.6-1.1,1.9-1.3,3.3-0.4
							c1.1,0.7,1.4,2,0.8,2.8c-0.2,0.2-0.4,0.4-0.8,0.6c0.1,0.3,0.2,0.5,0.2,0.8l0.8,0.2c0.1-0.4,0.3-0.6,0.5-0.8
							c0.8-0.7,2-0.5,2.8,0.5c1,1.2,1,2.5,0,3.2c-0.6,0.4-1.6,0.8-2.1,0.1c-0.2-0.3-0.2-0.7,0-1c0.3-0.2,0.7-0.3,0.9,0.1
							c0.1,0.2,0.2,0.3,0.1,0.5c0,0.1,0,0.3,0,0.3c0.1,0.2,0.5,0,0.6-0.1c0.8-0.6,0.2-1.6-0.4-2.2c-0.5-0.6-1.4-1.6-2-0.8
							c-0.4,0.5-0.1,1.2,0.2,1.7l0,0c-0.5-0.4-1.5-1-2.3-0.7c1.1,1,2.2,2.2,3.1,3.5L95.6,27.4z"/>
					</g>
					<g>
						<path class="st4" d="M94.3,28.4l0.9-0.7c1.8,2.5,3.3,5.3,4.4,8.2l-1,0.4C97.5,33.5,96,30.8,94.3,28.4z"/>
						<path d="M100.1,35.8c-1.1-3-2.6-5.8-4.5-8.3l0.3-0.2c0.9,1.2,1.7,2.6,2.5,4c0.5-0.7,0.1-1.9-0.1-2.5l0,0
							c0.4,0.5,1,0.9,1.6,0.7c0.9-0.4,0.2-1.6-0.2-2.2c-0.5-0.8-1.1-1.5-2-1c-0.1,0.1-0.4,0.4-0.3,0.6c0,0.1,0.2,0.1,0.3,0.1
							c0.1,0,0.3,0.1,0.4,0.3c0.2,0.3,0.1,0.7-0.2,0.9c-0.3,0.2-0.7,0.1-0.9-0.2c-0.5-0.7,0.2-1.6,0.7-2c1-0.7,2.3-0.4,3.1,0.9
							c0.6,1,0.5,2.2-0.3,2.8c-0.2,0.2-0.5,0.3-0.9,0.3l0,0.8l0.7,0.4c0.3-0.3,0.5-0.5,0.8-0.6c1-0.4,2,0.2,2.5,1.2
							c0.6,1.4,0.2,2.6-0.9,3c-0.7,0.3-1.7,0.4-2-0.5c-0.1-0.3,0-0.8,0.3-0.9c0.3-0.1,0.7-0.1,0.8,0.3c0.1,0.2,0.1,0.4,0,0.5
							c-0.1,0.1-0.1,0.2-0.1,0.3c0.1,0.2,0.5,0.1,0.6,0.1c0.9-0.4,0.6-1.5,0.2-2.2c-0.3-0.6-0.8-1.9-1.7-1.3
							c-0.5,0.3-0.5,1.1-0.3,1.7l0,0c-0.4-0.5-1.1-1.4-2-1.4c0.7,1.4,1.4,2.8,2,4.3L100.1,35.8z"/>
					</g>
					<g>
						<path class="st4" d="M98.6,36.4l1-0.4c1.1,2.9,2,6,2.5,9.1l-1.1,0.2C100.5,42.2,99.7,39.2,98.6,36.4z"/>
						<path d="M102.6,45c-0.5-3.2-1.4-6.3-2.5-9.2l0.3-0.1c0.6,1.5,1.1,3,1.5,4.5c0.6-0.6,0.6-1.8,0.5-2.4l0,0
							c0.2,0.5,0.7,1.1,1.4,1c1-0.2,0.5-1.5,0.3-2.1c-0.3-0.9-0.7-1.7-1.6-1.4c-0.2,0-0.5,0.2-0.4,0.5c0,0.1,0.1,0.1,0.3,0.2
							c0.1,0.1,0.3,0.2,0.3,0.4c0.1,0.4-0.1,0.7-0.4,0.8c-0.3,0.1-0.7-0.1-0.8-0.5c-0.3-0.8,0.6-1.5,1.2-1.7
							c1.1-0.5,2.3,0.2,2.7,1.6c0.4,1.1,0,2.2-1,2.6c-0.3,0.1-0.6,0.1-1,0.1l-0.2,0.8c0.2,0.2,0.4,0.4,0.6,0.6
							c0.3-0.2,0.6-0.4,0.9-0.4c1-0.2,1.9,0.6,2.2,1.7c0.3,1.4-0.3,2.6-1.5,2.7c-0.7,0.1-1.8,0-1.9-0.9c-0.1-0.4,0.1-0.8,0.5-0.8
							c0.3-0.1,0.7,0.1,0.8,0.5c0,0.2,0,0.4-0.1,0.5c-0.1,0.1-0.2,0.2-0.1,0.3c0,0.2,0.4,0.2,0.6,0.2c1-0.2,0.9-1.3,0.7-2.1
							c-0.1-0.7-0.4-2-1.3-1.6c-0.6,0.2-0.7,1-0.6,1.6l0,0c-0.3-0.6-0.8-1.6-1.7-1.8c0.4,1.5,0.8,3.1,1,4.6L102.6,45z"/>
					</g>
					<g>
						<path class="st4" d="M101,45.3l1.1-0.2c0.6,3.1,0.8,6.3,0.8,9.5h-1.1C101.8,51.4,101.5,48.3,101,45.3z"/>
						<path d="M103.5,54.6c0-3.2-0.3-6.4-0.8-9.6l0.3-0.1c0.3,1.6,0.5,3.1,0.6,4.7c0.7-0.5,0.9-1.7,0.9-2.3l0,0
							c0.1,0.6,0.5,1.3,1.1,1.3c1,0,0.8-1.4,0.7-2c-0.1-0.9-0.3-1.8-1.3-1.7c-0.2,0-0.5,0.1-0.5,0.4c0,0.1,0.1,0.1,0.2,0.2
							c0.1,0.1,0.2,0.2,0.3,0.4c0.1,0.4-0.2,0.6-0.6,0.7c-0.4,0-0.7-0.2-0.7-0.6c-0.1-0.9,0.8-1.3,1.5-1.4c1.2-0.2,2.2,0.6,2.4,2.1
							c0.1,1.2-0.4,2.2-1.5,2.4c-0.3,0.1-0.6,0-1-0.1l-0.4,0.8l0.5,0.7c0.4-0.2,0.7-0.3,1-0.3c1.1,0,1.8,0.9,1.9,2.1
							c0.1,1.5-0.8,2.4-2,2.4c-0.7,0-1.7-0.3-1.8-1.2c0-0.4,0.3-0.7,0.6-0.7c0.4,0,0.7,0.2,0.7,0.6c0,0.2-0.1,0.4-0.2,0.5
							c-0.1,0.1-0.2,0.2-0.2,0.3c0,0.2,0.4,0.3,0.6,0.3c1,0,1.1-1.2,1-2c0-0.7-0.1-2-1-1.8c-0.6,0.1-0.9,0.9-0.9,1.4l0,0
							c-0.1-0.6-0.5-1.7-1.3-2.1c0.1,1.6,0.2,3.2,0.2,4.8H103.5z"/>
					</g>
				</g>
			</g>
		</g>
	</g>
</g>
<g id="Слой_3" class="st0">
</g>
</svg>
