<?xml version="1.0" encoding="utf-8"?>
<!-- Generator: Adobe Illustrator 24.1.2, SVG Export Plug-In . SVG Version: 6.00 Build 0)  -->
<svg version="1.1" xmlns="http://www.w3.org/2000/svg" xmlns:xlink="http://www.w3.org/1999/xlink" x="0px" y="0px"
	 viewBox="0 0 108 108" style="enable-background:new 0 0 108 108;" xml:space="preserve">
<style type="text/css">
	.st0{fill:#BBDEF9;}
	.st1{fill:#232323;}
	.st2{fill:#FFFFFF;}
	.st3{fill:none;}
</style>
<g id="Слой_2">
	<g>
		<g>
			<polygon class="st0" points="94.9,5.4 94.9,102.6 62.3,85.7 62.3,22.3 			"/>
			<g>
				<path class="st1" d="M93.7,5.4c0,28.3,0,56.5,0,84.8c0,4.1,0,8.2,0,12.3c0.6-0.4,1.3-0.7,1.9-1.1c-8.7-4.5-17.4-9-26.2-13.5
					c-1.6-0.8-3.7-2.5-5.4-2.8c-0.3-0.1-0.8-0.4-1-0.5c1.3,0.9,0.4,1.5,0.6,0.5c0.7-3.2,0-7.2,0-10.4c0-12.4,0-24.8,0-37.2
					c0-4.3,0-8.7,0-13c0-0.6-0.1-1.5,0-2.1c-0.4,1.9-0.9,0.8,0.1,0.7c0.8-0.1,1.9-1,2.5-1.3C76,16.6,85.8,11.6,95.6,6.5
					c1.4-0.7,0.2-2.9-1.3-2.2C83.4,10,72.5,15.6,61.7,21.2c-0.4,0.2-0.6,0.7-0.6,1.1c0,21.1,0,42.3,0,63.4c0,0.4,0.2,0.9,0.6,1.1
					c10.9,5.6,21.8,11.2,32.6,16.8c0.8,0.4,1.9-0.1,1.9-1.1c0-28.3,0-56.5,0-84.8c0-4.1,0-8.2,0-12.3C96.2,3.8,93.7,3.8,93.7,5.4z"
					/>
			</g>
		</g>
		<g>
			<g>
				<path class="st2" d="M83.4,18.7c1.1,1.1,2.2,2.2,3.3,3.3c1.1,1.1,2.9-0.6,1.8-1.8c-1.1-1.1-2.2-2.2-3.3-3.3
					C84.1,15.8,82.3,17.6,83.4,18.7L83.4,18.7z"/>
			</g>
		</g>
		<g>
			<g>
				<path class="st2" d="M78.9,20.3c2,2,4,4,6,6c1.1,1.1,2.9-0.6,1.8-1.8c-2-2-4-4-6-6C79.5,17.4,77.8,19.2,78.9,20.3L78.9,20.3z"/>
			</g>
		</g>
		<g>
			<path class="st1" d="M93.3,59.1c0,0.1,0,0.2,0,0.3c-0.8,0-1.2-0.1-1.2-0.1h-0.2c-0.5,0-1-0.1-1.6-0.1L88,59.4h-1.1
				c0-0.1-0.1-0.3-0.1-0.3c0-0.2,0-0.3,0.1-0.3c0.1-0.1,0.3-0.1,0.7-0.1c0.4,0,0.6-0.1,0.8-0.1c0.1,0,0.3-0.1,0.4-0.2
				c0.1-0.2,0.2-0.4,0.2-0.6c0-2.2,0-3.5,0.1-4.1l0-0.3c0-0.4-0.1-0.8-0.3-1.2c-0.1-0.2-0.3-0.4-0.5-0.4l-0.1,0
				c-0.1,0-0.3,0.1-0.5,0.3c-0.4,0.3-0.7,0.4-1.1,0.4c-0.4,0-0.7-0.1-0.9-0.4c-0.2-0.3-0.3-0.6-0.3-1s0.2-0.7,0.5-1
				c0.3-0.3,0.7-0.4,1.1-0.4c0.3,0,0.6,0.1,0.9,0.3c0.3,0.3,0.6,0.5,0.6,0.6c0.2,0.2,0.4,0.6,0.7,1.1c0-0.6,0-0.9,0-1
				c0-0.2,0-0.4,0-0.7c0-0.1,0-0.2,0-0.3c0-0.1,0-0.3,0.1-0.5l0.8,0c0.1,0.1,0.2,0.2,0.3,0.4c0.2,0.3,0.6,0.7,1.1,1
				c0.5,0.3,1,0.5,1.6,0.6l0,0.4c0,0.1-0.1,0.2-0.3,0.3c-0.3,0.1-0.6,0.2-0.8,0.3c-0.1,0.1-0.2,0.2-0.2,0.3c-0.1,0.7-0.1,2.1-0.1,4
				c0,1.1,0,1.7,0.1,1.9c0.4,0.2,0.7,0.4,1.2,0.5c0.2,0,0.3,0.1,0.4,0.2C93.3,58.9,93.3,59,93.3,59.1z"/>
			<path class="st1" d="M84.3,55c0,0.4-0.1,0.8-0.3,1.4c-0.1,0.5-0.4,0.9-0.7,1.3c-0.3,0.4-0.7,0.8-1.1,1.1s-0.9,0.5-1.4,0.7
				c-0.4,0.1-0.9,0.2-1.5,0.2c-0.9,0-1.8-0.2-2.5-0.5s-1.5-0.9-2.2-1.7c0.2-0.2,0.4-0.4,0.7-0.6c0.4,0.3,0.8,0.5,1,0.6
				c0.3,0.1,0.6,0.2,1,0.3c0.2,0,0.6,0.1,1.2,0.1l0.7-0.2c0.3-0.1,0.6-0.3,0.9-0.5c0.3-0.3,0.6-0.6,0.8-0.9c0.2-0.4,0.4-0.8,0.5-1.2
				s0.2-0.9,0.2-1.3c0-0.1,0-0.2,0-0.3h-1c-0.8,0-1.2,0-1.3,0c-0.2,0-0.5,0-0.9,0.1c-1.2,0.1-2,0.1-2.4,0.1l-1.3,0
				c0-0.6,0.1-1.1,0.3-1.6c0.2-0.4,0.4-0.8,0.7-1.1c0.3-0.3,0.6-0.6,1.1-0.9c0.3-0.2,0.7-0.4,1.2-0.5s1.1-0.2,1.8-0.2
				c0.3,0,0.7,0.1,1.3,0.2c0.4,0.1,0.9,0.4,1.4,0.7c0.5,0.4,1,0.9,1.4,1.5c0.2,0.2,0.3,0.7,0.5,1.3C84.3,53.7,84.3,54.3,84.3,55z
				 M77.6,52.6c0.1,0,0.3,0,0.5,0c0.3,0,0.6,0,0.7,0l2.7,0c-0.1-0.8-0.3-1.4-0.7-1.9c-0.4-0.5-0.9-0.7-1.4-0.7
				c-0.4,0-0.7,0.1-1.1,0.3s-0.6,0.5-0.8,0.9c-0.2,0.4-0.3,0.8-0.3,1.3C77.4,52.6,77.5,52.6,77.6,52.6z"/>
			<path class="st1" d="M72.5,57.8c-0.1,0.6-0.1,0.9-0.2,1s-0.1,0.1-0.2,0.2c-0.5,0.2-0.8,0.3-0.9,0.3c-0.5,0.1-0.8,0.2-1.2,0.2
				c-0.7,0.1-1.2,0.1-1.4,0.1c-1.3,0-2.3-0.3-3-0.9c-0.7-0.6-1-1.4-1-2.3c0-0.6,0.1-1.1,0.4-1.6c0.3-0.5,0.8-0.8,1.5-1.2
				c0.5-0.2,1.3-0.5,2.3-0.7c0.7-0.1,1.2-0.4,1.4-0.6c0.3-0.3,0.4-0.5,0.4-0.8c0-0.4-0.1-0.7-0.4-0.9c-0.4-0.3-0.8-0.5-1.4-0.5
				c-0.5,0-1,0.1-1.4,0.4c-0.4,0.3-0.8,0.8-1.2,1.5c-0.1,0.2-0.2,0.4-0.3,0.5c-0.1,0-0.3,0-0.3,0c-0.1,0-0.3,0-0.5-0.1
				c0-0.1,0-0.1,0-0.2c0-0.1,0-0.5,0.1-1.2c0.1-0.7,0.2-1.1,0.2-1.3c0.4-0.2,0.9-0.4,1.4-0.5c0.6-0.1,1.2-0.2,2-0.2
				c0.5,0,1,0.1,1.5,0.3c0.5,0.2,0.8,0.4,1,0.6c0.3,0.3,0.6,0.6,0.7,1c0.2,0.4,0.3,0.9,0.3,1.5c0,0.3-0.1,0.7-0.3,1.2
				c-0.2,0.3-0.4,0.6-0.7,0.9c-0.3,0.3-0.6,0.5-1,0.6c-0.2,0.1-0.6,0.2-1.4,0.4c-0.8,0.2-1.3,0.3-1.5,0.4c-0.4,0.2-0.7,0.3-0.8,0.5
				c-0.1,0.2-0.2,0.4-0.2,0.6c0,0.4,0.2,0.7,0.5,1c0.4,0.3,0.8,0.5,1.3,0.5c0.3,0,0.6,0,0.8-0.1c0.4-0.1,0.7-0.3,0.9-0.4
				c0.3-0.2,0.5-0.5,0.8-0.8c0.1-0.2,0.4-0.6,0.8-1.4l0.1-0.1c0.1,0,0.2,0,0.2,0c0.1,0,0.3,0,0.5,0.1C72.7,56.3,72.6,56.8,72.5,57.8
				z"/>
		</g>
		<g>
			<path class="st1" d="M13.1,58.4c0.1,0,0.4-0.1,0.7-0.1c0.7-0.1,1.2-0.3,1.4-0.5c0.1-0.1,0.2-0.4,0.3-0.8c0-0.1,0-1.3,0.1-3.6
				l0-1.3l0-1.6l0-4V46c0-0.2-0.1-0.4-0.2-0.5c-0.1-0.1-0.2-0.1-0.5-0.1c-0.2,0-0.4,0-0.7,0.1c-0.3,0-0.7,0-0.9,0.1c0,0-0.1,0-0.2,0
				l0-1c0.5-0.2,1.1-0.3,2-0.4c1.4-0.2,3.2-0.4,5.3-0.4c1.8,0,3,0.1,3.9,0.3c1.2,0.3,2.2,0.8,3,1.4c1,0.8,1.8,1.8,2.3,2.8
				s0.8,2.2,0.8,3.5c0,1.6-0.3,3-1,4.1c-0.7,1.1-1.7,2.1-3,2.7c-0.9,0.5-2.2,0.7-3.7,0.7l-2.4-0.1l-0.7,0l-1,0l-0.3,0l-1,0l-1.3,0
				c0,0-0.5,0-1.2,0.1c-0.3,0-0.6,0-1,0c-0.3,0-0.4,0-0.6,0C13.1,59.2,13.1,58.8,13.1,58.4z M18.8,45.2c0,0.2,0,0.4,0,0.5l0,2v1.8
				c0,0.6,0,1.1,0,1.5l0,1.1l0,1.9l0,1.2c0,1.1,0.2,1.8,0.6,2.2c0.6,0.6,1.4,0.8,2.4,0.8c0.8,0,1.4-0.1,1.7-0.2
				c0.8-0.3,1.4-0.7,1.8-1.2c0.5-0.5,0.8-1.2,1-2.1c0.2-0.9,0.4-1.9,0.4-2.8c0-1.6-0.3-2.9-0.8-3.9s-1.2-1.8-2.1-2.3s-1.9-0.8-3-0.8
				C20.1,44.9,19.4,45,18.8,45.2z"/>
			<path class="st1" d="M31.9,58.8c0.1-0.1,0.2-0.2,0.4-0.2c0.4-0.1,0.8-0.2,1.1-0.5c0.1-0.2,0.1-0.8,0.1-1.9c0-2,0-3.3-0.1-4
				c0-0.1-0.1-0.2-0.2-0.3c-0.2-0.1-0.5-0.2-0.8-0.3c-0.2,0-0.3-0.1-0.3-0.3l0-0.4c0.6-0.1,1.1-0.3,1.6-0.6c0.5-0.3,0.8-0.6,1.1-1
				c0.1-0.2,0.2-0.3,0.3-0.4l0.8,0c0,0.2,0.1,0.3,0.1,0.5c0,0.1,0,0.2,0,0.3c0,0.3,0,0.5,0,0.7c0,0.1,0,0.4,0,1
				c0.3-0.6,0.6-0.9,0.7-1.1c0.1-0.1,0.3-0.3,0.6-0.6c0.3-0.2,0.6-0.3,0.9-0.3c0.4,0,0.8,0.1,1.1,0.4c0.3,0.3,0.5,0.6,0.5,1
				s-0.1,0.7-0.3,1c-0.2,0.3-0.5,0.4-0.9,0.4c-0.3,0-0.7-0.1-1.1-0.4c-0.2-0.2-0.4-0.3-0.5-0.3l-0.1,0c-0.2,0.1-0.3,0.2-0.5,0.4
				c-0.2,0.4-0.3,0.8-0.3,1.2l0,0.3c0,0.6,0.1,1.9,0.1,4.1c0,0.2,0.1,0.4,0.2,0.6c0.1,0.1,0.3,0.2,0.4,0.2c0.1,0,0.4,0.1,0.8,0.1
				c0.4,0,0.6,0.1,0.7,0.1c0.1,0.1,0.1,0.2,0.1,0.3c0,0.1,0,0.2-0.1,0.3h-1.1l-2.3-0.1c-0.6,0-1.1,0-1.6,0.1h-0.2
				c-0.1,0-0.5,0-1.2,0.1c0-0.1,0-0.2,0-0.3S31.9,58.9,31.9,58.8z"/>
			<path class="st1" d="M41,53.1c0.2-0.7,0.4-1.1,0.5-1.3c0.4-0.6,0.9-1.2,1.4-1.5c0.5-0.4,1-0.6,1.4-0.7c0.5-0.2,0.9-0.2,1.3-0.2
				c0.7,0,1.3,0.1,1.8,0.2s0.8,0.3,1.1,0.5c0.4,0.3,0.8,0.6,1.1,0.9c0.3,0.3,0.5,0.7,0.7,1.1c0.2,0.4,0.3,0.9,0.3,1.6l-1.3,0
				c-0.4,0-1.2,0-2.4-0.1c-0.5,0-0.8-0.1-0.9-0.1c-0.1,0-0.5,0-1.3,0h-1c0,0.1,0,0.2,0,0.3c0,0.4,0.1,0.9,0.2,1.3
				c0.1,0.5,0.3,0.9,0.5,1.2c0.2,0.4,0.5,0.7,0.8,0.9c0.3,0.3,0.6,0.4,0.9,0.5l0.7,0.2c0.6,0,1,0,1.2-0.1c0.4-0.1,0.7-0.2,1-0.3
				c0.3-0.1,0.6-0.3,1-0.6c0.3,0.2,0.5,0.4,0.7,0.6c-0.7,0.8-1.4,1.3-2.2,1.7s-1.6,0.5-2.5,0.5c-0.6,0-1.1-0.1-1.5-0.2
				c-0.5-0.1-1-0.4-1.4-0.7s-0.8-0.7-1.1-1.1c-0.3-0.4-0.5-0.9-0.7-1.3c-0.2-0.6-0.3-1.1-0.3-1.4C40.9,54.2,40.9,53.6,41,53.1z
				 M47.9,52.6c0-0.4-0.1-0.9-0.3-1.3c-0.2-0.4-0.4-0.7-0.8-0.9c-0.3-0.2-0.7-0.3-1.1-0.3c-0.5,0-1,0.2-1.4,0.7
				c-0.4,0.5-0.7,1.1-0.7,1.9l2.7,0c0.2,0,0.4,0,0.7,0c0.2,0,0.4,0,0.5,0C47.7,52.6,47.8,52.6,47.9,52.6z"/>
			<path class="st1" d="M52.5,56c0.2,0,0.4-0.1,0.5-0.1c0.1,0,0.1,0,0.2,0l0.1,0.1c0.4,0.8,0.7,1.2,0.8,1.4c0.3,0.3,0.5,0.6,0.8,0.8
				c0.2,0.1,0.5,0.3,0.9,0.4c0.3,0.1,0.5,0.1,0.8,0.1c0.5,0,0.9-0.2,1.3-0.5c0.4-0.3,0.5-0.7,0.5-1c0-0.3-0.1-0.5-0.2-0.6
				c-0.1-0.2-0.4-0.4-0.8-0.5c-0.2-0.1-0.7-0.2-1.5-0.4c-0.8-0.2-1.3-0.3-1.4-0.4c-0.4-0.1-0.7-0.3-1-0.6s-0.5-0.5-0.7-0.9
				c-0.2-0.5-0.3-0.8-0.3-1.2c0-0.6,0.1-1.1,0.3-1.5c0.2-0.4,0.4-0.7,0.7-1c0.2-0.2,0.6-0.4,1-0.6c0.5-0.2,1-0.3,1.5-0.3
				c0.8,0,1.4,0.1,2,0.2c0.6,0.1,1.1,0.3,1.4,0.5c0,0.2,0.1,0.6,0.2,1.3s0.1,1,0.1,1.2c0,0.1,0,0.1,0,0.2c-0.2,0.1-0.4,0.1-0.5,0.1
				c-0.1,0-0.2,0-0.3,0c-0.1-0.1-0.2-0.3-0.3-0.5c-0.4-0.7-0.8-1.2-1.2-1.5c-0.4-0.3-0.9-0.4-1.4-0.4c-0.5,0-1,0.2-1.4,0.5
				c-0.3,0.2-0.4,0.5-0.4,0.9c0,0.3,0.1,0.5,0.4,0.8c0.3,0.3,0.8,0.5,1.4,0.6c1,0.2,1.8,0.5,2.3,0.7c0.7,0.3,1.2,0.7,1.5,1.2
				s0.4,1,0.4,1.6c0,0.9-0.3,1.7-1,2.3c-0.7,0.6-1.7,0.9-3,0.9c-0.2,0-0.6,0-1.4-0.1c-0.3,0-0.7-0.1-1.2-0.2c-0.1,0-0.4-0.1-0.9-0.3
				c-0.1,0-0.1-0.1-0.2-0.2s-0.1-0.4-0.2-1C52.6,56.8,52.5,56.2,52.5,56z"/>
		</g>
		<rect x="36.4" y="42.4" class="st3" width="0.3" height="0.3"/>
	</g>
</g>
<g id="Слой_3">
</g>
</svg>
