<?xml version="1.0" encoding="utf-8"?>
<!-- Generator: Adobe Illustrator 24.1.2, SVG Export Plug-In . SVG Version: 6.00 Build 0)  -->
<svg version="1.1" id="Слой_2" xmlns="http://www.w3.org/2000/svg" xmlns:xlink="http://www.w3.org/1999/xlink" x="0px" y="0px"
	 viewBox="0 0 108 108" style="enable-background:new 0 0 108 108;" xml:space="preserve">
<style type="text/css">
	.st0{fill:#BBDEF9;}
	.st1{fill:#232323;}
	.st2{fill:#FFFFFF;}
	.st3{fill:none;}
</style>
<g>
	<polygon class="st0" points="96,4.7 96,101.8 63.4,85 63.4,21.6 	"/>
	<g>
		<path class="st1" d="M94.8,4.7c0,28.3,0,56.5,0,84.8c0,4.1,0,8.2,0,12.3c0.6-0.4,1.3-0.7,1.9-1.1c-8.7-4.5-17.4-9-26.2-13.5
			c-1.6-0.8-3.7-2.5-5.4-2.8c-0.3-0.1-0.8-0.4-1-0.5c1.3,0.9,0.4,1.5,0.6,0.5c0.7-3.2,0-7.2,0-10.4c0-12.4,0-24.8,0-37.2
			c0-4.3,0-8.7,0-13c0-0.6-0.1-1.5,0-2.1c-0.4,1.9-0.9,0.8,0.1,0.7c0.8-0.1,1.9-1,2.5-1.3c9.8-5.1,19.6-10.1,29.4-15.2
			c1.4-0.7,0.2-2.9-1.3-2.2C84.5,9.3,73.6,14.9,62.7,20.5c-0.4,0.2-0.6,0.7-0.6,1.1c0,21.1,0,42.3,0,63.4c0,0.4,0.2,0.9,0.6,1.1
			c10.9,5.6,21.8,11.2,32.6,16.8c0.8,0.4,1.9-0.1,1.9-1.1c0-28.3,0-56.5,0-84.8c0-4.1,0-8.2,0-12.3C97.3,3.1,94.8,3.1,94.8,4.7z"/>
	</g>
</g>
<g>
	<g>
		<path class="st2" d="M84.5,18c1.1,1.1,2.2,2.2,3.3,3.3c1.1,1.1,2.9-0.6,1.8-1.8c-1.1-1.1-2.2-2.2-3.3-3.3
			C85.1,15.1,83.4,16.8,84.5,18L84.5,18z"/>
	</g>
</g>
<g>
	<g>
		<path class="st2" d="M80,19.6c2,2,4,4,6,6c1.1,1.1,2.9-0.6,1.8-1.8c-2-2-4-4-6-6C80.6,16.7,78.8,18.5,80,19.6L80,19.6z"/>
	</g>
</g>
<g>
	<path class="st1" d="M25.8,59.4c0.2,0,0.5-0.1,1-0.2c1-0.2,1.6-0.4,1.9-0.7c0.2-0.2,0.3-0.5,0.4-1c0-0.1,0-1.7,0.1-4.8l0-1.7l0-2.1
		l0-5.3V43c0-0.3-0.1-0.5-0.2-0.6c-0.1-0.1-0.3-0.1-0.6-0.1c-0.3,0-0.6,0-0.9,0.1c-0.5,0-0.9,0.1-1.2,0.1c-0.1,0-0.2,0-0.3,0l0-1.4
		c0.6-0.2,1.5-0.4,2.6-0.6c1.9-0.3,4.2-0.5,7-0.5c2.3,0,4,0.1,5.1,0.4c1.6,0.4,3,1,4,1.8c1.4,1.1,2.4,2.3,3.1,3.7c0.7,1.4,1,3,1,4.6
		c0,2.1-0.5,3.9-1.4,5.4c-0.9,1.5-2.2,2.7-4,3.6c-1.2,0.6-2.9,1-4.9,1l-3.2-0.1l-0.9,0l-1.3,0l-0.4,0l-1.3,0l-1.7,0
		c-0.1,0-0.6,0-1.6,0.1c-0.3,0-0.8,0-1.3,0c-0.3,0-0.6,0-0.8,0C25.8,60.5,25.8,60.1,25.8,59.4z M33.4,42c0,0.3,0,0.6,0,0.7l0,2.7
		v2.3c0,0.8,0,1.4,0,2l0,1.5l0,2.5l0,1.5c0,1.4,0.3,2.4,0.8,2.9c0.8,0.7,1.8,1.1,3.2,1.1c1,0,1.8-0.1,2.3-0.3c1-0.4,1.8-0.9,2.4-1.6
		c0.6-0.7,1.1-1.6,1.4-2.8c0.3-1.2,0.5-2.4,0.5-3.7c0-2.1-0.3-3.8-1-5.2c-0.7-1.3-1.6-2.3-2.8-3c-1.2-0.7-2.5-1-4-1
		C35.1,41.6,34.2,41.7,33.4,42z"/>
	<path class="st1" d="M50.7,60c0.1-0.1,0.3-0.2,0.5-0.3c0.5-0.1,1-0.3,1.5-0.6c0.1-0.3,0.1-1.1,0.1-2.5c0-2.6-0.1-4.4-0.2-5.3
		c0-0.2-0.1-0.3-0.3-0.4c-0.3-0.1-0.6-0.3-1.1-0.4c-0.2-0.1-0.3-0.2-0.4-0.3l0-0.6c0.8-0.1,1.5-0.4,2.1-0.8c0.6-0.4,1.1-0.9,1.4-1.3
		c0.2-0.2,0.3-0.4,0.4-0.5l1.1,0c0.1,0.2,0.1,0.4,0.1,0.6c0,0.1,0,0.3,0,0.4c0,0.4,0,0.7,0,0.9c0,0.1,0,0.5,0,1.3
		c0.4-0.7,0.7-1.2,0.9-1.5c0.1-0.1,0.4-0.4,0.8-0.8c0.4-0.3,0.8-0.4,1.2-0.4c0.6,0,1,0.2,1.4,0.6c0.4,0.4,0.6,0.8,0.6,1.3
		c0,0.5-0.2,0.9-0.5,1.3c-0.3,0.4-0.7,0.6-1.2,0.6c-0.4,0-0.9-0.2-1.4-0.6c-0.3-0.2-0.5-0.3-0.7-0.3l-0.1,0
		c-0.2,0.1-0.4,0.3-0.6,0.6c-0.3,0.5-0.4,1.1-0.4,1.6l0,0.4c0,0.8,0.1,2.6,0.1,5.4c0,0.3,0.1,0.5,0.3,0.8c0.2,0.1,0.4,0.2,0.6,0.3
		c0.2,0.1,0.5,0.1,1,0.2c0.5,0,0.8,0.1,0.9,0.2s0.2,0.2,0.2,0.4c0,0.1,0,0.3-0.1,0.5h-1.5l-3-0.1c-0.8,0-1.4,0-2,0.1h-0.3
		c-0.1,0-0.6,0-1.6,0.1c0-0.2,0-0.3,0-0.4S50.6,60.1,50.7,60z"/>
</g>
<g>
	<path class="st1" d="M91.4,40.1c-2.3,0-4,0.1-5.1,0.4c-1.6,0.4-3,1-4,1.8c-1.4,1.1-2.4,2.3-3.1,3.7c-0.7,1.4-1,3-1,4.6
		c0,2.1,0.5,3.9,1.4,5.4c0.9,1.5,2.2,2.7,4,3.6c1.2,0.7,2.9,1,4.9,1l3.2-0.1l0.9,0l1.3,0l0.4,0l1.3,0H96V40.3
		C94.6,40.2,93.1,40.1,91.4,40.1z M93.5,45.4v2.3c0,0.8,0,1.4,0,2l0,1.5l0,2.5l0,1.5c0,1.4-0.3,2.4-0.8,2.9
		c-0.8,0.7-1.8,1.1-3.2,1.1c-1,0-1.8-0.1-2.3-0.3c-1-0.4-1.8-0.9-2.4-1.6c-0.6-0.7-1.1-1.6-1.4-2.8c-0.3-1.2-0.5-2.4-0.5-3.7
		c0-2.1,0.3-3.8,1-5.1c0.7-1.3,1.6-2.3,2.8-3c1.2-0.7,2.5-1,4-1c1.1,0,2,0.1,2.8,0.4c0,0.3,0,0.6,0,0.7L93.5,45.4z"/>
	<path class="st1" d="M76.2,60c-0.1-0.1-0.3-0.2-0.5-0.3c-0.5-0.1-1-0.3-1.5-0.6C74.1,58.8,74,58,74,56.5c0-2.6,0.1-4.4,0.2-5.3
		c0-0.2,0.1-0.3,0.3-0.4c0.3-0.1,0.6-0.3,1.1-0.4c0.2,0,0.3-0.2,0.4-0.3l0-0.6c-0.8-0.1-1.5-0.4-2.1-0.8c-0.6-0.4-1.1-0.9-1.4-1.3
		c-0.2-0.2-0.3-0.4-0.4-0.5l-1.1,0c-0.1,0.2-0.1,0.4-0.1,0.6c0,0.1,0,0.3,0,0.4c0,0.4,0,0.7,0,0.9c0,0.1,0,0.5,0,1.3
		c-0.4-0.7-0.7-1.2-0.9-1.5c-0.1-0.1-0.4-0.4-0.8-0.8c-0.4-0.3-0.8-0.4-1.2-0.4c-0.5,0-1,0.2-1.4,0.6c-0.4,0.4-0.6,0.8-0.6,1.3
		c0,0.5,0.2,0.9,0.5,1.3c0.3,0.4,0.7,0.6,1.2,0.6c0.5,0,0.9-0.2,1.4-0.6c0.3-0.2,0.5-0.4,0.7-0.4l0.1,0c0.2,0.1,0.4,0.3,0.6,0.6
		c0.3,0.5,0.4,1.1,0.4,1.6l0,0.4c0,0.8-0.1,2.6-0.1,5.4c0,0.3-0.1,0.5-0.3,0.8c-0.2,0.1-0.4,0.3-0.6,0.3c-0.2,0.1-0.5,0.1-1,0.2
		c-0.5,0-0.8,0.1-0.9,0.2c-0.1,0.1-0.2,0.2-0.2,0.4c0,0.1,0,0.3,0.1,0.5h1.5l3-0.1c0.8,0,1.4,0,2,0.1h0.3c0.1,0,0.6,0,1.6,0.1
		c0-0.2,0.1-0.3,0.1-0.4C76.3,60.2,76.3,60.1,76.2,60z"/>
</g>
<rect x="37.5" y="50.3" class="st3" width="0.3" height="0.3"/>
</svg>
