<?xml version="1.0" encoding="utf-8"?>
<!-- Generator: Adobe Illustrator 24.1.2, SVG Export Plug-In . SVG Version: 6.00 Build 0)  -->
<svg version="1.1" id="Слой_2" xmlns="http://www.w3.org/2000/svg" xmlns:xlink="http://www.w3.org/1999/xlink" x="0px" y="0px"
	 viewBox="0 0 108 108" style="enable-background:new 0 0 108 108;" xml:space="preserve">
<style type="text/css">
	.st0{fill:#FFFFFF;stroke:#000000;stroke-width:0.25;stroke-miterlimit:10;}
	.st1{fill:#1D1D1B;}
</style>
<g>
	<path d="M5.7,45.9h-2L3.9,45h8.3c1.2,0,2.1,0.1,2.7,0.2s1.3,0.4,2.1,0.8s1.5,1.1,2.2,2.1s1,2.2,1,3.8c0,1.7-0.4,3.2-1.1,4.6
		c-0.7,1.4-1.6,2.6-2.7,3.5s-2.1,1.5-3,1.7c-1,0.2-2.1,0.4-3.3,0.4H0.9l0.2-0.9h1.4L5.7,45.9z M9.8,45.9L6.6,61.1h2
		c1.5,0,2.6-0.1,3.2-0.4c0.6-0.3,1.2-0.7,1.8-1.4s1.1-2.3,1.7-4.8s0.8-4.4,0.8-5.6c0-2-1.5-3-4.4-3H9.8z"/>
	<path d="M22.2,62l2.4-9.3h-1.9l0.2-0.8H25c0.5,0,1.1,0,1.8-0.1l0.9-0.1h0.5l-0.7,2.5l0.1,0.1c1.2-1.7,2.3-2.6,3.6-2.6
		c0.5,0,1,0.1,1.3,0.4s0.6,0.7,0.6,1.2c0,0.4-0.2,0.8-0.5,1.1S32,55,31.6,55c-0.5,0-1-0.2-1.3-0.7s-0.6-0.7-0.8-0.7
		c-0.4,0-0.9,0.4-1.5,1.3s-1.1,2.1-1.5,3.6L25.6,62H22.2z"/>
	<path d="M43.4,58.6l0.7,0.4c-1.5,2.2-3.6,3.3-6.4,3.3c-1.5,0-2.6-0.4-3.4-1.1s-1.1-1.7-1.1-2.7c0-1.6,0.7-3.1,2.1-4.6
		c1.4-1.4,3.2-2.1,5.5-2.1c1.1,0,2,0.2,2.5,0.7c0.6,0.5,0.9,1.1,0.9,1.9c0,2.4-2.3,3.5-7,3.4c-0.3,1.1-0.4,1.9-0.4,2.4
		c0,0.9,0.5,1.4,1.6,1.4C40.3,61.4,42,60.5,43.4,58.6z M37.4,57c1.7,0.1,2.8-0.2,3.4-0.9c0.6-0.7,0.9-1.4,0.9-2.1
		c0-0.4-0.1-0.8-0.4-1c-0.2-0.3-0.6-0.4-1.1-0.4c-0.7,0-1.3,0.4-1.7,1.1C38.2,54.3,37.8,55.4,37.4,57z"/>
	<path d="M47.2,54.9c0-0.9,0.4-1.7,1.3-2.3c0.8-0.6,2-0.9,3.6-0.9c1.2,0,2.1,0.2,2.7,0.6c0.6,0.4,1,0.8,1,1.4c0,0.4-0.2,0.7-0.5,0.9
		s-0.7,0.4-1.1,0.4c-0.4,0-0.7-0.1-1-0.4s-0.4-0.6-0.4-1c0-0.2,0-0.3,0.1-0.5s0.1-0.3,0.1-0.4c0-0.3-0.4-0.5-1.1-0.5
		c-1.3,0-2,0.4-2,1.1c0,0.2,0.1,0.5,0.4,0.7c0.2,0.2,0.9,0.6,2.1,1.2c1.1,0.5,1.9,1.1,2.4,1.7c0.4,0.6,0.7,1.2,0.7,1.9
		c0,1-0.5,1.8-1.4,2.5s-2.2,1-3.7,1c-1.3,0-2.4-0.2-3.2-0.7c-0.8-0.5-1.2-1.1-1.2-1.8c0-0.4,0.2-0.7,0.5-1c0.3-0.3,0.7-0.4,1.1-0.4
		c0.4,0,0.8,0.1,1,0.4c0.3,0.3,0.4,0.5,0.4,0.8c0,0.7,0.1,1.3,0.3,1.6c0.2,0.3,0.6,0.5,1.1,0.5c0.7,0,1.2-0.1,1.7-0.3
		s0.7-0.5,0.7-0.9c0-0.8-0.9-1.6-2.7-2.4C48.1,57.2,47.2,56.2,47.2,54.9z"/>
</g>
<g>
	<path d="M96.9,62.1L96,58.5c-0.4-1.5-0.9-2.7-1.5-3.6c-0.6-0.9-1.1-1.3-1.5-1.3c-0.2,0-0.5,0.2-0.8,0.7S91.4,55,90.9,55
		c-0.3,0-0.7-0.1-1-0.4c-0.3-0.3-0.5-0.6-0.5-1.1c0-0.5,0.2-0.9,0.6-1.2c0.4-0.3,0.8-0.4,1.3-0.4c1.2,0,2.4,0.9,3.6,2.6l0.1-0.1
		l-0.7-2.5h0.5l0.9,0.1C96.4,52,97,52,97.5,52h2.1l0.2,0.8h-1.9l2.4,9.3H96.9z"/>
	<path d="M84.1,61.5c1.1,0,1.6-0.5,1.6-1.4c0-0.5-0.1-1.2-0.4-2.4c-4.6,0.2-7-0.9-7-3.4c0-0.8,0.3-1.4,0.9-1.9
		c0.6-0.5,1.4-0.7,2.5-0.7c2.3,0,4.1,0.7,5.5,2.1c1.4,1.4,2.1,2.9,2.1,4.6c0,1-0.4,2-1.1,2.7s-1.9,1.1-3.4,1.1
		c-2.7,0-4.9-1.1-6.4-3.3l0.7-0.4C80.5,60.5,82.2,61.5,84.1,61.5z M83.9,53.6c-0.4-0.7-1-1.1-1.7-1.1c-0.5,0-0.8,0.1-1.1,0.4
		s-0.4,0.6-0.4,1c0,0.7,0.3,1.4,0.9,2.1c0.6,0.7,1.7,1,3.4,0.9C84.7,55.4,84.3,54.3,83.9,53.6z"/>
	<path d="M72.6,58c-1.8,0.8-2.7,1.6-2.7,2.4c0,0.4,0.2,0.7,0.7,0.9c0.4,0.2,1,0.3,1.7,0.3c0.5,0,0.9-0.2,1.1-0.5
		c0.2-0.3,0.3-0.8,0.3-1.6c0-0.3,0.2-0.5,0.4-0.8c0.2-0.2,0.6-0.4,1-0.4c0.4,0,0.8,0.1,1.1,0.4c0.3,0.3,0.5,0.6,0.5,1
		c0,0.7-0.4,1.3-1.2,1.8c-0.8,0.5-1.9,0.7-3.2,0.7c-1.5,0-2.8-0.3-3.7-1c-1-0.6-1.4-1.5-1.4-2.5c0-0.7,0.2-1.3,0.7-1.9
		c0.4-0.6,1.2-1.1,2.4-1.7c1.1-0.5,1.8-0.9,2.1-1.2s0.4-0.5,0.4-0.7c0-0.8-0.7-1.1-2-1.1c-0.8,0-1.1,0.2-1.1,0.5
		c0,0.1,0,0.2,0.1,0.4c0,0.2,0.1,0.3,0.1,0.5c0,0.4-0.1,0.7-0.4,1c-0.3,0.2-0.6,0.4-1,0.4c-0.4,0-0.8-0.1-1.1-0.4s-0.5-0.6-0.5-0.9
		c0-0.6,0.3-1.1,1-1.4s1.6-0.6,2.7-0.6c1.6,0,2.8,0.3,3.6,0.9s1.3,1.3,1.3,2.3C75.3,56.2,74.4,57.3,72.6,58z"/>
</g>
<line class="st0" x1="69.5" y1="47.5" x2="77.5" y2="39.5"/>
<line class="st0" x1="84" y1="47.8" x2="92" y2="39.8"/>
<line class="st0" x1="78" y1="33.8" x2="86" y2="25.8"/>
<line class="st0" x1="71.7" y1="80.5" x2="79.7" y2="72.5"/>
<line class="st0" x1="84.2" y1="80.8" x2="92.2" y2="72.8"/>
<g>
	<g>
		<g>
			<g>
				<path class="st1" d="M101.8,56.6l1.1,0c0,3.2-0.3,6.4-0.8,9.5l-1.1-0.2C101.5,62.8,101.8,59.7,101.8,56.6z"/>
				<path d="M102.6,66.1c0.6-3.2,0.8-6.4,0.8-9.6h0.4c0,1.6-0.1,3.2-0.2,4.8c0.8-0.4,1.2-1.5,1.3-2.1l0,0c0,0.6,0.3,1.3,0.9,1.4
					c1,0.2,1-1.2,1-1.9c0-0.9,0-1.8-1-1.9c-0.2,0-0.6,0-0.6,0.3c0,0.1,0.1,0.2,0.2,0.3c0.1,0.1,0.2,0.2,0.2,0.5
					c0,0.4-0.3,0.6-0.7,0.6c-0.4,0-0.6-0.4-0.6-0.7c0-0.9,1.1-1.2,1.8-1.2c1.2,0,2,1,2,2.4c-0.1,1.2-0.8,2.1-1.9,2.1
					c-0.3,0-0.6-0.1-1-0.3l-0.5,0.7l0.4,0.7c0.4-0.1,0.7-0.2,1-0.1c1,0.2,1.6,1.2,1.5,2.4c-0.2,1.5-1.2,2.3-2.4,2.1
					c-0.7-0.1-1.6-0.6-1.5-1.5c0.1-0.4,0.4-0.7,0.7-0.6c0.3,0,0.6,0.3,0.6,0.7c0,0.2-0.1,0.3-0.3,0.4c-0.1,0.1-0.2,0.1-0.2,0.2
					c0,0.2,0.3,0.4,0.5,0.4c1,0.2,1.3-1,1.3-1.8c0.1-0.7,0.3-2-0.7-2c-0.6,0-1,0.7-1.1,1.3l0,0c-0.1-0.6-0.2-1.8-0.9-2.3
					c-0.1,1.6-0.3,3.2-0.6,4.7L102.6,66.1z"/>
			</g>
			<g>
				<path class="st1" d="M101,65.8l1.1,0.2c-0.5,3.1-1.4,6.2-2.5,9.1l-1-0.4C99.7,71.9,100.5,68.9,101,65.8z"/>
				<path d="M100.1,75.3c1.1-3,2-6.1,2.5-9.2l0.3,0.1c-0.3,1.6-0.6,3.1-1,4.6c0.8-0.2,1.4-1.3,1.7-1.8l0,0c-0.1,0.6,0.1,1.4,0.7,1.6
					c0.9,0.3,1.2-1,1.3-1.7c0.2-0.9,0.3-1.8-0.7-2.1c-0.2,0-0.6-0.1-0.6,0.2c0,0.1,0.1,0.2,0.2,0.3c0.1,0.1,0.2,0.3,0.1,0.5
					c-0.1,0.4-0.4,0.5-0.8,0.5c-0.4-0.1-0.6-0.5-0.5-0.8c0.2-0.9,1.2-1,1.9-0.8c1.2,0.2,1.9,1.3,1.5,2.7c-0.3,1.1-1.1,1.9-2.2,1.7
					c-0.3,0-0.6-0.2-0.9-0.4c-0.2,0.2-0.4,0.4-0.6,0.6l0.2,0.8c0.4,0,0.7,0,1,0.1c1,0.4,1.4,1.5,1,2.6c-0.5,1.4-1.6,2-2.7,1.6
					c-0.7-0.3-1.5-0.9-1.2-1.7c0.1-0.4,0.5-0.6,0.9-0.5c0.3,0.1,0.5,0.4,0.4,0.8c-0.1,0.2-0.2,0.3-0.3,0.4c-0.1,0.1-0.2,0.1-0.3,0.2
					c-0.1,0.2,0.3,0.4,0.4,0.5c1,0.4,1.4-0.7,1.7-1.5c0.2-0.7,0.6-1.9-0.3-2.1c-0.6-0.1-1.1,0.5-1.4,1l0,0c0.1-0.6,0.1-1.8-0.5-2.4
					c-0.4,1.5-0.9,3-1.5,4.5L100.1,75.3z"/>
			</g>
			<g>
				<path class="st1" d="M98.6,74.7l1,0.4c-1.1,2.9-2.6,5.7-4.4,8.2l-0.9-0.7C96,80.3,97.5,77.6,98.6,74.7z"/>
				<path d="M95.6,83.7c1.9-2.5,3.3-5.3,4.5-8.3l0.3,0.1c-0.6,1.5-1.2,2.9-2,4.3c0.9,0,1.7-0.9,2-1.4l0,0c-0.2,0.5-0.2,1.3,0.3,1.7
					c0.8,0.5,1.4-0.7,1.7-1.4c0.4-0.8,0.7-1.7-0.3-2.2c-0.2-0.1-0.5-0.2-0.6,0.1c0,0.1,0,0.2,0.1,0.3c0.1,0.1,0.1,0.3,0,0.5
					c-0.2,0.4-0.5,0.4-0.8,0.3c-0.3-0.1-0.5-0.6-0.3-0.9c0.3-0.8,1.4-0.7,2-0.4c1.1,0.4,1.6,1.7,0.9,3c-0.5,1.1-1.5,1.7-2.5,1.2
					c-0.3-0.1-0.5-0.3-0.8-0.6l-0.7,0.4l0,0.8c0.4,0,0.7,0.1,0.9,0.3c0.9,0.6,1,1.8,0.4,2.8c-0.8,1.3-2.1,1.6-3.1,0.9
					c-0.6-0.4-1.2-1.3-0.7-2c0.2-0.3,0.6-0.4,0.9-0.2c0.3,0.2,0.4,0.5,0.2,0.9c-0.1,0.2-0.3,0.2-0.4,0.3c-0.1,0-0.3,0-0.3,0.1
					c-0.1,0.2,0.2,0.5,0.3,0.6c0.8,0.6,1.6-0.3,2-1c0.4-0.6,1.1-1.7,0.2-2.1c-0.6-0.3-1.2,0.2-1.6,0.7l0,0c0.2-0.6,0.5-1.7,0.1-2.5
					c-0.7,1.4-1.6,2.7-2.5,4L95.6,83.7z"/>
			</g>
			<g>
				<path class="st1" d="M94.3,82.7l0.9,0.7c-1.8,2.5-4,4.6-6.6,6l-0.5-1C90.4,87,92.5,85,94.3,82.7z"/>
				<path d="M88.9,89.8c2.6-1.4,4.9-3.6,6.8-6.1l0.3,0.2c-0.9,1.2-2,2.4-3.1,3.5c0.8,0.3,1.9-0.3,2.3-0.7l0,0
					c-0.3,0.5-0.6,1.2-0.2,1.7c0.6,0.8,1.6-0.3,2-0.8c0.7-0.7,1.1-1.5,0.4-2.2c-0.1-0.1-0.5-0.3-0.6-0.1c0,0.1,0,0.2,0,0.3
					c0,0.1,0,0.3-0.1,0.5c-0.2,0.3-0.6,0.3-0.9,0c-0.3-0.2-0.3-0.7,0-1c0.5-0.7,1.5-0.3,2.1,0.1c1,0.7,1.1,2,0,3.2
					c-0.8,0.9-2,1.2-2.8,0.5c-0.2-0.2-0.4-0.5-0.5-0.8l-0.8,0.2c-0.1,0.3-0.1,0.5-0.2,0.8c0.4,0.2,0.6,0.4,0.8,0.6
					c0.6,0.8,0.3,2.1-0.8,2.8c-1.3,0.9-2.7,0.7-3.3-0.4c-0.3-0.6-0.6-1.6,0.2-2.1c0.3-0.2,0.7-0.2,1,0.2c0.2,0.3,0.2,0.7-0.2,0.9
					c-0.2,0.1-0.4,0.1-0.5,0.1c-0.1,0-0.3-0.1-0.3,0c-0.2,0.1-0.1,0.5,0,0.6c0.5,0.9,1.6,0.3,2.3-0.2c0.6-0.4,1.7-1.3,1-1.9
					c-0.5-0.4-1.2-0.2-1.7,0.1l0,0c0.4-0.4,1.1-1.4,0.9-2.3c-1.1,1-2.4,1.9-3.7,2.7L88.9,89.8z"/>
			</g>
			<g>
				<path class="st1" d="M88.1,88.3l0.5,1c-2.5,1.4-5.4,1.9-8.2,1.4l0.2-1.1C83.1,90.1,85.7,89.6,88.1,88.3z"/>
				<path d="M80.3,91.3c2.9,0.5,5.9,0,8.6-1.5l0.2,0.3c-1.3,0.7-2.7,1.2-4.2,1.5c0.3,0.3,0.7,0.5,1.1,0.6c0.4,0.1,0.9,0.1,1.2,0l0,0
					c-0.5,0.2-1.2,0.7-1.1,1.4c0.1,1,1.6,0.5,2.3,0.3c0.9-0.3,1.8-0.8,1.4-1.8c-0.1-0.2-0.3-0.5-0.5-0.4c-0.1,0-0.1,0.2-0.1,0.3
					c-0.1,0.1-0.1,0.3-0.4,0.4c-0.4,0.2-0.7,0-0.8-0.4c-0.1-0.3,0.1-0.7,0.4-0.9c0.8-0.3,1.5,0.4,1.8,1c0.6,1.1,0.1,2.3-1.5,2.9
					c-1.3,0.5-2.5,0-2.8-1c-0.1-0.3-0.1-0.6,0-1L85,92.8c-0.2,0.2-0.4,0.4-0.6,0.5c0.2,0.3,0.3,0.7,0.3,0.9c0,0.5-0.2,1-0.6,1.3
					c-0.4,0.3-1,0.5-1.7,0.5c-0.8,0-1.5-0.3-2-0.7c-0.4-0.4-0.6-1-0.5-1.6c0.1-0.7,0.6-1.7,1.4-1.6c0.4,0,0.7,0.3,0.7,0.7
					c0,0.3-0.3,0.6-0.7,0.6c-0.2,0-0.4-0.1-0.5-0.3c-0.1-0.1-0.2-0.2-0.2-0.2c-0.2,0-0.4,0.4-0.4,0.5c-0.2,1,1.1,1.3,2,1.2
					c0.8,0,2.2-0.1,2-1C84,93.3,83.3,93,82.7,93l0,0c0.6-0.1,1.7-0.6,2-1.4c-1.5,0.3-3,0.2-4.4,0L80.3,91.3z"/>
			</g>
			<g>
				<path class="st1" d="M80.6,89.6l-0.2,1.1c-2.8-0.5-5.4-2-7.6-4l0.8-0.8C75.7,87.8,78.1,89.2,80.6,89.6z"/>
				<path d="M72.5,87.1c2.3,2.1,5,3.6,7.9,4.1l-0.1,0.3c-1.5-0.3-2.9-0.8-4.2-1.5c0,0.9,0.9,1.6,1.4,1.9l0,0
					c-0.6-0.1-1.4-0.2-1.7,0.4c-0.3,0.4,0,0.8,0.3,1.1c0.4,0.3,0.9,0.4,1.3,0.6c0.5,0.1,1,0.3,1.4,0.2c0.4-0.1,0.7-0.3,0.9-0.8
					c0.1-0.2,0.1-0.6-0.2-0.6c-0.1,0-0.2,0.1-0.3,0.1c-0.1,0.1-0.3,0.1-0.5,0.1c-0.4-0.1-0.5-0.5-0.4-0.8c0.1-0.4,0.5-0.5,0.9-0.4
					c0.8,0.2,0.9,1.3,0.8,1.9c-0.2,1.2-1.5,1.9-3.1,1.3c-1.3-0.4-1.9-1.5-1.5-2.5c0.1-0.3,0.3-0.5,0.6-0.8c-0.2-0.2-0.3-0.5-0.4-0.7
					l-0.8,0c0,0.4-0.2,0.7-0.3,0.9c-0.3,0.4-0.8,0.7-1.3,0.7c-0.5,0-1.1-0.2-1.6-0.5c-1.3-1-1.5-2.3-0.7-3.2c0.5-0.5,1.4-1.1,2-0.5
					c0.3,0.2,0.4,0.7,0.2,1c-0.2,0.3-0.6,0.4-0.9,0.1c-0.2-0.1-0.2-0.3-0.2-0.5c0-0.1,0-0.3-0.1-0.3c-0.2-0.2-0.5,0.1-0.6,0.2
					c-0.7,0.8,0.2,1.6,0.9,2.1c0.6,0.4,1.8,1.2,2.2,0.4c0.3-0.6-0.2-1.2-0.6-1.6l0,0c0.6,0.3,1.7,0.6,2.4,0.1
					c-1.3-0.7-2.6-1.6-3.7-2.7L72.5,87.1z"/>
			</g>
			<g>
				<path class="st1" d="M73.6,85.9l-0.8,0.8c-2.2-2-4-4.6-5.5-7.3l1-0.5C69.7,81.5,71.5,84,73.6,85.9z"/>
				<path d="M66.9,79.7c1.5,2.8,3.3,5.4,5.6,7.5l-0.2,0.3c-1.1-1-2.2-2.2-3.1-3.4c-0.3,0.8,0.1,1.9,0.4,2.4l0,0
					c-0.4-0.4-1.1-0.8-1.7-0.4c-0.8,0.5,0.1,1.6,0.6,2.1c0.6,0.7,1.4,1.3,2.1,0.6c0.1-0.1,0.4-0.4,0.2-0.6c-0.1-0.1-0.2,0-0.3,0
					c-0.1,0-0.3,0-0.5-0.2c-0.3-0.3-0.2-0.7,0-0.9c0.3-0.2,0.7-0.2,1,0.1c0.6,0.6,0.1,1.6-0.4,2.1c-0.8,0.9-2.2,0.8-3.2-0.4
					c-0.8-0.9-0.9-2.1-0.1-2.9c0.2-0.2,0.5-0.3,0.9-0.4c0-0.3-0.1-0.6-0.1-0.8l-0.8-0.3c-0.2,0.3-0.4,0.6-0.7,0.7
					c-0.9,0.5-2,0.1-2.7-0.9c-0.8-1.3-0.5-2.6,0.6-3.1c0.6-0.3,1.6-0.6,2.1,0.2c0.2,0.3,0.1,0.8-0.2,1c-0.3,0.2-0.7,0.1-0.9-0.2
					c-0.1-0.2-0.1-0.4-0.1-0.5c0-0.1,0.1-0.3,0-0.3c-0.1-0.2-0.5-0.1-0.6,0c-0.9,0.5-0.4,1.5,0.1,2.2c0.4,0.6,1.1,1.7,1.8,1.1
					c0.5-0.4,0.3-1.2,0.1-1.7l0,0c0.4,0.5,1.3,1.2,2.2,1.1c-0.9-1.2-1.7-2.6-2.5-4L66.9,79.7z"/>
			</g>
			<g>
				<path class="st1" d="M68.3,78.9l-1,0.5c-1.5-2.7-2.6-5.7-3.4-8.7l1.1-0.3C65.8,73.3,66.9,76.2,68.3,78.9z"/>
				<path d="M63.4,70.8c0.8,3.1,2,6.1,3.5,8.9l-0.3,0.2c-0.7-1.4-1.4-2.8-2-4.3c-0.5,0.7-0.4,1.9-0.2,2.4l0,0
					c-0.3-0.5-0.9-1.1-1.5-0.9c-0.9,0.3-0.3,1.5-0.1,2.2c0.4,0.8,0.9,1.6,1.8,1.2c0.2-0.1,0.5-0.3,0.4-0.5c0-0.1-0.2-0.1-0.3-0.1
					c-0.1,0-0.3-0.1-0.4-0.3c-0.2-0.4,0-0.7,0.3-0.8c0.3-0.2,0.7,0,0.9,0.4c0.4,0.8-0.4,1.5-1,1.8c-1.1,0.6-2.3,0.1-2.9-1.3
					c-0.5-1.1-0.2-2.2,0.7-2.7c0.3-0.1,0.6-0.2,1-0.2l0.1-0.8c-0.2-0.2-0.4-0.3-0.7-0.5c-0.3,0.3-0.6,0.4-0.9,0.5
					c-1,0.3-2-0.4-2.4-1.5c-0.5-1.4,0.1-2.6,1.3-2.9c0.7-0.2,1.7-0.2,2,0.7c0.1,0.4,0,0.8-0.4,0.9c-0.3,0.1-0.7,0-0.8-0.4
					c-0.1-0.2,0-0.4,0.1-0.5c0.1-0.1,0.1-0.2,0.1-0.3c-0.1-0.2-0.5-0.2-0.6-0.1c-1,0.3-0.7,1.4-0.5,2.2c0.2,0.7,0.6,1.9,1.5,1.5
					c0.6-0.3,0.6-1.1,0.5-1.6l0,0c0.3,0.5,1,1.5,1.8,1.7c-0.6-1.5-1.1-3-1.5-4.5L63.4,70.8z"/>
			</g>
			<g>
				<path class="st1" d="M65,70.4l-1.1,0.3c-0.8-3-1.4-6.2-1.6-9.3l1.1-0.1C63.7,64.3,64.2,67.4,65,70.4z"/>
				<path d="M61.8,61.4c0.3,3.2,0.8,6.4,1.6,9.4l-0.3,0.1c-0.4-1.5-0.8-3.1-1-4.6c-0.7,0.6-0.7,1.8-0.7,2.4l0,0
					c-0.2-0.5-0.6-1.2-1.3-1.2c-1,0.1-0.6,1.4-0.5,2.1c0.2,0.9,0.5,1.8,1.5,1.6c0.2,0,0.5-0.2,0.5-0.4c0-0.1-0.1-0.1-0.3-0.2
					c-0.1-0.1-0.3-0.2-0.3-0.4c-0.1-0.4,0.2-0.7,0.5-0.7c0.4-0.1,0.7,0.2,0.8,0.5c0.2,0.9-0.7,1.4-1.4,1.6c-1.2,0.3-2.2-0.4-2.6-1.8
					c-0.2-1.1,0.2-2.2,1.3-2.5c0.3-0.1,0.6-0.1,1,0l0.3-0.8l-0.6-0.6c-0.3,0.2-0.6,0.3-0.9,0.3c-1.1,0.1-1.9-0.8-2-1.9
					c-0.2-1.5,0.6-2.5,1.8-2.6c0.7-0.1,1.7,0.1,1.8,1c0,0.4-0.2,0.7-0.6,0.8c-0.3,0-0.7-0.1-0.7-0.5c0-0.2,0.1-0.4,0.1-0.5
					c0.1-0.1,0.2-0.2,0.2-0.3c0-0.2-0.4-0.3-0.6-0.2c-1,0.1-1,1.2-0.9,2.1c0.1,0.7,0.2,2,1.2,1.8c0.6-0.2,0.8-0.9,0.8-1.5l0,0
					c0.2,0.6,0.7,1.7,1.5,2c-0.3-1.6-0.5-3.1-0.6-4.7L61.8,61.4z"/>
			</g>
			<g>
				<path class="st1" d="M63.4,61.2l-1.1,0.1c-0.3-3.2-0.3-6.4,0-9.5l1.1,0.1C63.2,55,63.2,58.1,63.4,61.2z"/>
				<path d="M61.8,51.7c-0.3,3.2-0.3,6.4,0,9.6l-0.3,0c-0.1-1.6-0.2-3.2-0.2-4.8c-0.7,0.4-1,1.6-1.1,2.2l0,0c-0.1-0.6-0.4-1.3-1-1.4
					c-1-0.1-0.9,1.3-0.9,2c0,0.9,0.2,1.8,1.2,1.8c0.2,0,0.6-0.1,0.5-0.3c0-0.1-0.1-0.1-0.2-0.2c-0.1-0.1-0.2-0.2-0.2-0.5
					c0-0.4,0.3-0.6,0.6-0.6c0.4,0,0.7,0.3,0.7,0.7c0.1,0.9-0.9,1.2-1.6,1.3c-1.2,0.1-2.1-0.8-2.2-2.3c-0.1-1.2,0.6-2.1,1.7-2.2
					c0.3,0,0.6,0,1,0.2l0.4-0.7l-0.4-0.7c-0.4,0.2-0.7,0.2-1,0.2c-1-0.1-1.7-1.1-1.7-2.2c0.1-1.5,1-2.4,2.2-2.3
					c0.7,0.1,1.7,0.4,1.6,1.3c0,0.4-0.3,0.7-0.7,0.7c-0.4,0-0.6-0.3-0.6-0.7c0-0.2,0.1-0.4,0.2-0.5c0.1-0.1,0.2-0.2,0.2-0.2
					c0-0.2-0.4-0.3-0.5-0.3c-1-0.1-1.2,1.1-1.2,1.9c0,0.7-0.1,2,0.9,1.9c0.6-0.1,0.9-0.8,1-1.4l0,0c0.1,0.6,0.4,1.7,1.1,2.2
					c0-1.6,0.1-3.2,0.2-4.8L61.8,51.7z"/>
			</g>
			<g>
				<path class="st1" d="M63.4,51.9l-1.1-0.1c0.3-3.2,0.8-6.3,1.6-9.3l1.1,0.3C64.2,45.7,63.7,48.8,63.4,51.9z"/>
				<path d="M63.4,42.3c-0.8,3.1-1.4,6.3-1.6,9.4l-0.3,0c0.1-1.6,0.3-3.2,0.6-4.7c-0.8,0.3-1.3,1.4-1.5,2l0,0c0-0.6-0.2-1.4-0.8-1.5
					c-0.9-0.2-1.1,1.1-1.2,1.8c-0.1,0.9-0.1,1.8,0.9,2c0.2,0,0.6,0,0.6-0.2c0-0.1-0.1-0.2-0.2-0.3c-0.1-0.1-0.2-0.3-0.1-0.5
					c0-0.4,0.4-0.6,0.7-0.5c0.4,0,0.6,0.4,0.6,0.8c-0.1,0.9-1.1,1.1-1.8,1c-1.2-0.1-2-1.1-1.8-2.6c0.2-1.2,1-2,2-1.9
					c0.3,0,0.6,0.1,0.9,0.3l0.6-0.6l-0.3-0.8c-0.4,0.1-0.7,0.1-1,0c-1-0.3-1.5-1.4-1.3-2.5c0.3-1.4,1.4-2.2,2.6-1.8
					c0.7,0.2,1.6,0.7,1.4,1.6c-0.1,0.4-0.4,0.6-0.8,0.6c-0.3-0.1-0.6-0.4-0.5-0.7c0.1-0.2,0.2-0.3,0.3-0.4c0.1-0.1,0.2-0.1,0.3-0.2
					c0.1-0.2-0.3-0.4-0.5-0.4c-1-0.3-1.3,0.8-1.5,1.6c-0.1,0.7-0.5,2,0.5,2.1c0.6,0.1,1.1-0.6,1.3-1.2l0,0c0,0.6,0.1,1.8,0.7,2.4
					c0.3-1.6,0.6-3.1,1-4.6L63.4,42.3z"/>
			</g>
			<g>
				<path class="st1" d="M65,42.7l-1.1-0.3c0.8-3,1.9-6,3.4-8.7l1,0.5C66.9,36.9,65.8,39.8,65,42.7z"/>
				<path d="M66.9,33.4c-1.5,2.8-2.6,5.8-3.5,8.9l-0.3-0.1c0.4-1.5,0.9-3,1.5-4.5c-0.8,0.1-1.5,1.1-1.8,1.6l0,0
					c0.1-0.6,0.1-1.4-0.5-1.6c-0.9-0.4-1.3,0.9-1.5,1.6c-0.3,0.9-0.5,1.8,0.5,2.1c0.2,0.1,0.5,0.1,0.6-0.1c0-0.1-0.1-0.2-0.1-0.3
					c-0.1-0.1-0.1-0.3-0.1-0.5c0.1-0.4,0.5-0.5,0.8-0.4c0.4,0.1,0.5,0.5,0.4,0.9c-0.2,0.9-1.3,0.8-2,0.7c-1.2-0.3-1.7-1.5-1.3-2.9
					c0.4-1.1,1.3-1.8,2.4-1.5c0.3,0.1,0.6,0.2,0.9,0.5c0.2-0.2,0.4-0.3,0.7-0.5l-0.1-0.8c-0.4,0-0.7-0.1-1-0.2
					c-1-0.5-1.2-1.6-0.7-2.7c0.6-1.4,1.8-1.9,2.9-1.3c0.6,0.3,1.4,1.1,1,1.9c-0.2,0.3-0.6,0.5-0.9,0.4c-0.3-0.1-0.5-0.5-0.3-0.8
					c0.1-0.2,0.2-0.3,0.4-0.3c0.1,0,0.3-0.1,0.3-0.1c0.1-0.2-0.2-0.4-0.4-0.5c-0.9-0.5-1.5,0.5-1.8,1.3c-0.3,0.6-0.9,1.8,0.1,2.1
					c0.6,0.2,1.2-0.4,1.5-0.9l0,0c-0.1,0.6-0.3,1.8,0.2,2.5c0.6-1.5,1.2-2.9,2-4.3L66.9,33.4z"/>
			</g>
			<g>
				<path class="st1" d="M68.3,34.2l-1-0.5c1.5-2.7,3.3-5.3,5.5-7.3l0.8,0.8C71.5,29.1,69.7,31.6,68.3,34.2z"/>
				<path d="M72.5,26c-2.3,2.1-4.1,4.7-5.6,7.5l-0.3-0.2c0.7-1.4,1.6-2.7,2.5-4c-0.8-0.1-1.8,0.7-2.2,1.1l0,0
					c0.2-0.5,0.4-1.3-0.1-1.7c-0.8-0.6-1.5,0.6-1.9,1.2c-0.5,0.8-0.9,1.6,0,2.2c0.1,0.1,0.5,0.2,0.6,0c0-0.1,0-0.2-0.1-0.3
					c0-0.1,0-0.3,0.1-0.5c0.2-0.3,0.6-0.4,0.9-0.2c0.3,0.2,0.4,0.6,0.2,0.9c-0.4,0.8-1.5,0.5-2.1,0.2c-1.1-0.6-1.3-1.8-0.5-3.1
					c0.7-1,1.8-1.5,2.7-0.9c0.2,0.1,0.5,0.4,0.7,0.7l0.8-0.3c0-0.3,0.1-0.5,0.1-0.8c-0.4-0.1-0.7-0.3-0.9-0.4
					c-0.8-0.7-0.7-1.9,0.1-2.9c1.1-1.2,2.4-1.3,3.2-0.3c0.5,0.5,1,1.5,0.3,2.1c-0.3,0.3-0.7,0.3-1,0.1c-0.3-0.2-0.3-0.6,0-0.9
					c0.2-0.2,0.3-0.2,0.5-0.2c0.1,0,0.3,0,0.3,0c0.2-0.2-0.1-0.5-0.2-0.6c-0.7-0.8-1.6,0-2.2,0.7c-0.5,0.5-1.4,1.6-0.6,2.1
					c0.5,0.3,1.2-0.1,1.7-0.4l0,0c-0.3,0.5-0.8,1.6-0.4,2.4c0.9-1.2,2-2.4,3.1-3.5L72.5,26z"/>
			</g>
			<g>
				<path class="st1" d="M73.6,27.2l-0.8-0.8c2.2-2,4.8-3.5,7.6-4l0.2,1.1C78.1,23.9,75.7,25.3,73.6,27.2z"/>
				<path d="M80.3,21.8c-2.9,0.5-5.6,2.1-7.9,4.1l-0.2-0.3c1.1-1,2.4-1.9,3.7-2.7c-0.7-0.5-1.9-0.1-2.4,0.1l0,0
					c0.4-0.4,0.9-1,0.6-1.6c-0.4-0.9-1.6-0.1-2.2,0.4c-0.8,0.6-1.5,1.2-0.8,2.1c0.1,0.1,0.4,0.4,0.6,0.2c0.1-0.1,0.1-0.2,0.1-0.3
					c0-0.1,0.1-0.3,0.2-0.5c0.3-0.3,0.7-0.2,0.9,0.1c0.2,0.3,0.1,0.7-0.1,1c-0.7,0.5-1.6,0-2-0.5c-0.8-0.9-0.6-2.2,0.7-3.2
					c0.5-0.4,1.1-0.6,1.6-0.5c0.5,0,1,0.3,1.3,0.7c0.2,0.2,0.3,0.5,0.3,0.9l0.9,0c0.1-0.2,0.3-0.5,0.4-0.7c-0.3-0.3-0.5-0.5-0.6-0.8
					c-0.4-1,0.3-2.1,1.5-2.5c1.6-0.5,2.9,0.1,3.1,1.3c0.1,0.7,0,1.8-0.8,2c-0.3,0.1-0.7-0.1-0.9-0.4c-0.1-0.3,0-0.7,0.4-0.8
					c0.2-0.1,0.4,0,0.5,0.1c0.1,0.1,0.2,0.2,0.3,0.1c0.2,0,0.2-0.4,0.2-0.6c-0.1-0.5-0.4-0.7-0.9-0.8c-0.4,0-1,0.1-1.4,0.2
					c-0.3,0.1-0.9,0.3-1.2,0.6c-0.4,0.3-0.6,0.6-0.3,1c0.3,0.5,1.1,0.5,1.7,0.4l0,0c-0.5,0.3-1.4,1.1-1.5,1.9
					c1.3-0.7,2.8-1.2,4.2-1.5L80.3,21.8z"/>
			</g>
			<g>
				<path class="st1" d="M80.6,23.5l-0.2-1.1c2.8-0.5,5.7,0,8.2,1.4l-0.5,1C85.7,23.5,83.1,23,80.6,23.5z"/>
				<path d="M88.9,23.3c-2.6-1.4-5.7-2-8.6-1.5l-0.1-0.3c1.5-0.3,3-0.3,4.4,0c-0.3-0.8-1.4-1.2-2-1.4l0,0c0.6-0.1,1.3-0.3,1.5-0.9
					c0.2-1-1.3-1-2.1-1c-1,0-2,0.2-1.9,1.2c0,0.2,0.1,0.5,0.4,0.5c0.1,0,0.1-0.1,0.2-0.2c0.1-0.1,0.2-0.2,0.5-0.3
					c0.4,0,0.6,0.3,0.7,0.6c0,0.4-0.3,0.6-0.7,0.7c-0.9,0.1-1.3-0.9-1.4-1.6c-0.1-0.6,0.1-1.2,0.5-1.6c0.4-0.4,1.1-0.7,2-0.7
					c0.7,0,1.3,0.2,1.7,0.5c0.4,0.4,0.6,0.8,0.6,1.3c0,0.3-0.1,0.6-0.3,0.9c0.2,0.2,0.4,0.3,0.7,0.5l0.8-0.3c-0.1-0.4-0.1-0.7,0-1
					c0.3-1,1.6-1.4,2.8-1c1.6,0.6,2.1,1.9,1.5,2.9c-0.3,0.6-1.1,1.4-1.8,1c-0.3-0.2-0.5-0.5-0.4-0.9c0.1-0.3,0.5-0.5,0.8-0.4
					c0.2,0.1,0.3,0.2,0.4,0.4c0.1,0.1,0.1,0.3,0.2,0.3c0.2,0.1,0.4-0.2,0.5-0.4c0.5-0.9-0.6-1.5-1.5-1.8c-0.7-0.3-2.1-0.7-2.2,0.3
					c-0.1,0.6,0.6,1.1,1.1,1.4l0,0c-0.6-0.1-1.8-0.1-2.3,0.6c1.5,0.3,2.9,0.8,4.2,1.5L88.9,23.3z"/>
			</g>
			<g>
				<path class="st1" d="M88.1,24.8l0.5-1c2.6,1.4,4.8,3.5,6.6,6l-0.9,0.7C92.5,28.1,90.4,26.1,88.1,24.8z"/>
				<path d="M95.6,29.4c-1.9-2.5-4.1-4.7-6.8-6.1L89,23c1.3,0.7,2.6,1.6,3.7,2.7c0.2-0.8-0.5-1.8-0.9-2.3l0,0
					c0.5,0.3,1.3,0.5,1.7,0.1c0.7-0.7-0.4-1.6-1.1-2c-0.8-0.6-1.7-1-2.2-0.1c-0.1,0.1-0.2,0.5,0,0.6c0.1,0,0.2,0,0.3,0
					c0.1,0,0.3,0,0.5,0.1c0.3,0.2,0.4,0.6,0.2,0.9c-0.2,0.3-0.6,0.4-0.9,0.2c-0.7-0.5-0.5-1.5-0.2-2.1c0.6-1.1,1.9-1.3,3.3-0.4
					c1.1,0.7,1.4,2,0.8,2.8c-0.2,0.2-0.4,0.4-0.8,0.6c0.1,0.3,0.2,0.5,0.2,0.8l0.8,0.2c0.1-0.4,0.3-0.6,0.5-0.8
					c0.8-0.7,2-0.5,2.8,0.5c1,1.2,1,2.5,0,3.2c-0.6,0.4-1.6,0.8-2.1,0.1c-0.2-0.3-0.2-0.7,0-1c0.3-0.2,0.7-0.3,0.9,0.1
					c0.1,0.2,0.2,0.3,0.1,0.5c0,0.1,0,0.3,0,0.3c0.1,0.2,0.5,0,0.6-0.1c0.8-0.6,0.2-1.6-0.4-2.2c-0.5-0.6-1.4-1.6-2-0.8
					c-0.4,0.5-0.1,1.2,0.2,1.7l0,0c-0.5-0.4-1.5-1-2.3-0.7c1.1,1,2.2,2.2,3.1,3.5L95.6,29.4z"/>
			</g>
			<g>
				<path class="st1" d="M94.3,30.4l0.9-0.7c1.8,2.5,3.3,5.3,4.4,8.2l-1,0.4C97.5,35.5,96,32.8,94.3,30.4z"/>
				<path d="M100.1,37.8c-1.1-3-2.6-5.8-4.5-8.3l0.3-0.2c0.9,1.2,1.7,2.6,2.5,4c0.5-0.7,0.1-1.9-0.1-2.5l0,0c0.4,0.5,1,0.9,1.6,0.7
					c0.9-0.4,0.2-1.6-0.2-2.2c-0.5-0.8-1.1-1.5-2-1c-0.1,0.1-0.4,0.4-0.3,0.6c0,0.1,0.2,0.1,0.3,0.1c0.1,0,0.3,0.1,0.4,0.3
					c0.2,0.3,0.1,0.7-0.2,0.9c-0.3,0.2-0.7,0.1-0.9-0.2c-0.5-0.7,0.2-1.6,0.7-2c1-0.7,2.3-0.4,3.1,0.9c0.6,1,0.5,2.2-0.3,2.8
					c-0.2,0.2-0.5,0.3-0.9,0.3l0,0.8l0.7,0.4c0.3-0.3,0.5-0.5,0.8-0.6c1-0.4,2,0.2,2.5,1.2c0.6,1.4,0.2,2.6-0.9,3
					c-0.7,0.3-1.7,0.4-2-0.5c-0.1-0.3,0-0.8,0.3-0.9c0.3-0.1,0.7-0.1,0.8,0.3c0.1,0.2,0.1,0.4,0,0.5c-0.1,0.1-0.1,0.2-0.1,0.3
					c0.1,0.2,0.5,0.1,0.6,0.1c0.9-0.4,0.6-1.5,0.2-2.2c-0.3-0.6-0.8-1.9-1.7-1.3c-0.5,0.3-0.5,1.1-0.3,1.7l0,0
					c-0.4-0.5-1.1-1.4-2-1.4c0.7,1.4,1.4,2.8,2,4.3L100.1,37.8z"/>
			</g>
			<g>
				<path class="st1" d="M98.6,38.4l1-0.4c1.1,2.9,2,6,2.5,9.1l-1.1,0.2C100.5,44.2,99.7,41.2,98.6,38.4z"/>
				<path d="M102.6,47c-0.5-3.2-1.4-6.3-2.5-9.2l0.3-0.1c0.6,1.5,1.1,3,1.5,4.5c0.6-0.6,0.6-1.8,0.5-2.4l0,0c0.2,0.5,0.7,1.1,1.4,1
					c1-0.2,0.5-1.5,0.3-2.1c-0.3-0.9-0.7-1.7-1.6-1.4c-0.2,0-0.5,0.2-0.4,0.5c0,0.1,0.1,0.1,0.3,0.2c0.1,0.1,0.3,0.2,0.3,0.4
					c0.1,0.4-0.1,0.7-0.4,0.8c-0.3,0.1-0.7-0.1-0.8-0.5c-0.3-0.8,0.6-1.5,1.2-1.7c1.1-0.5,2.3,0.2,2.7,1.6c0.4,1.1,0,2.2-1,2.6
					c-0.3,0.1-0.6,0.1-1,0.1l-0.2,0.8c0.2,0.2,0.4,0.4,0.6,0.6c0.3-0.2,0.6-0.4,0.9-0.4c1-0.2,1.9,0.6,2.2,1.7
					c0.3,1.4-0.3,2.6-1.5,2.7c-0.7,0.1-1.8,0-1.9-0.9c-0.1-0.4,0.1-0.8,0.5-0.8c0.3-0.1,0.7,0.1,0.8,0.5c0,0.2,0,0.4-0.1,0.5
					c-0.1,0.1-0.2,0.2-0.1,0.3c0,0.2,0.4,0.2,0.6,0.2c1-0.2,0.9-1.3,0.7-2.1c-0.1-0.7-0.4-2-1.3-1.6c-0.6,0.2-0.7,1-0.6,1.6l0,0
					c-0.3-0.6-0.8-1.6-1.7-1.8c0.4,1.5,0.8,3.1,1,4.6L102.6,47z"/>
			</g>
			<g>
				<path class="st1" d="M101,47.3l1.1-0.2c0.6,3.1,0.8,6.3,0.8,9.5h-1.1C101.8,53.4,101.5,50.3,101,47.3z"/>
				<path d="M103.5,56.6c0-3.2-0.3-6.4-0.8-9.6l0.3-0.1c0.3,1.6,0.5,3.1,0.6,4.7c0.7-0.5,0.9-1.7,0.9-2.3l0,0
					c0.1,0.6,0.5,1.3,1.1,1.3c1,0,0.8-1.4,0.7-2c-0.1-0.9-0.3-1.8-1.3-1.7c-0.2,0-0.5,0.1-0.5,0.4c0,0.1,0.1,0.1,0.2,0.2
					c0.1,0.1,0.2,0.2,0.3,0.4c0.1,0.4-0.2,0.6-0.6,0.7c-0.4,0-0.7-0.2-0.7-0.6c-0.1-0.9,0.8-1.3,1.5-1.4c1.2-0.2,2.2,0.6,2.4,2.1
					c0.1,1.2-0.4,2.2-1.5,2.4c-0.3,0.1-0.6,0-1-0.1l-0.4,0.8l0.5,0.7c0.4-0.2,0.7-0.3,1-0.3c1.1,0,1.8,0.9,1.9,2.1
					c0.1,1.5-0.8,2.4-2,2.4c-0.7,0-1.7-0.3-1.8-1.2c0-0.4,0.3-0.7,0.6-0.7c0.4,0,0.7,0.2,0.7,0.6c0,0.2-0.1,0.4-0.2,0.5
					c-0.1,0.1-0.2,0.2-0.2,0.3c0,0.2,0.4,0.3,0.6,0.3c1,0,1.1-1.2,1-2c0-0.7-0.1-2-1-1.8c-0.6,0.1-0.9,0.9-0.9,1.4l0,0
					c-0.1-0.6-0.5-1.7-1.3-2.1c0.1,1.6,0.2,3.2,0.2,4.8H103.5z"/>
			</g>
		</g>
	</g>
</g>
</svg>
