<?xml version="1.0" encoding="utf-8"?>
<!-- Generator: Adobe Illustrator 24.1.2, SVG Export Plug-In . SVG Version: 6.00 Build 0)  -->
<svg version="1.1" id="Слой_2" xmlns="http://www.w3.org/2000/svg" xmlns:xlink="http://www.w3.org/1999/xlink" x="0px" y="0px"
	 viewBox="0 0 108 108" style="enable-background:new 0 0 108 108;" xml:space="preserve">
<style type="text/css">
	.st0{fill:#BBDEF9;}
	.st1{fill:#232323;}
	.st2{fill:#FFFFFF;}
	.st3{fill:none;}
</style>
<g>
	<polygon class="st0" points="96,4.7 96,101.8 63.4,85 63.4,21.6 	"/>
	<g>
		<path class="st1" d="M94.8,4.7c0,28.3,0,56.5,0,84.8c0,4.1,0,8.2,0,12.3c0.6-0.4,1.3-0.7,1.9-1.1c-8.7-4.5-17.4-9-26.2-13.5
			c-1.6-0.8-3.7-2.5-5.4-2.8c-0.3-0.1-0.8-0.4-1-0.5c1.3,0.9,0.4,1.5,0.6,0.5c0.7-3.2,0-7.2,0-10.4c0-12.4,0-24.8,0-37.2
			c0-4.3,0-8.7,0-13c0-0.6-0.1-1.5,0-2.1c-0.4,1.9-0.9,0.8,0.1,0.7c0.8-0.1,1.9-1,2.5-1.3c9.8-5.1,19.6-10.1,29.4-15.2
			c1.4-0.7,0.2-2.9-1.3-2.2C84.5,9.3,73.6,14.9,62.7,20.5c-0.4,0.2-0.6,0.7-0.6,1.1c0,21.1,0,42.3,0,63.4c0,0.4,0.2,0.9,0.6,1.1
			c10.9,5.6,21.8,11.2,32.6,16.8c0.8,0.4,1.9-0.1,1.9-1.1c0-28.3,0-56.5,0-84.8c0-4.1,0-8.2,0-12.3C97.3,3.1,94.8,3.1,94.8,4.7z"/>
	</g>
</g>
<g>
	<g>
		<path class="st2" d="M84.5,18c1.1,1.1,2.2,2.2,3.3,3.3c1.1,1.1,2.9-0.6,1.8-1.8c-1.1-1.1-2.2-2.2-3.3-3.3
			C85.1,15.1,83.4,16.8,84.5,18L84.5,18z"/>
	</g>
</g>
<g>
	<g>
		<path class="st2" d="M80,19.6c2,2,4,4,6,6c1.1,1.1,2.9-0.6,1.8-1.8c-2-2-4-4-6-6C80.6,16.7,78.8,18.5,80,19.6L80,19.6z"/>
	</g>
</g>
<g>
	<path class="st1" d="M93.6,39.8c0-0.4,0.1-0.7,0.3-0.9c0.1-0.1,0.4-0.2,0.8-0.2c0.4,0,0.8,0,1.3,0.1v-2.2c-0.5-0.1-1-0.2-1.5-0.3
		c-2.7-0.4-5.9-0.7-9.8-0.7c-3.2,0-5.6,0.2-7.1,0.5c-2.3,0.6-4.1,1.4-5.6,2.5c-1.9,1.5-3.3,3.3-4.3,5.2c-1,2-1.4,4.1-1.4,6.5
		c0,3,0.6,5.5,1.9,7.6c1.3,2.1,3.1,3.8,5.5,5.1c1.7,0.9,4,1.4,6.9,1.4l4.5-0.2l1.3-0.1l1.8,0l0.5,0l1.8,0l2.4,0c0.1,0,0.8,0,2.2,0.1
		c0.2,0,0.5,0,0.8,0v-2.2c-0.9-0.2-1.5-0.5-1.8-0.8c-0.3-0.3-0.4-0.7-0.5-1.4c0-0.2-0.1-2.4-0.2-6.7l0-2.4l0-2.9l0.1-7.5V39.8z
		 M87.6,43.1v3.2c0,1.1,0,2,0,2.8l0,2.1l-0.1,3.5l0.1,2.1c0,2-0.4,3.4-1.1,4.1c-1.1,1-2.6,1.5-4.5,1.5c-1.4,0-2.5-0.1-3.2-0.4
		c-1.4-0.5-2.6-1.3-3.4-2.2c-0.8-0.9-1.5-2.2-1.9-3.9c-0.4-1.7-0.7-3.4-0.7-5.2c0-2.9,0.5-5.3,1.4-7.2c0.9-1.9,2.2-3.3,3.9-4.2
		c1.6-0.9,3.5-1.4,5.6-1.4c1.5,0,2.8,0.2,3.9,0.6c0,0.5,0,0.8,0,1L87.6,43.1z"/>
</g>
<g>
	<path class="st1" d="M28.6,62.8c0.2-0.1,0.7-0.1,1.4-0.3c1.4-0.2,2.2-0.5,2.7-0.9c0.3-0.2,0.4-0.7,0.5-1.4c0-0.2,0.1-2.4,0.2-6.7
		l0-2.4l0-2.9l-0.1-7.5v-0.9c0-0.4-0.1-0.7-0.3-0.9c-0.1-0.1-0.4-0.2-0.9-0.2c-0.4,0-0.8,0-1.3,0.1c-0.6,0-1.2,0.1-1.7,0.2
		c-0.1,0-0.2,0-0.4,0.1l0-1.9c0.9-0.3,2.1-0.5,3.7-0.8c2.7-0.4,5.9-0.7,9.8-0.7c3.2,0,5.6,0.2,7.1,0.5c2.3,0.6,4.1,1.4,5.6,2.5
		c1.9,1.5,3.3,3.2,4.3,5.2c1,2,1.4,4.1,1.4,6.5c0,2.9-0.6,5.5-1.9,7.6s-3.1,3.8-5.5,5.1c-1.7,0.9-4,1.4-6.9,1.4l-4.5-0.2l-1.3-0.1
		l-1.8,0l-0.5,0l-1.8,0l-2.4,0c-0.1,0-0.8,0-2.2,0.1c-0.5,0-1.1,0-1.8,0.1c-0.5,0-0.8,0-1.1,0C28.7,64.2,28.6,63.6,28.6,62.8z
		 M39.3,38.4c0,0.5,0,0.8,0,1l0,3.7v3.2c0,1.1,0,2,0,2.8l0,2.1l0.1,3.5l-0.1,2.1c0,2,0.4,3.4,1.1,4.1c1.1,1,2.6,1.5,4.5,1.5
		c1.4,0,2.5-0.1,3.2-0.4c1.4-0.6,2.6-1.3,3.4-2.2c0.8-0.9,1.5-2.2,1.9-3.9c0.4-1.7,0.7-3.4,0.7-5.2c0-2.9-0.5-5.4-1.4-7.2
		c-0.9-1.9-2.2-3.3-3.9-4.2c-1.6-0.9-3.5-1.4-5.6-1.4C41.6,37.8,40.4,38,39.3,38.4z"/>
</g>
<rect x="37.5" y="41.7" class="st3" width="0.3" height="0.3"/>
</svg>
