<?xml version="1.0" encoding="utf-8"?>
<!-- Generator: Adobe Illustrator 24.1.2, SVG Export Plug-In . SVG Version: 6.00 Build 0)  -->
<svg version="1.1" id="Слой_2" xmlns="http://www.w3.org/2000/svg" xmlns:xlink="http://www.w3.org/1999/xlink" x="0px" y="0px"
	 viewBox="0 0 108 108" style="enable-background:new 0 0 108 108;" xml:space="preserve">
<style type="text/css">
	.st0{fill:#BBDEF9;}
	.st1{fill:#232323;}
	.st2{fill:#FFFFFF;}
</style>
<g>
	<polygon class="st0" points="96,4.7 96,101.8 63.4,85 63.4,21.6 	"/>
	<g>
		<path class="st1" d="M94.8,4.7c0,28.3,0,56.5,0,84.8c0,4.1,0,8.2,0,12.3c0.6-0.4,1.3-0.7,1.9-1.1c-8.7-4.5-17.4-9-26.2-13.5
			c-1.6-0.8-3.7-2.5-5.4-2.8c-0.3-0.1-0.8-0.4-1-0.5c1.3,0.9,0.4,1.5,0.6,0.5c0.7-3.2,0-7.2,0-10.4c0-12.4,0-24.8,0-37.2
			c0-4.3,0-8.7,0-13c0-0.6-0.1-1.5,0-2.1c-0.4,1.9-0.9,0.8,0.1,0.7c0.8-0.1,1.9-1,2.5-1.3c9.8-5.1,19.6-10.1,29.4-15.2
			c1.4-0.7,0.2-2.9-1.3-2.2C84.5,9.3,73.6,14.9,62.7,20.5c-0.4,0.2-0.6,0.7-0.6,1.1c0,21.1,0,42.3,0,63.4c0,0.4,0.2,0.9,0.6,1.1
			c10.9,5.6,21.8,11.2,32.6,16.8c0.8,0.4,1.9-0.1,1.9-1.1c0-28.3,0-56.5,0-84.8c0-4.1,0-8.2,0-12.3C97.3,3.1,94.8,3.1,94.8,4.7z"/>
	</g>
</g>
<g>
	<g>
		<path class="st2" d="M84.5,18c1.1,1.1,2.2,2.2,3.3,3.3c1.1,1.1,2.9-0.6,1.8-1.8c-1.1-1.1-2.2-2.2-3.3-3.3
			C85.1,15.1,83.4,16.8,84.5,18L84.5,18z"/>
	</g>
</g>
<g>
	<g>
		<path class="st2" d="M80,19.6c2,2,4,4,6,6c1.1,1.1,2.9-0.6,1.8-1.8c-2-2-4-4-6-6C80.6,16.7,78.8,18.5,80,19.6L80,19.6z"/>
	</g>
</g>
<g>
	<path class="st1" d="M25.7,44.1l0,4.9l0,1.9l0,1.6c-0.1,2.8-0.1,4.2-0.1,4.3c0,0.5-0.2,0.8-0.3,0.9c-0.3,0.3-0.9,0.5-1.7,0.6
		c-0.4,0.1-0.7,0.1-0.9,0.2c0,0.6,0,0.9,0,1.2c0.2,0,0.4,0,0.7,0c0.5,0,0.9,0,1.2,0c0.9-0.1,1.4-0.1,1.5-0.1l1.6,0l1.2,0l0.3,0
		l1.2,0l0.9,0l2.9,0.1c1.4,0,2.5-0.2,3.5-0.5c0.4-0.1,0.7-0.3,1-0.4c1.6-0.8,2.8-1.9,3.6-3.3c0.8-1.4,1.3-3,1.3-4.9
		c0-1.5-0.3-2.9-0.9-4.2c-0.6-1.3-1.6-2.4-2.8-3.4c-0.6-0.5-1.3-0.9-2.2-1.2c-0.5-0.2-0.9-0.3-1.5-0.5c-1-0.2-2.5-0.4-4.6-0.4
		c-2.5,0-4.7,0.1-6.4,0.4c-1,0.2-1.9,0.3-2.4,0.5l0,1.3c0.1,0,0.2,0,0.3,0c0.3-0.1,0.7-0.1,1.1-0.1c0.3-0.1,0.6-0.1,0.9-0.1
		c0.3,0,0.5,0,0.6,0.1c0.1,0.1,0.2,0.3,0.2,0.6V44.1z M29.5,43.2c0-0.1,0-0.3,0-0.6c0.7-0.3,1.5-0.4,2.5-0.4c1.4,0,2.6,0.3,3.7,0.9
		c0.7,0.4,1.3,0.9,1.8,1.6c0.3,0.3,0.5,0.7,0.7,1.2c0.6,1.2,0.9,2.8,0.9,4.7c0,1.2-0.1,2.3-0.4,3.4c-0.3,1.1-0.7,1.9-1.2,2.5
		c0,0,0,0,0,0c-0.5,0.6-1.3,1.1-2.2,1.4c-0.4,0.2-1.1,0.3-2.1,0.3c-1.2,0-2.2-0.3-2.9-1c-0.5-0.5-0.7-1.4-0.7-2.7l0-1.4l0-2.3l0-1.4
		c0-0.5,0-1.1,0-1.8v-2.1L29.5,43.2z"/>
	<path class="st1" d="M45.3,59.3c0,0.1,0,0.2,0,0.3c0.9,0,1.4-0.1,1.5-0.1H47c0.6-0.1,1.2-0.1,1.9-0.1l2.7,0.1H53
		c0.1-0.2,0.1-0.3,0.1-0.4c0-0.2,0-0.3-0.1-0.4c-0.1-0.1-0.4-0.1-0.8-0.2c-0.4,0-0.7-0.1-0.9-0.1c-0.2-0.1-0.3-0.2-0.5-0.3
		c-0.2-0.2-0.2-0.5-0.3-0.7c0-2.6-0.1-4.2-0.1-4.9l0-0.4c0-0.5,0.1-1,0.4-1.5c0.2-0.3,0.3-0.5,0.5-0.5l0.1,0c0.2,0,0.4,0.1,0.6,0.3
		c0.4,0.3,0.9,0.5,1.3,0.5c0.5,0,0.8-0.2,1.1-0.5c0.3-0.4,0.4-0.8,0.4-1.2c0-0.4-0.2-0.8-0.6-1.2c-0.4-0.3-0.8-0.5-1.3-0.5
		c-0.4,0-0.8,0.1-1.1,0.4c-0.4,0.4-0.7,0.6-0.8,0.7c-0.2,0.2-0.5,0.7-0.9,1.3c0-0.7,0-1.1,0-1.2c0-0.2,0-0.5,0-0.8
		c0-0.2,0-0.3,0-0.4c0-0.1,0-0.3-0.1-0.5l-1,0c-0.1,0.1-0.2,0.3-0.4,0.5c-0.3,0.4-0.7,0.8-1.3,1.2s-1.2,0.6-1.9,0.7l0,0.5
		c0,0.2,0.2,0.3,0.3,0.3c0.4,0.1,0.7,0.2,1,0.3c0.1,0.1,0.2,0.2,0.2,0.4c0.1,0.9,0.2,2.5,0.2,4.9c0,1.3,0,2.1-0.1,2.3
		c-0.4,0.3-0.9,0.5-1.4,0.6c-0.2,0.1-0.4,0.1-0.5,0.2C45.3,59.1,45.3,59.2,45.3,59.3z"/>
	<path class="st1" d="M56.1,54.3c0,0.4,0.1,1,0.4,1.7c0.2,0.6,0.5,1.1,0.8,1.6c0.4,0.5,0.8,1,1.3,1.3c0.5,0.4,1.1,0.6,1.7,0.8
		c0.5,0.1,1.1,0.2,1.8,0.2h0.2v-2.3l-0.2-0.1c-0.4-0.1-0.8-0.3-1.1-0.7c-0.4-0.3-0.7-0.7-0.9-1.1c-0.2-0.4-0.4-0.9-0.6-1.5
		c-0.1-0.6-0.2-1.1-0.2-1.6c0-0.1,0-0.2,0-0.3h1.2c1,0,1.5,0,1.5,0c0,0,0.1,0,0.2,0v-0.9l-2.8,0c0.1-1,0.4-1.7,0.9-2.3
		c0.5-0.6,1.1-0.8,1.7-0.8c0.1,0,0.2,0,0.3,0v-0.9c-0.2,0-0.3,0-0.5,0c-0.4,0-0.9,0.1-1.5,0.3c-0.5,0.1-1,0.4-1.6,0.9
		c-0.6,0.4-1.2,1-1.7,1.8c-0.2,0.3-0.4,0.8-0.7,1.6C56.2,52.7,56.1,53.5,56.1,54.3z"/>
</g>
<g>
	<path class="st1" d="M89.4,44.7c0.5-0.7,1.1-1.2,1.8-1.6c1.1-0.6,2.3-0.9,3.7-0.9c0.4,0,0.8,0,1.1,0.1v-1.4h-0.5
		c-2.1,0-3.7,0.1-4.6,0.3c-0.5,0.1-1,0.3-1.5,0.5c-0.8,0.3-1.6,0.7-2.2,1.2c-1.3,1-2.2,2.1-2.8,3.4c-0.6,1.3-0.9,2.7-0.9,4.2
		c0,1.9,0.4,3.6,1.3,4.9c0.8,1.4,2.1,2.5,3.6,3.3c0.3,0.2,0.7,0.3,1,0.4c1,0.3,2.1,0.5,3.5,0.5l2.9-0.1l0.2,0v-1.8
		c-0.6,0.3-1.3,0.5-2.2,0.5c-0.9,0-1.6-0.1-2.1-0.3c-0.9-0.4-1.7-0.9-2.2-1.5c0,0,0,0,0,0c-0.5-0.6-0.9-1.4-1.2-2.5
		c-0.3-1.1-0.4-2.2-0.4-3.4c0-1.9,0.3-3.5,0.9-4.7C88.9,45.4,89.2,45.1,89.4,44.7z"/>
	<path class="st1" d="M81.7,58.9c-0.1-0.1-0.3-0.2-0.5-0.2c-0.5-0.1-1-0.3-1.4-0.6c-0.1-0.2-0.1-1-0.1-2.3c0-2.4,0-4,0.2-4.9
		c0-0.2,0.1-0.3,0.2-0.4c0.2-0.1,0.5-0.2,1-0.3c0.2-0.1,0.3-0.2,0.3-0.3l0-0.5c-0.7-0.1-1.3-0.3-1.9-0.7s-1-0.8-1.3-1.2
		c-0.2-0.2-0.3-0.4-0.4-0.5l-1,0c0,0.2-0.1,0.4-0.1,0.5c0,0.1,0,0.2,0,0.4c0,0.3,0,0.6,0,0.8c0,0.1,0,0.5,0,1.2
		c-0.4-0.7-0.7-1.1-0.9-1.3c-0.1-0.1-0.3-0.3-0.8-0.7c-0.3-0.2-0.7-0.3-1.1-0.3c-0.5,0-0.9,0.2-1.3,0.5c-0.4,0.3-0.5,0.7-0.5,1.2
		c0,0.4,0.1,0.8,0.4,1.2c0.3,0.4,0.7,0.5,1.1,0.5c0.4,0,0.8-0.2,1.3-0.5c0.3-0.2,0.5-0.3,0.6-0.3l0.1,0c0.2,0.1,0.4,0.2,0.5,0.5
		c0.3,0.5,0.4,1,0.4,1.5l0,0.4c0,0.7-0.1,2.4-0.1,4.9c0,0.2-0.1,0.5-0.3,0.7c-0.2,0.1-0.3,0.2-0.5,0.3c-0.2,0.1-0.5,0.1-0.9,0.1
		c-0.4,0-0.7,0.1-0.8,0.2c-0.1,0.1-0.1,0.2-0.1,0.4c0,0.1,0,0.3,0.1,0.4h1.3l2.7-0.1c0.7,0,1.3,0,1.9,0.1h0.2c0.1,0,0.6,0,1.5,0.1
		c0-0.2,0-0.3,0-0.4C81.7,59.2,81.7,59.1,81.7,58.9z"/>
	<path class="st1" d="M70.7,52.1c-0.3-0.8-0.5-1.3-0.7-1.6c-0.5-0.8-1.1-1.4-1.7-1.8c-0.6-0.4-1.1-0.7-1.6-0.9
		c-0.6-0.2-1.1-0.3-1.5-0.3c-0.2,0-0.4,0-0.5,0v0.9c0.1,0,0.2,0,0.3,0c0.6,0,1.2,0.3,1.7,0.8s0.8,1.3,0.9,2.3l-2.8,0v0.9h0.2
		c0.1,0,0.6,0,1.5,0h1.2c0,0.1,0,0.2,0,0.3c0,0.5-0.1,1-0.2,1.6c-0.1,0.5-0.3,1-0.6,1.5s-0.6,0.8-0.9,1.1c-0.4,0.3-0.7,0.5-1.1,0.7
		l-0.2,0V60h0.2c0.8,0,1.4-0.1,1.8-0.2c0.6-0.2,1.2-0.4,1.7-0.8c0.5-0.4,1-0.8,1.3-1.3c0.4-0.5,0.6-1.1,0.8-1.6
		c0.2-0.7,0.3-1.3,0.3-1.7C70.9,53.5,70.8,52.8,70.7,52.1z"/>
</g>
</svg>
