<?xml version="1.0" encoding="utf-8"?>
<!-- Generator: Adobe Illustrator 24.1.2, SVG Export Plug-In . SVG Version: 6.00 Build 0)  -->
<svg version="1.1" id="Слой_2" xmlns="http://www.w3.org/2000/svg" xmlns:xlink="http://www.w3.org/1999/xlink" x="0px" y="0px"
	 viewBox="0 0 108 108" style="enable-background:new 0 0 108 108;" xml:space="preserve">
<style type="text/css">
	.st0{fill:#BBDEF9;}
	.st1{fill:#232323;}
	.st2{fill:#FFFFFF;}
</style>
<g>
	<polygon class="st0" points="96,4.7 96,101.8 63.4,85 63.4,21.6 	"/>
	<g>
		<path class="st1" d="M94.8,4.7c0,28.3,0,56.5,0,84.8c0,4.1,0,8.2,0,12.3c0.6-0.4,1.3-0.7,1.9-1.1c-8.7-4.5-17.4-9-26.2-13.5
			c-1.6-0.8-3.7-2.5-5.4-2.8c-0.3-0.1-0.8-0.4-1-0.5c1.3,0.9,0.4,1.5,0.6,0.5c0.7-3.2,0-7.2,0-10.4c0-12.4,0-24.8,0-37.2
			c0-4.3,0-8.7,0-13c0-0.6-0.1-1.5,0-2.1c-0.4,1.9-0.9,0.8,0.1,0.7c0.8-0.1,1.9-1,2.5-1.3c9.8-5.1,19.6-10.1,29.4-15.2
			c1.4-0.7,0.2-2.9-1.3-2.2C84.5,9.3,73.6,14.9,62.7,20.5c-0.4,0.2-0.6,0.7-0.6,1.1c0,21.1,0,42.3,0,63.4c0,0.4,0.2,0.9,0.6,1.1
			c10.9,5.6,21.8,11.2,32.6,16.8c0.8,0.4,1.9-0.1,1.9-1.1c0-28.3,0-56.5,0-84.8c0-4.1,0-8.2,0-12.3C97.3,3.1,94.8,3.1,94.8,4.7z"/>
	</g>
</g>
<g>
	<g>
		<path class="st2" d="M84.5,18c1.1,1.1,2.2,2.2,3.3,3.3c1.1,1.1,2.9-0.6,1.8-1.8c-1.1-1.1-2.2-2.2-3.3-3.3
			C85.1,15.1,83.4,16.8,84.5,18L84.5,18z"/>
	</g>
</g>
<g>
	<g>
		<path class="st2" d="M80,19.6c2,2,4,4,6,6c1.1,1.1,2.9-0.6,1.8-1.8c-2-2-4-4-6-6C80.6,16.7,78.8,18.5,80,19.6L80,19.6z"/>
	</g>
</g>
<g>
	<path class="st1" d="M96,42.9v-4c-1.1,0.4-2,0.9-2.8,1.6c-1.6,1.3-2.9,2.8-3.7,4.5c-0.8,1.7-1.2,3.5-1.2,5.5c0,2.5,0.5,4.7,1.7,6.5
		c1.1,1.8,2.7,3.3,4.8,4.4c0.4,0.2,0.9,0.4,1.4,0.6v-3.6c-0.7-0.8-1.2-1.9-1.6-3.3c-0.4-1.5-0.6-2.9-0.6-4.5c0-2.5,0.4-4.6,1.2-6.2
		C95.3,43.9,95.6,43.4,96,42.9z"/>
	<path class="st1" d="M85.8,61.6c-0.2-0.1-0.4-0.2-0.6-0.3c-0.6-0.1-1.3-0.4-1.8-0.8c-0.1-0.3-0.2-1.3-0.2-3c0-3.2,0.1-5.3,0.2-6.4
		c0-0.2,0.1-0.4,0.3-0.5c0.3-0.2,0.7-0.3,1.3-0.4c0.3-0.1,0.4-0.2,0.5-0.4l0.1-0.7c-0.9-0.1-1.8-0.4-2.5-1s-1.3-1-1.7-1.5
		c-0.2-0.3-0.4-0.5-0.5-0.7l-1.3,0c-0.1,0.3-0.1,0.5-0.1,0.7c0,0.1,0,0.3,0,0.5c0,0.4,0,0.8,0,1.1c0,0.1,0,0.6,0,1.6
		c-0.5-0.9-0.9-1.5-1.1-1.8c-0.1-0.1-0.4-0.4-1-0.9c-0.4-0.3-0.9-0.5-1.5-0.5c-0.7,0-1.2,0.2-1.7,0.7c-0.5,0.5-0.7,1-0.7,1.6
		c0,0.6,0.2,1.1,0.6,1.6c0.4,0.5,0.9,0.7,1.5,0.7c0.5,0,1.1-0.2,1.7-0.7c0.3-0.3,0.6-0.4,0.8-0.4l0.1,0c0.3,0.1,0.5,0.3,0.7,0.7
		c0.3,0.6,0.5,1.3,0.5,1.9l0,0.5c0,0.9-0.1,3.1-0.1,6.5c0,0.3-0.2,0.6-0.4,0.9c-0.2,0.2-0.5,0.3-0.7,0.4c-0.2,0.1-0.6,0.1-1.2,0.2
		c-0.6,0-0.9,0.1-1,0.2c-0.1,0.1-0.2,0.3-0.2,0.5c0,0.1,0,0.3,0.1,0.6h1.8l3.6-0.2c0.9,0,1.7,0,2.5,0.1h0.3c0.1,0,0.7,0,2,0.1
		c0-0.2,0-0.4,0-0.5C85.8,62,85.8,61.8,85.8,61.6z"/>
	<path class="st1" d="M71.3,52.6c-0.3-1.1-0.6-1.8-0.9-2.1c-0.7-1-1.5-1.8-2.3-2.4c-0.8-0.6-1.5-0.9-2.2-1.1c-0.8-0.2-1.5-0.4-2-0.4
		c-0.2,0-0.5,0-0.7,0v1.2c0.1,0,0.2,0,0.3,0c0.8,0,1.6,0.4,2.3,1.1c0.7,0.7,1.1,1.7,1.1,3l-3.8,0v1.1c0.1,0,0.1,0,0.2,0
		c0.1,0,0.8,0,2,0h1.6c0,0.2,0,0.3,0,0.5c0,0.7-0.1,1.4-0.2,2.1c-0.2,0.7-0.4,1.4-0.7,1.9c-0.3,0.6-0.7,1-1.2,1.4
		c-0.5,0.4-1,0.7-1.5,0.9L63.4,60V63h0.2c1,0,1.8-0.1,2.4-0.3c0.8-0.2,1.6-0.6,2.3-1c0.7-0.5,1.3-1,1.7-1.7c0.5-0.7,0.8-1.4,1.1-2.1
		c0.3-1,0.5-1.7,0.5-2.3C71.6,54.5,71.5,53.5,71.3,52.6z"/>
</g>
<g>
	<path class="st1" d="M15.3,42.1l0.1,6.4l0,2.5l0,2.1c-0.1,3.7-0.1,5.6-0.1,5.7c-0.1,0.6-0.2,1-0.4,1.2c-0.4,0.3-1.1,0.6-2.3,0.8
		c-0.6,0.1-1,0.2-1.2,0.2c0,0.7,0,1.3,0,1.5c0.2,0,0.5,0,0.9,0c0.6,0,1.2,0,1.6-0.1c1.2-0.1,1.8-0.1,1.9-0.1l2.1,0l1.6,0l0.5,0
		l1.5,0l1.1,0l3.8,0.2c1.8,0,3.3-0.2,4.6-0.6c0.5-0.2,1-0.3,1.4-0.6c2.1-1.1,3.7-2.5,4.8-4.4c1.1-1.8,1.7-4,1.7-6.5
		c0-2-0.4-3.8-1.2-5.5c-0.8-1.7-2.1-3.2-3.7-4.5c-0.8-0.6-1.7-1.1-2.8-1.6c-0.6-0.2-1.2-0.4-1.9-0.6c-1.3-0.3-3.3-0.5-6.1-0.5
		c-3.3,0-6.1,0.2-8.4,0.6c-1.4,0.2-2.4,0.5-3.2,0.7l0,1.6c0.2,0,0.3,0,0.4-0.1c0.4-0.1,0.9-0.1,1.5-0.2c0.4-0.1,0.8-0.1,1.1-0.1
		c0.4,0,0.6,0,0.7,0.1c0.2,0.2,0.3,0.4,0.3,0.8V42.1z M20.4,40.9c0-0.2,0-0.4,0-0.8c0.9-0.3,2-0.5,3.3-0.5c1.8,0,3.4,0.4,4.8,1.2
		c0.9,0.5,1.7,1.2,2.4,2.1c0.4,0.5,0.7,1,1,1.5c0.8,1.6,1.2,3.7,1.2,6.2c0,1.5-0.2,3-0.6,4.5c-0.4,1.4-0.9,2.5-1.6,3.3c0,0,0,0,0,0
		c-0.7,0.8-1.7,1.4-2.9,1.9c-0.6,0.2-1.5,0.4-2.7,0.4c-1.6,0-2.9-0.4-3.8-1.3c-0.6-0.6-1-1.8-1-3.5l0.1-1.8l-0.1-3l0-1.8
		c0-0.7,0-1.5,0-2.4v-2.8L20.4,40.9z"/>
	<path class="st1" d="M41.1,62.1c0,0.1,0,0.3,0,0.5c1.2-0.1,1.9-0.1,2-0.1h0.3c0.7-0.1,1.6-0.1,2.5-0.1l3.6,0.2h1.8
		c0.1-0.2,0.1-0.4,0.1-0.6c0-0.2-0.1-0.4-0.2-0.5c-0.1-0.1-0.5-0.2-1-0.2c-0.6-0.1-1-0.1-1.2-0.2c-0.2-0.1-0.5-0.2-0.7-0.4
		c-0.2-0.3-0.3-0.6-0.4-0.9c0-3.4-0.1-5.6-0.1-6.5l0-0.5c0-0.7,0.2-1.3,0.5-1.9c0.2-0.4,0.5-0.6,0.7-0.7l0.1,0
		c0.2,0,0.5,0.1,0.8,0.4c0.6,0.5,1.2,0.7,1.7,0.7c0.6,0,1.1-0.2,1.5-0.7c0.4-0.5,0.6-1,0.6-1.6c0-0.6-0.2-1.1-0.7-1.6
		c-0.5-0.4-1.1-0.7-1.7-0.7c-0.5,0-1,0.2-1.5,0.5c-0.5,0.5-0.9,0.8-1,0.9c-0.2,0.3-0.6,0.9-1.1,1.8c0-0.9,0-1.4,0-1.6
		c0-0.3,0-0.7,0-1.1c0-0.2,0-0.4,0-0.5c0-0.2,0-0.4-0.1-0.7l-1.3,0c-0.1,0.2-0.3,0.4-0.5,0.7c-0.4,0.5-0.9,1-1.7,1.5s-1.6,0.8-2.5,1
		l0.1,0.7c0,0.2,0.2,0.3,0.5,0.4c0.5,0.1,1,0.3,1.3,0.4c0.2,0.2,0.3,0.3,0.3,0.5c0.1,1.1,0.2,3.3,0.2,6.4c0,1.7,0,2.7-0.2,3
		c-0.6,0.4-1.2,0.6-1.8,0.8c-0.3,0.1-0.5,0.2-0.6,0.3C41.2,61.8,41.1,62,41.1,62.1z"/>
	<path class="st1" d="M55.4,55.6c0,0.6,0.2,1.3,0.5,2.3c0.2,0.7,0.6,1.4,1.1,2.1c0.5,0.7,1.1,1.3,1.7,1.7c0.7,0.5,1.4,0.8,2.3,1
		c0.6,0.2,1.4,0.3,2.4,0.3h0.2v-3.1l-0.2-0.1c-0.5-0.2-1-0.5-1.5-0.9c-0.5-0.4-0.9-0.9-1.2-1.4c-0.3-0.6-0.6-1.2-0.7-1.9
		c-0.2-0.7-0.2-1.4-0.2-2.1c0-0.1,0-0.3,0-0.5h1.6c1.3,0,1.9,0,2,0c0.1,0,0.1,0,0.2,0v-1.1l-3.8,0c0.1-1.3,0.5-2.3,1.1-3
		c0.7-0.7,1.4-1.1,2.3-1.1c0.1,0,0.2,0,0.3,0v-1.2c-0.2,0-0.4,0-0.7,0c-0.5,0-1.2,0.1-2,0.4c-0.6,0.2-1.4,0.6-2.2,1.1
		c-0.8,0.6-1.5,1.4-2.3,2.4c-0.3,0.3-0.5,1.1-0.9,2.1C55.5,53.5,55.4,54.5,55.4,55.6z"/>
</g>
</svg>
