<?xml version="1.0" encoding="utf-8"?>
<!-- Generator: Adobe Illustrator 24.1.2, SVG Export Plug-In . SVG Version: 6.00 Build 0)  -->
<svg version="1.1" xmlns="http://www.w3.org/2000/svg" xmlns:xlink="http://www.w3.org/1999/xlink" x="0px" y="0px"
	 viewBox="0 0 108 108" style="enable-background:new 0 0 108 108;" xml:space="preserve">
<style type="text/css">
	.st0{fill:#BBDEF9;}
	.st1{fill:#232323;}
	.st2{fill:#FFFFFF;}
	.st3{fill:none;}
</style>
<g id="Слой_2">
	<g>
		<polygon class="st0" points="96,4.7 96,101.8 63.4,85 63.4,21.6 		"/>
		<g>
			<path class="st1" d="M94.8,4.7c0,28.3,0,56.5,0,84.8c0,4.1,0,8.2,0,12.3c0.6-0.4,1.3-0.7,1.9-1.1c-8.7-4.5-17.4-9-26.2-13.5
				c-1.6-0.8-3.7-2.5-5.4-2.8c-0.3-0.1-0.8-0.4-1-0.5c1.3,0.9,0.4,1.5,0.6,0.5c0.7-3.2,0-7.2,0-10.4c0-12.4,0-24.8,0-37.2
				c0-4.3,0-8.7,0-13c0-0.6-0.1-1.5,0-2.1c-0.4,1.9-0.9,0.8,0.1,0.7c0.8-0.1,1.9-1,2.5-1.3c9.8-5.1,19.6-10.1,29.4-15.2
				c1.4-0.7,0.2-2.9-1.3-2.2C84.5,9.3,73.6,14.9,62.7,20.5c-0.4,0.2-0.6,0.7-0.6,1.1c0,21.1,0,42.3,0,63.4c0,0.4,0.2,0.9,0.6,1.1
				c10.9,5.6,21.8,11.2,32.6,16.8c0.8,0.4,1.9-0.1,1.9-1.1c0-28.3,0-56.5,0-84.8c0-4.1,0-8.2,0-12.3C97.3,3.1,94.8,3.1,94.8,4.7z"/>
		</g>
	</g>
	<g>
		<g>
			<path class="st2" d="M84.5,18c1.1,1.1,2.2,2.2,3.3,3.3c1.1,1.1,2.9-0.6,1.8-1.8c-1.1-1.1-2.2-2.2-3.3-3.3
				C85.1,15.1,83.4,16.8,84.5,18L84.5,18z"/>
		</g>
	</g>
	<g>
		<g>
			<path class="st2" d="M80,19.6c2,2,4,4,6,6c1.1,1.1,2.9-0.6,1.8-1.8c-2-2-4-4-6-6C80.6,16.7,78.8,18.5,80,19.6L80,19.6z"/>
		</g>
	</g>
	<rect x="37.5" y="41.7" class="st3" width="0.3" height="0.3"/>
</g>
<g id="Слой_3">
	<g>
		<path class="st1" d="M10,71.3c0.3-0.1,1-0.2,2-0.3c2-0.3,3.3-0.8,4-1.4c0.3-0.3,0.7-1,0.8-2.2c0-0.2,0.1-3.5,0.2-9.9V54v-4.3
			l-0.1-11v-1.5c0-0.6-0.1-1-0.5-1.3c-0.1-0.1-0.6-0.2-1.3-0.2c-0.6,0-1.3,0.1-1.9,0.2c-0.9,0-1.8,0.1-2.6,0.2c-0.1,0-0.3,0-0.6,0.1
			v-2.8c1.3-0.5,3.1-0.8,5.5-1.3c4-0.7,8.8-1,14.6-1c4.8,0,8.3,0.2,10.6,0.8c3.4,0.8,6.1,2,8.3,3.8c2.8,2.3,5,4.8,6.4,7.7
			c1.4,3,2.2,6.1,2.2,9.6c0,4.3-0.9,8.1-2.8,11.3c-1.9,3.2-4.7,5.7-8.2,7.5c-2.5,1.4-5.9,2-10.2,2l-6.9-0.2h-1.9h-2.6H24h-2.7h-3.6
			c-0.1,0-1.3,0.1-3.3,0.2c-0.7,0-1.6,0.1-2.7,0.1c-0.7,0-1.3,0-1.6,0C10,73.3,10,72.5,10,71.3z M25.8,35c0,0.7-0.1,1.1-0.1,1.5
			l0.1,5.6v4.8c0,1.6,0.1,3,0.1,4.1L25.8,54l0.1,5.1l-0.1,3.2c0,3,0.6,5,1.7,6c1.6,1.5,3.9,2.3,6.6,2.3c2.2,0,3.8-0.2,4.8-0.6
			c2.2-0.8,3.9-1.9,5-3.3c1.3-1.4,2.2-3.3,2.8-5.8c0.7-2.5,1-5.1,1-7.7c0-4.3-0.7-8-2-10.7c-1.4-2.7-3.3-4.9-5.7-6.3
			c-2.4-1.4-5.2-2-8.3-2C29.2,34.2,27.4,34.4,25.8,35z"/>
	</g>
	<g>
		<path class="st1" d="M88.4,36.7c1.5-0.8,3.1-1.4,4.8-1.7v-3.2c-2.3,0.1-4.1,0.3-5.5,0.7c-3.4,0.8-6.1,2-8.3,3.8
			c-2.8,2.3-5,4.8-6.4,7.7c-1.4,3-2.2,6.1-2.2,9.6c0,4.3,0.9,8.1,2.8,11.3c1.9,3.2,4.7,5.7,8.2,7.5c2.5,1.4,5.9,2,10.2,2h0.9v-3.2
			c-1.6-0.1-2.8-0.2-3.6-0.6c-2.2-0.8-3.8-1.9-5-3.3c-1.3-1.4-2.2-3.3-2.8-5.8c-0.7-2.5-1-5.1-1-7.7c0-4.3,0.7-8,2-10.7
			C84.1,40.2,86,38,88.4,36.7z"/>
	</g>
	<rect x="29" y="37.1" class="st3" width="0.3" height="0.3"/>
</g>
</svg>
