<?xml version="1.0" encoding="utf-8"?>
<!-- Generator: Adobe Illustrator 24.1.2, SVG Export Plug-In . SVG Version: 6.00 Build 0)  -->
<svg version="1.1" id="Слой_2" xmlns="http://www.w3.org/2000/svg" xmlns:xlink="http://www.w3.org/1999/xlink" x="0px" y="0px"
	 viewBox="0 0 108 108" style="enable-background:new 0 0 108 108;" xml:space="preserve">
<style type="text/css">
	.st0{fill:#BBDEF9;}
	.st1{fill:#232323;}
	.st2{fill:#FFFFFF;}
	.st3{fill:none;}
</style>
<g>
	<polygon class="st0" points="96,4.7 96,101.8 63.4,85 63.4,21.6 	"/>
	<g>
		<path class="st1" d="M94.8,4.7c0,28.3,0,56.5,0,84.8c0,4.1,0,8.2,0,12.3c0.6-0.4,1.3-0.7,1.9-1.1c-8.7-4.5-17.4-9-26.2-13.5
			c-1.6-0.8-3.7-2.5-5.4-2.8c-0.3-0.1-0.8-0.4-1-0.5c1.3,0.9,0.4,1.5,0.6,0.5c0.7-3.2,0-7.2,0-10.4c0-12.4,0-24.8,0-37.2
			c0-4.3,0-8.7,0-13c0-0.6-0.1-1.5,0-2.1c-0.4,1.9-0.9,0.8,0.1,0.7c0.8-0.1,1.9-1,2.5-1.3c9.8-5.1,19.6-10.1,29.4-15.2
			c1.4-0.7,0.2-2.9-1.3-2.2C84.5,9.3,73.6,14.9,62.7,20.5c-0.4,0.2-0.6,0.7-0.6,1.1c0,21.1,0,42.3,0,63.4c0,0.4,0.2,0.9,0.6,1.1
			c10.9,5.6,21.8,11.2,32.6,16.8c0.8,0.4,1.9-0.1,1.9-1.1c0-28.3,0-56.5,0-84.8c0-4.1,0-8.2,0-12.3C97.3,3.1,94.8,3.1,94.8,4.7z"/>
	</g>
</g>
<g>
	<g>
		<path class="st2" d="M84.5,18c1.1,1.1,2.2,2.2,3.3,3.3c1.1,1.1,2.9-0.6,1.8-1.8c-1.1-1.1-2.2-2.2-3.3-3.3
			C85.1,15.1,83.4,16.8,84.5,18L84.5,18z"/>
	</g>
</g>
<g>
	<g>
		<path class="st2" d="M80,19.6c2,2,4,4,6,6c1.1,1.1,2.9-0.6,1.8-1.8c-2-2-4-4-6-6C80.6,16.7,78.8,18.5,80,19.6L80,19.6z"/>
	</g>
</g>
<g>
	<path class="st1" d="M20.3,57.5c0.1,0,0.4-0.1,0.8-0.2c0.8-0.1,1.3-0.3,1.6-0.6c0.2-0.1,0.3-0.4,0.3-0.8c0-0.1,0-1.4,0.1-4l0-1.4
		l0-1.7l0-4.4v-0.5c0-0.2-0.1-0.4-0.2-0.5c-0.1-0.1-0.2-0.1-0.5-0.1c-0.2,0-0.5,0-0.8,0.1c-0.4,0-0.7,0.1-1,0.1c-0.1,0-0.1,0-0.2,0
		l0-1.1c0.5-0.2,1.2-0.3,2.2-0.5c1.6-0.3,3.5-0.4,5.8-0.4c1.9,0,3.3,0.1,4.2,0.3c1.4,0.3,2.5,0.8,3.3,1.5c1.1,0.9,2,1.9,2.6,3.1
		c0.6,1.2,0.9,2.5,0.9,3.9c0,1.8-0.4,3.3-1.1,4.5c-0.8,1.3-1.9,2.3-3.3,3c-1,0.5-2.4,0.8-4.1,0.8l-2.7-0.1l-0.8,0l-1.1,0l-0.3,0
		l-1.1,0l-1.4,0c-0.1,0-0.5,0-1.3,0.1c-0.3,0-0.6,0-1.1,0c-0.3,0-0.5,0-0.6,0C20.3,58.4,20.3,58.1,20.3,57.5z M26.6,43
		c0,0.3,0,0.5,0,0.6l0,2.2v1.9c0,0.6,0,1.2,0,1.6l0,1.2l0,2.1l0,1.3c0,1.2,0.2,2,0.7,2.4c0.6,0.6,1.5,0.9,2.7,0.9
		c0.9,0,1.5-0.1,1.9-0.2c0.9-0.3,1.5-0.8,2-1.3c0.5-0.5,0.9-1.3,1.1-2.3s0.4-2,0.4-3.1c0-1.8-0.3-3.2-0.8-4.3
		c-0.6-1.1-1.3-1.9-2.3-2.5s-2.1-0.8-3.4-0.8C28,42.7,27.3,42.8,26.6,43z"/>
	<path class="st1" d="M41,58c0.1-0.1,0.3-0.2,0.4-0.2c0.4-0.1,0.9-0.3,1.3-0.5c0.1-0.2,0.1-0.9,0.1-2.1c0-2.2,0-3.7-0.1-4.5
		c0-0.1-0.1-0.3-0.2-0.4c-0.2-0.1-0.5-0.2-0.9-0.3c-0.2,0-0.3-0.1-0.3-0.3l0-0.5c0.6-0.1,1.2-0.3,1.7-0.7s0.9-0.7,1.2-1.1
		c0.1-0.2,0.3-0.4,0.4-0.5l0.9,0c0,0.2,0.1,0.4,0.1,0.5c0,0.1,0,0.2,0,0.4c0,0.3,0,0.6,0,0.8c0,0.1,0,0.5,0,1.1
		c0.4-0.6,0.6-1,0.8-1.2c0.1-0.1,0.3-0.3,0.7-0.6c0.3-0.2,0.6-0.3,1-0.3c0.5,0,0.9,0.2,1.2,0.5s0.5,0.7,0.5,1.1s-0.1,0.8-0.4,1.1
		c-0.3,0.3-0.6,0.5-1,0.5c-0.4,0-0.8-0.2-1.2-0.5c-0.2-0.2-0.4-0.3-0.6-0.3l-0.1,0c-0.2,0.1-0.3,0.2-0.5,0.5
		c-0.2,0.4-0.4,0.9-0.4,1.4l0,0.4c0,0.6,0.1,2.1,0.1,4.5c0,0.2,0.1,0.4,0.2,0.6c0.2,0.1,0.3,0.2,0.5,0.3c0.2,0.1,0.4,0.1,0.8,0.1
		c0.4,0,0.6,0.1,0.7,0.2s0.1,0.2,0.1,0.4c0,0.1,0,0.2-0.1,0.4h-1.2l-2.5-0.1c-0.6,0-1.2,0-1.7,0.1h-0.2c-0.1,0-0.5,0-1.4,0.1
		c0-0.1,0-0.3,0-0.3C41,58.2,41,58.1,41,58z"/>
	<path class="st1" d="M51.1,51.7c0.2-0.7,0.4-1.2,0.6-1.5c0.5-0.7,1-1.3,1.6-1.7c0.6-0.4,1-0.7,1.5-0.8c0.6-0.2,1-0.2,1.4-0.2
		c0.8,0,1.5,0.1,2,0.2c0.5,0.1,0.9,0.3,1.3,0.5c0.5,0.3,0.9,0.7,1.2,1c0.3,0.3,0.5,0.8,0.7,1.2c0.2,0.5,0.3,1,0.3,1.7l-1.4,0
		c-0.4,0-1.3,0-2.6-0.1c-0.5,0-0.9-0.1-1-0.1c-0.1,0-0.5,0-1.4,0h-1.1c0,0.1,0,0.2,0,0.3c0,0.5,0.1,0.9,0.2,1.5
		c0.1,0.5,0.3,1,0.5,1.3c0.2,0.4,0.5,0.7,0.8,1c0.3,0.3,0.7,0.5,1,0.6l0.8,0.2c0.7,0,1.1,0,1.3-0.1c0.4-0.1,0.8-0.2,1.1-0.3
		c0.3-0.1,0.7-0.4,1.2-0.7c0.3,0.2,0.6,0.4,0.8,0.6c-0.8,0.8-1.6,1.5-2.4,1.8c-0.8,0.4-1.7,0.6-2.8,0.6c-0.7,0-1.2-0.1-1.7-0.2
		c-0.6-0.2-1.1-0.4-1.6-0.7c-0.5-0.3-0.9-0.7-1.2-1.2c-0.3-0.5-0.6-1-0.8-1.5c-0.2-0.7-0.3-1.2-0.3-1.6C50.9,53,51,52.3,51.1,51.7z
		 M58.7,51.2c0-0.5-0.1-1-0.3-1.4c-0.2-0.4-0.5-0.8-0.8-1s-0.8-0.4-1.2-0.4c-0.6,0-1.1,0.3-1.6,0.8c-0.5,0.5-0.7,1.2-0.8,2.1l3,0
		c0.2,0,0.5,0,0.8,0c0.3,0,0.4,0,0.5,0C58.4,51.1,58.5,51.1,58.7,51.2z"/>
</g>
<g>
	<path class="st1" d="M94.8,43.5c0.4-0.2,0.8-0.4,1.2-0.5v-1.4c-0.6,0-1.1,0.1-1.5,0.2c-1.4,0.3-2.5,0.8-3.3,1.5
		c-1.1,0.9-2,1.9-2.6,3.1c-0.6,1.2-0.8,2.5-0.8,3.9c0,1.8,0.4,3.3,1.1,4.5c0.8,1.3,1.9,2.3,3.3,3c0.9,0.5,2.2,0.8,3.8,0.8v-1.3
		c-0.3,0-0.5-0.1-0.8-0.2c-0.8-0.3-1.5-0.8-2-1.3c-0.5-0.5-0.9-1.3-1.1-2.3s-0.4-2-0.4-3.1c0-1.8,0.3-3.2,0.8-4.3
		C93.1,44.9,93.9,44.1,94.8,43.5z"/>
	<path class="st1" d="M86.1,58c-0.1-0.1-0.3-0.2-0.4-0.2c-0.4-0.1-0.9-0.3-1.3-0.5c-0.1-0.2-0.1-0.9-0.1-2.1c0-2.2,0-3.7,0.1-4.5
		c0-0.1,0.1-0.3,0.2-0.4c0.2-0.1,0.5-0.2,0.9-0.3c0.2,0,0.3-0.1,0.3-0.3l0-0.5c-0.6-0.1-1.2-0.3-1.7-0.7c-0.5-0.4-0.9-0.7-1.2-1.1
		c-0.1-0.2-0.3-0.4-0.4-0.5l-0.9,0c0,0.2-0.1,0.4-0.1,0.5c0,0.1,0,0.2,0,0.4c0,0.3,0,0.5,0,0.8c0,0.1,0,0.5,0,1.1
		c-0.3-0.6-0.6-1-0.8-1.2c-0.1-0.1-0.3-0.3-0.7-0.6c-0.3-0.2-0.6-0.3-1-0.3c-0.5,0-0.9,0.2-1.2,0.5c-0.3,0.3-0.5,0.7-0.5,1.1
		c0,0.4,0.1,0.8,0.4,1.1c0.3,0.3,0.6,0.5,1,0.5c0.4,0,0.8-0.2,1.2-0.5c0.2-0.2,0.4-0.3,0.6-0.3l0.1,0c0.2,0.1,0.3,0.2,0.5,0.5
		c0.3,0.4,0.4,0.9,0.4,1.4l0,0.3c0,0.6-0.1,2.1-0.1,4.5c0,0.2-0.1,0.4-0.2,0.6c-0.2,0.1-0.3,0.2-0.5,0.3c-0.2,0-0.4,0.1-0.8,0.1
		c-0.4,0-0.7,0.1-0.7,0.2C79.1,57.9,79,58,79,58.2c0,0.1,0,0.2,0.1,0.4h1.2l2.5-0.1c0.6,0,1.2,0,1.7,0.1h0.2c0.1,0,0.5,0,1.4,0.1
		c0-0.1,0-0.3,0-0.3C86.1,58.2,86.1,58.1,86.1,58z"/>
	<path class="st1" d="M76,51.7c-0.2-0.7-0.4-1.2-0.6-1.5c-0.5-0.7-1-1.3-1.6-1.7c-0.5-0.4-1-0.7-1.5-0.8c-0.6-0.2-1-0.3-1.4-0.3
		c-0.8,0-1.5,0.1-2,0.2c-0.5,0.1-0.9,0.3-1.3,0.5c-0.5,0.3-0.9,0.7-1.2,1c-0.3,0.4-0.5,0.8-0.7,1.2c-0.2,0.5-0.3,1-0.3,1.7l1.4,0
		c0.4,0,1.3,0,2.6-0.1c0.5,0,0.8-0.1,1-0.1c0.1,0,0.5,0,1.4,0h1.1c0,0.1,0,0.2,0,0.3c0,0.5-0.1,1-0.2,1.5c-0.1,0.5-0.3,1-0.5,1.3
		c-0.2,0.4-0.5,0.7-0.8,1c-0.3,0.3-0.7,0.5-1,0.6L69.9,57c-0.7,0-1.1,0-1.3-0.1c-0.4-0.1-0.8-0.2-1.1-0.3c-0.3-0.1-0.7-0.4-1.1-0.7
		c-0.3,0.2-0.6,0.4-0.8,0.6c0.8,0.9,1.6,1.5,2.4,1.8c0.8,0.4,1.7,0.6,2.8,0.6c0.7,0,1.3-0.1,1.7-0.2c0.6-0.2,1.1-0.4,1.6-0.7
		c0.5-0.3,0.9-0.7,1.2-1.2c0.3-0.5,0.6-1,0.8-1.5c0.2-0.7,0.3-1.2,0.3-1.6C76.2,53,76.2,52.3,76,51.7z M70.2,51.2
		c-0.2,0-0.5,0-0.8,0c-0.3,0-0.4,0-0.5,0c-0.1,0-0.2,0-0.4,0c0-0.5,0.1-0.9,0.3-1.4c0.2-0.5,0.5-0.8,0.8-1s0.8-0.4,1.2-0.4
		c0.6,0,1.1,0.3,1.6,0.8c0.5,0.5,0.7,1.2,0.8,2.1L70.2,51.2z"/>
</g>
<rect x="37.5" y="41.7" class="st3" width="0.3" height="0.3"/>
</svg>
