<?xml version="1.0" encoding="utf-8"?>
<!-- Generator: Adobe Illustrator 24.1.2, SVG Export Plug-In . SVG Version: 6.00 Build 0)  -->
<svg version="1.1" xmlns="http://www.w3.org/2000/svg" xmlns:xlink="http://www.w3.org/1999/xlink" x="0px" y="0px"
	 viewBox="0 0 108 108" style="enable-background:new 0 0 108 108;" xml:space="preserve">
<style type="text/css">
	.st0{fill:#FF7E7E;}
	.st1{fill:#5B5B5B;}
	.st2{fill:#FFFFFF;stroke:#000000;stroke-width:0.25;stroke-miterlimit:10;}
	.st3{fill:#1D1D1B;}
</style>
<g id="Слой_3">
	<rect x="54" class="st0" width="54" height="108"/>
</g>
<g id="Слой_2">
	<g>
		<path class="st1" d="M78.8,60.3h1.4l0.2,0.9h-8.9c-1.2,0-2.3-0.1-3.2-0.3c-0.9-0.2-1.9-0.8-2.9-1.6c-1-0.9-1.9-2-2.6-3.3
			c-0.7-1.4-1.1-2.8-1.1-4.4c0-1.5,0.3-2.7,1-3.7c0.7-0.9,1.4-1.6,2.1-2c0.8-0.4,1.5-0.7,2.1-0.8c0.6-0.1,1.5-0.2,2.6-0.2h8l0.2,0.8
			h-1.9L78.8,60.3z M70,45.6c-2.8,0-4.3,1-4.3,2.9c0,1.1,0.3,2.9,0.8,5.4c0.5,2.5,1.1,4,1.6,4.7c0.5,0.6,1.1,1.1,1.7,1.3
			s1.7,0.4,3.1,0.4h1.9l-3.1-14.7H70z"/>
	</g>
	<line class="st2" x1="77.9" y1="40.8" x2="73.7" y2="36.6"/>
	<line class="st2" x1="70.2" y1="41" x2="66" y2="36.8"/>
	<line class="st2" x1="70.4" y1="70" x2="66.2" y2="65.8"/>
	<g>
		<path d="M35.5,45.7h-1.9l0.2-0.8h8c1.2,0,2,0.1,2.6,0.2c0.6,0.1,1.3,0.4,2.1,0.8c0.8,0.4,1.5,1.1,2.1,2c0.7,0.9,1,2.2,1,3.7
			c0,1.6-0.4,3.1-1.1,4.4c-0.7,1.4-1.6,2.5-2.6,3.3c-1,0.9-2,1.4-2.9,1.6c-0.9,0.2-2,0.3-3.2,0.3h-8.9l0.2-0.9h1.4L35.5,45.7z
			 M39.4,45.7l-3.1,14.7h1.9c1.4,0,2.5-0.1,3.1-0.4c0.6-0.3,1.2-0.7,1.7-1.3c0.5-0.6,1.1-2.2,1.6-4.7c0.5-2.5,0.8-4.3,0.8-5.4
			c0-2-1.4-2.9-4.3-2.9H39.4z"/>
	</g>
	<line class="st2" x1="78.1" y1="67.6" x2="73.9" y2="63.4"/>
	<g>
		<g>
			<g>
				<g>
					<path class="st3" d="M81.8,53.5l1.1,0c0,3.1-0.4,6.1-1.2,9l-1.1-0.3C81.4,59.4,81.8,56.5,81.8,53.5z"/>
					<path d="M82.3,62.7c0.8-3,1.2-6.1,1.2-9.2h0.4l-0.1,2.3l-0.2,2.3c0.8-0.3,1.2-1.4,1.4-2l0,0c0,0.6,0.3,1.3,0.9,1.4
						c1,0.2,1-1.2,1.1-1.9c0-0.9,0-1.8-1-1.9c-0.2,0-0.6,0-0.6,0.3c0,0.1,0.1,0.2,0.2,0.3c0.1,0.1,0.2,0.2,0.2,0.5
						c0,0.4-0.3,0.6-0.7,0.6c-0.4,0-0.6-0.4-0.6-0.7c0-0.9,1.1-1.1,1.8-1.1c1.2,0,2,1,2,2.4c-0.1,1.2-0.9,2.1-1.9,2
						c-0.3,0-0.6-0.1-1-0.3c-0.2,0.2-0.3,0.4-0.5,0.7l0.3,0.8c0.4-0.1,0.7-0.1,1,0c1,0.2,1.6,1.3,1.4,2.5c-0.2,0.7-0.5,1.3-0.9,1.6
						c-0.5,0.3-1,0.4-1.6,0.3c-0.7-0.2-1.6-0.7-1.4-1.6c0.1-0.4,0.4-0.6,0.8-0.6c0.3,0.1,0.6,0.4,0.5,0.7c0,0.2-0.2,0.3-0.3,0.4
						c-0.1,0.1-0.2,0.1-0.3,0.2c-0.1,0.2,0.3,0.4,0.5,0.4c1,0.3,1.3-0.8,1.5-1.6c0.2-0.7,0.4-2-0.6-2c-0.6,0-1,0.6-1.2,1.2l0,0
						c0-0.6-0.2-1.7-0.8-2.3c-0.2,1.5-0.5,3-0.9,4.5L82.3,62.7z"/>
				</g>
				<g>
					<path class="st3" d="M80.6,62.2l1.1,0.3c-0.8,2.9-2,5.7-3.8,8l-0.9-0.7C78.7,67.7,79.9,65,80.6,62.2z"/>
					<path d="M78.4,70.8c1.8-2.3,3-5.2,3.9-8.2l0.3,0.1c-0.2,0.7-0.4,1.5-0.7,2.2c-0.2,0.7-0.5,1.4-0.9,2.1c0.8-0.1,1.6-1,1.9-1.5
						l0,0c-0.1,0.6-0.1,1.3,0.4,1.6c0.4,0.2,0.8,0,1-0.3c0.2-0.4,0.4-0.9,0.5-1.2c0.4-0.9,0.5-1.8-0.5-2.1c-0.2-0.1-0.5-0.1-0.6,0.1
						c0,0.1,0.1,0.2,0.1,0.3c0.1,0.1,0.1,0.3,0.1,0.5c-0.1,0.4-0.5,0.5-0.8,0.4c-0.4-0.1-0.5-0.5-0.4-0.9c0.2-0.8,1.3-0.8,2-0.6
						c1.2,0.3,1.8,1.5,1.2,2.9c-0.4,1.1-1.4,1.8-2.4,1.4c-0.3-0.1-0.5-0.3-0.8-0.6l-0.7,0.5c0,0.3,0.1,0.6,0.1,0.8
						c0.4,0,0.7,0.1,1,0.3c0.9,0.5,1.1,1.7,0.4,2.8c-0.4,0.7-0.9,1.1-1.5,1.3c-0.6,0.2-1.1,0-1.6-0.3c-0.6-0.4-1.2-1.3-0.7-2
						c0.2-0.3,0.6-0.4,0.9-0.2c0.3,0.2,0.4,0.5,0.2,0.9c-0.1,0.2-0.3,0.3-0.4,0.3c-0.1,0-0.3,0-0.3,0.1c-0.1,0.2,0.1,0.5,0.3,0.6
						c0.4,0.3,0.8,0.2,1.2,0c0.3-0.3,0.6-0.7,0.8-1c0.4-0.6,1-1.8,0.1-2.1c-0.6-0.2-1.2,0.3-1.5,0.7l0,0c0.2-0.6,0.4-1.7-0.1-2.4
						c-0.3,0.7-0.7,1.3-1,2c-0.4,0.6-0.8,1.3-1.3,1.8L78.4,70.8z"/>
				</g>
				<g>
					<path class="st3" d="M77.1,69.8l0.9,0.7c-1.7,2.3-4.1,3.8-6.5,3.8l0-1.1C73.4,73.2,75.5,71.9,77.1,69.8z"/>
					<path d="M71.5,74.9c2.6,0,5.1-1.7,6.9-4l0.3,0.2c-0.9,1.2-2,2.2-3.2,2.9c0.7,0.5,1.8,0,2.3-0.3l0,0c-0.4,0.4-0.8,1.1-0.4,1.7
						c0.5,0.8,1.7-0.1,2.2-0.7c0.3-0.3,0.7-0.7,0.8-1.1c0.1-0.4,0.1-0.8-0.3-1.1c-0.1-0.1-0.5-0.3-0.6-0.1c0,0.1,0,0.2,0,0.3
						c0,0.2,0,0.3-0.2,0.5c-0.3,0.3-0.6,0.2-0.9,0c-0.3-0.3-0.2-0.7,0-0.9c0.6-0.6,1.5-0.2,2.1,0.2c1,0.7,1,2.1-0.2,3.3
						c-1,0.9-2.3,1-3,0.2c-0.2-0.2-0.3-0.5-0.4-0.9l-0.9,0c-0.1,0.2-0.2,0.5-0.4,0.7c0.3,0.3,0.5,0.5,0.6,0.8c0.2,0.5,0.2,1-0.2,1.5
						c-0.3,0.5-0.8,0.9-1.6,1.1c-0.5,0.1-0.9,0.2-1.3,0.2c-0.4-0.1-0.7-0.2-1-0.3c-0.6-0.3-0.8-0.8-0.8-1.4c0-0.7,0.3-1.8,1.1-1.8
						c0.3,0,0.7,0.1,0.8,0.5c0.1,0.3-0.1,0.7-0.5,0.8c-0.2,0-0.4-0.1-0.5-0.2c-0.1-0.1-0.2-0.2-0.3-0.2c-0.2,0-0.3,0.4-0.3,0.6
						c0,1,1.4,1.1,2.3,0.7c0.8-0.1,2.2-0.8,1.7-1.6c-0.4-0.5-1.1-0.5-1.7-0.4l0,0c0.5-0.3,1.4-1,1.3-1.9c-1.2,0.7-2.5,1.2-3.9,1.2
						L71.5,74.9z"/>
				</g>
				<g>
					<path class="st3" d="M71.5,73.2l0,1.1c-2.4,0-4.8-1.5-6.5-3.8l0.9-0.7C67.5,71.9,69.6,73.2,71.5,73.2z"/>
					<path d="M64.6,70.8c1.8,2.4,4.3,4,6.9,4.1l0,0.4c-1.4,0-2.7-0.4-3.9-1.2c-0.1,0.9,0.8,1.6,1.3,1.9l0,0
						c-0.5-0.1-1.3-0.2-1.7,0.4c-0.5,0.8,0.9,1.5,1.7,1.6c0.3,0.1,0.5,0.1,0.8,0.2c0.2,0,0.5,0,0.7-0.1c0.4-0.1,0.7-0.4,0.8-0.9
						c0-0.2,0-0.6-0.3-0.6c-0.1,0-0.2,0.1-0.3,0.2c-0.1,0.1-0.3,0.2-0.5,0.2c-0.4-0.1-0.6-0.4-0.5-0.8c0.1-0.4,0.4-0.5,0.8-0.5
						c0.8,0.1,1,1.1,1.1,1.8c0,0.6-0.3,1.1-0.8,1.4c-0.3,0.2-0.6,0.3-1,0.3c-0.4,0-0.8,0-1.3-0.2c-0.7-0.2-1.3-0.6-1.6-1.1
						c-0.3-0.5-0.4-1-0.2-1.5c0.1-0.3,0.3-0.5,0.6-0.8c-0.1-0.2-0.3-0.5-0.4-0.8l-0.8,0c-0.1,0.4-0.2,0.7-0.4,0.9
						c-0.7,0.9-2,0.7-3-0.2c-1.2-1.2-1.2-2.6-0.2-3.3c0.6-0.4,1.5-0.8,2.1-0.2c0.2,0.3,0.3,0.7,0,0.9c-0.2,0.2-0.6,0.3-0.9,0
						c-0.2-0.2-0.2-0.3-0.2-0.5c0-0.1,0-0.3,0-0.3c-0.1-0.2-0.5,0-0.6,0.1c-0.4,0.3-0.4,0.7-0.3,1.1c0.2,0.4,0.5,0.8,0.8,1.1
						c0.5,0.5,1.7,1.4,2.1,0.6c0.3-0.6-0.1-1.3-0.5-1.7l0,0c0.5,0.3,1.6,0.7,2.3,0.3c-1.2-0.7-2.3-1.8-3.2-2.9L64.6,70.8z"/>
				</g>
				<g>
					<path class="st3" d="M65.9,69.8L65,70.5c-1.8-2.2-2.9-5.1-3.8-8l1.1-0.3C63.1,65,64.3,67.7,65.9,69.8z"/>
					<path d="M60.7,62.7c0.8,2.9,2,5.8,3.9,8.2L64.3,71c-0.5-0.6-0.9-1.2-1.3-1.8c-0.4-0.7-0.7-1.3-1-2c-0.5,0.7-0.2,1.8-0.1,2.4
						l0,0c-0.3-0.5-0.9-1-1.5-0.7c-0.9,0.3-0.2,1.6,0.2,2.2c0.5,0.8,1.1,1.5,2,1c0.1-0.1,0.4-0.4,0.3-0.6c0-0.1-0.2-0.1-0.3-0.1
						c-0.1,0-0.3-0.1-0.4-0.3c-0.2-0.3-0.1-0.7,0.2-0.9c0.3-0.2,0.7-0.1,0.9,0.2c0.5,0.7-0.2,1.5-0.7,2c-0.5,0.4-1,0.5-1.6,0.3
						c-0.6-0.2-1.1-0.6-1.5-1.3c-0.6-1.1-0.5-2.3,0.4-2.8c0.2-0.2,0.6-0.2,1-0.3c0-0.3,0.1-0.6,0.1-0.8l-0.7-0.5
						c-0.3,0.3-0.5,0.5-0.8,0.6c-1,0.3-2-0.3-2.4-1.4c-0.5-1.4,0.1-2.6,1.2-2.9c0.7-0.2,1.7-0.2,2,0.6c0.1,0.4,0,0.7-0.4,0.9
						c-0.3,0.1-0.7,0-0.8-0.4c-0.1-0.2,0-0.4,0.1-0.5c0.1-0.1,0.1-0.2,0.1-0.3c-0.1-0.2-0.5-0.2-0.6-0.1c-1,0.3-0.8,1.4-0.4,2.2
						c0.1,0.3,0.3,0.8,0.5,1.2c0.3,0.3,0.6,0.5,1,0.3c0.6-0.3,0.5-1.1,0.4-1.6l0,0c0.3,0.5,1,1.4,1.9,1.5c-0.3-0.7-0.6-1.4-0.9-2.1
						c-0.3-0.7-0.5-1.4-0.7-2.2L60.7,62.7z"/>
				</g>
				<g>
					<path class="st3" d="M62.4,62.2l-1.1,0.3c-0.8-2.9-1.2-6-1.2-9l1.1,0C61.2,56.5,61.6,59.4,62.4,62.2z"/>
					<path d="M59.5,53.5c0,3.1,0.4,6.2,1.2,9.2l-0.3,0.1c-0.4-1.5-0.7-3-0.9-4.5c-0.7,0.5-0.8,1.7-0.8,2.3l0,0
						c-0.2-0.5-0.6-1.2-1.2-1.2c-1,0.1-0.7,1.4-0.6,2.1c0.2,0.9,0.4,1.8,1.5,1.6c0.2,0,0.5-0.2,0.5-0.4c0-0.1-0.1-0.1-0.3-0.2
						c-0.1-0.1-0.2-0.2-0.3-0.4c-0.1-0.4,0.2-0.7,0.5-0.7c0.4-0.1,0.7,0.2,0.8,0.5c0.2,0.9-0.7,1.4-1.4,1.6
						c-0.6,0.2-1.1,0.1-1.6-0.3c-0.4-0.3-0.8-0.9-0.9-1.6c-0.2-1.2,0.3-2.2,1.3-2.4c0.3-0.1,0.6-0.1,1,0l0.3-0.8
						c-0.2-0.2-0.3-0.4-0.5-0.6c-0.4,0.2-0.7,0.3-1,0.3c-1.1,0-1.8-0.9-1.9-2c0-1.5,0.8-2.5,2-2.4c0.7,0,1.7,0.3,1.8,1.1
						c0,0.4-0.3,0.7-0.6,0.7c-0.4,0-0.7-0.2-0.7-0.6c0-0.2,0.1-0.4,0.2-0.5c0.1-0.1,0.2-0.2,0.2-0.3c0-0.2-0.4-0.3-0.6-0.3
						c-1,0-1.1,1.2-1,2c0,0.7,0.1,2,1.1,1.8c0.6-0.1,0.9-0.9,0.9-1.4l0,0c0.2,0.6,0.6,1.7,1.4,2l-0.2-2.3l-0.1-2.3L59.5,53.5z"/>
				</g>
				<g>
					<path class="st3" d="M61.2,53.5l-1.1,0c0-3.1,0.4-6.1,1.2-9l1.1,0.3C61.6,47.6,61.2,50.5,61.2,53.5z"/>
					<path d="M60.7,44.3c-0.8,3-1.2,6.1-1.2,9.2h-0.4l0.1-2.3l0.2-2.3c-0.8,0.3-1.2,1.4-1.4,2l0,0c0-0.6-0.3-1.3-0.9-1.4
						c-1-0.2-1,1.2-1.1,1.9c0,0.9,0,1.8,1,1.9c0.2,0,0.6,0,0.6-0.3c0-0.1-0.1-0.2-0.2-0.3c-0.1-0.1-0.2-0.2-0.2-0.5
						c0-0.4,0.3-0.6,0.7-0.6c0.4,0,0.6,0.4,0.6,0.7c0,0.9-1.1,1.1-1.8,1.1c-1.2,0-2-1-2-2.4c0.1-1.2,0.9-2.1,1.9-2
						c0.3,0,0.6,0.1,1,0.3c0.2-0.2,0.3-0.4,0.5-0.7L58,47.9c-0.4,0.1-0.7,0.1-1,0c-1-0.2-1.6-1.3-1.4-2.5c0.2-0.7,0.5-1.3,0.9-1.6
						c0.5-0.3,1-0.4,1.6-0.3c0.7,0.2,1.6,0.7,1.4,1.6c-0.1,0.4-0.4,0.6-0.8,0.6c-0.3-0.1-0.6-0.4-0.5-0.7c0-0.2,0.2-0.3,0.3-0.4
						c0.1-0.1,0.2-0.1,0.3-0.2c0.1-0.2-0.3-0.4-0.5-0.4c-1-0.3-1.3,0.8-1.5,1.6c-0.2,0.7-0.4,2,0.6,2c0.6,0,1-0.6,1.2-1.2l0,0
						c0,0.6,0.2,1.7,0.8,2.3c0.2-1.5,0.5-3,0.9-4.5L60.7,44.3z"/>
				</g>
				<g>
					<path class="st3" d="M62.4,44.8l-1.1-0.3c0.8-2.9,2-5.7,3.8-8l0.9,0.7C64.3,39.3,63.1,42,62.4,44.8z"/>
					<path d="M64.6,36.2c-1.8,2.3-3,5.2-3.9,8.2l-0.3-0.1c0.2-0.7,0.4-1.5,0.7-2.2c0.2-0.7,0.5-1.4,0.9-2.1c-0.8,0.1-1.6,1-1.9,1.5
						l0,0c0.1-0.6,0.1-1.3-0.4-1.6c-0.4-0.2-0.8,0-1,0.3c-0.2,0.4-0.4,0.9-0.5,1.2c-0.4,0.9-0.5,1.8,0.5,2.1
						c0.2,0.1,0.5,0.1,0.6-0.1c0-0.1-0.1-0.2-0.1-0.3c-0.1-0.1-0.1-0.3-0.1-0.5c0.1-0.4,0.5-0.5,0.8-0.4c0.4,0.1,0.5,0.5,0.4,0.9
						c-0.2,0.8-1.3,0.8-2,0.6c-1.2-0.3-1.8-1.5-1.2-2.9c0.4-1.1,1.4-1.8,2.4-1.4c0.3,0.1,0.5,0.3,0.8,0.6l0.7-0.5
						c0-0.3-0.1-0.6-0.1-0.8c-0.4,0-0.7-0.1-1-0.3c-0.9-0.5-1.1-1.7-0.4-2.8c0.4-0.7,0.9-1.1,1.5-1.3c0.6-0.2,1.1,0,1.6,0.3
						c0.6,0.4,1.2,1.3,0.7,2c-0.2,0.3-0.6,0.4-0.9,0.2c-0.3-0.2-0.4-0.5-0.2-0.9c0.1-0.2,0.3-0.3,0.4-0.3c0.1,0,0.3,0,0.3-0.1
						c0.1-0.2-0.1-0.5-0.3-0.6c-0.4-0.3-0.8-0.2-1.2,0c-0.3,0.3-0.6,0.7-0.8,1c-0.4,0.6-1,1.8-0.1,2.1c0.6,0.2,1.2-0.3,1.5-0.7l0,0
						c-0.2,0.6-0.4,1.7,0.1,2.4c0.3-0.7,0.7-1.3,1-2c0.4-0.6,0.8-1.3,1.3-1.8L64.6,36.2z"/>
				</g>
				<g>
					<path class="st3" d="M65.9,37.2L65,36.5c1.7-2.3,4.1-3.8,6.5-3.8l0,1.1C69.6,33.8,67.5,35.1,65.9,37.2z"/>
					<path d="M71.5,32.1c-2.6,0-5.1,1.7-6.9,4L64.3,36c0.9-1.2,2-2.2,3.2-2.9c-0.7-0.5-1.8,0-2.3,0.3l0,0c0.4-0.4,0.8-1.1,0.4-1.7
						c-0.5-0.8-1.7,0.1-2.2,0.7c-0.3,0.3-0.7,0.7-0.8,1.1c-0.1,0.4-0.1,0.8,0.3,1.1c0.1,0.1,0.5,0.3,0.6,0.1c0-0.1,0-0.2,0-0.3
						c0-0.2,0-0.3,0.2-0.5c0.3-0.3,0.6-0.2,0.9,0c0.3,0.3,0.2,0.7,0,0.9C64,35.4,63,35,62.5,34.5c-1-0.7-1-2.1,0.2-3.3
						c1-0.9,2.3-1,3-0.2c0.2,0.2,0.3,0.5,0.4,0.9l0.9,0c0.1-0.2,0.2-0.5,0.4-0.7c-0.3-0.3-0.5-0.5-0.6-0.8c-0.2-0.5-0.2-1,0.2-1.5
						c0.3-0.5,0.8-0.9,1.6-1.1c0.5-0.1,0.9-0.2,1.3-0.2c0.4,0.1,0.7,0.2,1,0.3c0.6,0.3,0.8,0.8,0.8,1.4c0,0.7-0.3,1.8-1.1,1.8
						c-0.3,0-0.7-0.1-0.8-0.5c-0.1-0.3,0.1-0.7,0.5-0.8c0.2,0,0.4,0.1,0.5,0.2c0.1,0.1,0.2,0.2,0.3,0.2c0.2,0,0.3-0.4,0.3-0.6
						c0-1-1.4-1.1-2.3-0.7c-0.8,0.1-2.2,0.8-1.7,1.6c0.4,0.5,1.1,0.5,1.7,0.4l0,0c-0.5,0.3-1.4,1-1.3,1.9c1.2-0.7,2.5-1.2,3.9-1.2
						L71.5,32.1z"/>
				</g>
				<g>
					<path class="st3" d="M71.5,33.8l0-1.1c2.4,0,4.8,1.5,6.5,3.8l-0.9,0.7C75.5,35.1,73.4,33.8,71.5,33.8z"/>
					<path d="M78.4,36.2c-1.8-2.4-4.3-4-6.9-4.1l0-0.4c1.4,0,2.7,0.4,3.9,1.2c0.1-0.9-0.8-1.6-1.3-1.9l0,0c0.5,0.1,1.3,0.2,1.7-0.4
						c0.5-0.8-0.9-1.5-1.7-1.6c-0.3-0.1-0.5-0.1-0.8-0.2c-0.2,0-0.5,0-0.7,0.1c-0.4,0.1-0.7,0.4-0.8,0.9c0,0.2,0,0.6,0.3,0.6
						c0.1,0,0.2-0.1,0.3-0.2c0.1-0.1,0.3-0.2,0.5-0.2c0.4,0.1,0.6,0.4,0.5,0.8c-0.1,0.4-0.4,0.5-0.8,0.5c-0.8-0.1-1-1.1-1.1-1.8
						c0-0.6,0.3-1.1,0.8-1.4c0.3-0.2,0.6-0.3,1-0.3c0.4,0,0.8,0,1.3,0.2c0.7,0.2,1.3,0.6,1.6,1.1c0.3,0.5,0.4,1,0.2,1.5
						c-0.1,0.3-0.3,0.5-0.6,0.8c0.1,0.2,0.3,0.5,0.4,0.8l0.8,0c0.1-0.4,0.2-0.7,0.4-0.9c0.7-0.9,2-0.7,3,0.2
						c1.2,1.2,1.2,2.6,0.2,3.3c-0.6,0.4-1.5,0.8-2.1,0.2c-0.2-0.3-0.3-0.7,0-0.9c0.2-0.2,0.6-0.3,0.9,0c0.2,0.2,0.2,0.3,0.2,0.5
						c0,0.1,0,0.3,0,0.3c0.1,0.2,0.5,0,0.6-0.1c0.4-0.3,0.4-0.7,0.3-1.1c-0.2-0.4-0.5-0.8-0.8-1.1c-0.5-0.5-1.7-1.4-2.1-0.6
						c-0.3,0.6,0.1,1.3,0.5,1.7l0,0c-0.5-0.3-1.6-0.7-2.3-0.3c1.2,0.7,2.3,1.8,3.2,2.9L78.4,36.2z"/>
				</g>
				<g>
					<path class="st3" d="M77.1,37.2l0.9-0.7c1.8,2.2,2.9,5.1,3.8,8l-1.1,0.3C79.9,42,78.7,39.3,77.1,37.2z"/>
					<path d="M82.3,44.3c-0.8-2.9-2-5.8-3.9-8.2l0.3-0.2c0.5,0.6,0.9,1.2,1.3,1.8c0.4,0.7,0.7,1.3,1,2c0.5-0.7,0.2-1.8,0.1-2.4l0,0
						c0.3,0.5,0.9,1,1.5,0.7c0.9-0.3,0.2-1.6-0.2-2.2c-0.5-0.8-1.1-1.5-2-1c-0.1,0.1-0.4,0.4-0.3,0.6c0,0.1,0.2,0.1,0.3,0.1
						c0.1,0,0.3,0.1,0.4,0.3c0.2,0.3,0.1,0.7-0.2,0.9c-0.3,0.2-0.7,0.1-0.9-0.2c-0.5-0.7,0.2-1.5,0.7-2c0.5-0.4,1-0.5,1.6-0.3
						c0.6,0.2,1.1,0.6,1.5,1.3c0.6,1.1,0.5,2.3-0.4,2.8c-0.2,0.2-0.6,0.2-1,0.3c0,0.3-0.1,0.6-0.1,0.8l0.7,0.5
						c0.3-0.3,0.5-0.5,0.8-0.6c1-0.3,2,0.3,2.4,1.4c0.5,1.4-0.1,2.6-1.2,2.9c-0.7,0.2-1.7,0.2-2-0.6c-0.1-0.4,0-0.7,0.4-0.9
						c0.3-0.1,0.7,0,0.8,0.4c0.1,0.2,0,0.4-0.1,0.5c-0.1,0.1-0.1,0.2-0.1,0.3c0.1,0.2,0.5,0.2,0.6,0.1c1-0.3,0.8-1.4,0.4-2.2
						c-0.1-0.3-0.3-0.8-0.5-1.2c-0.3-0.3-0.6-0.5-1-0.3c-0.6,0.3-0.5,1.1-0.4,1.6l0,0c-0.3-0.5-1-1.4-1.9-1.5
						c0.3,0.7,0.6,1.4,0.9,2.1c0.3,0.7,0.5,1.4,0.7,2.2L82.3,44.3z"/>
				</g>
				<g>
					<path class="st3" d="M80.6,44.8l1.1-0.3c0.8,2.9,1.2,6,1.2,9h-1.1C81.8,50.5,81.4,47.6,80.6,44.8z"/>
					<path d="M83.5,53.5c0-3.1-0.4-6.2-1.2-9.2l0.3-0.1c0.4,1.5,0.7,3,0.9,4.5c0.7-0.5,0.8-1.7,0.8-2.3l0,0c0.2,0.5,0.6,1.2,1.2,1.2
						c1-0.1,0.7-1.4,0.6-2.1c-0.2-0.9-0.4-1.8-1.5-1.6c-0.2,0-0.5,0.2-0.5,0.4c0,0.1,0.1,0.1,0.3,0.2c0.1,0.1,0.2,0.2,0.3,0.4
						c0.1,0.4-0.2,0.7-0.5,0.7c-0.4,0.1-0.7-0.2-0.8-0.5c-0.2-0.9,0.7-1.4,1.4-1.6c0.6-0.2,1.1-0.1,1.6,0.3c0.4,0.3,0.8,0.9,0.9,1.6
						c0.2,1.2-0.3,2.2-1.3,2.4c-0.3,0.1-0.6,0.1-1,0l-0.3,0.8c0.2,0.2,0.3,0.4,0.5,0.6c0.4-0.2,0.7-0.3,1-0.3c1.1,0,1.8,0.9,1.9,2
						c0,1.5-0.8,2.5-2,2.4c-0.7,0-1.7-0.3-1.8-1.1c0-0.4,0.3-0.7,0.6-0.7c0.4,0,0.7,0.2,0.7,0.6c0,0.2-0.1,0.4-0.2,0.5
						c-0.1,0.1-0.2,0.2-0.2,0.3c0,0.2,0.4,0.3,0.6,0.3c1,0,1.1-1.2,1-2c0-0.7-0.1-2-1.1-1.8c-0.6,0.1-0.9,0.9-0.9,1.4l0,0
						c-0.2-0.6-0.6-1.7-1.4-2l0.2,2.3l0.1,2.3H83.5z"/>
				</g>
			</g>
		</g>
	</g>
</g>
</svg>
