<?xml version="1.0" encoding="utf-8"?>
<!-- Generator: Adobe Illustrator 24.1.2, SVG Export Plug-In . SVG Version: 6.00 Build 0)  -->
<svg version="1.1" id="Слой_2" xmlns="http://www.w3.org/2000/svg" xmlns:xlink="http://www.w3.org/1999/xlink" x="0px" y="0px"
	 viewBox="0 0 108 108" style="enable-background:new 0 0 108 108;" xml:space="preserve">
<style type="text/css">
	.st0{fill:#5B5B5B;}
	.st1{fill:none;stroke:#000000;stroke-width:0.75;stroke-miterlimit:10;}
	.st2{fill:#FFFFFF;stroke:#000000;stroke-width:0.25;stroke-miterlimit:10;}
</style>
<g>
	<path class="st0" d="M87.9,66.4h2.6l0.3,1.6H74c-2.3,0-4.3-0.2-6.1-0.7c-1.8-0.4-3.6-1.5-5.6-3.1c-1.9-1.7-3.5-3.8-4.9-6.3
		c-1.3-2.6-2-5.4-2-8.4c0-2.9,0.6-5.2,1.9-7s2.6-3.1,4-3.9c1.5-0.8,2.8-1.3,3.9-1.5c1.1-0.2,2.8-0.3,5-0.3h15.2l0.3,1.6h-3.7
		L87.9,66.4z M71.1,38.5c-5.4,0-8.1,1.9-8.1,5.6c0,2.2,0.5,5.6,1.5,10.2c1,4.7,2,7.6,3,8.8c1,1.2,2.1,2.1,3.3,2.6s3.1,0.7,5.9,0.7
		h3.7l-5.8-28H71.1z"/>
</g>
<rect x="53.5" y="16.5" class="st1" width="39" height="75"/>
<line class="st2" x1="83" y1="31.5" x2="75" y2="23.5"/>
<line class="st2" x1="68.5" y1="29.8" x2="60.5" y2="21.8"/>
<line class="st2" x1="88.2" y1="83.5" x2="80.2" y2="75.5"/>
<line class="st2" x1="68.7" y1="87.8" x2="60.7" y2="79.8"/>
<g>
	<path d="M25.1,38.7h-3.7l0.3-1.6H37c2.2,0,3.9,0.1,5,0.3c1.1,0.2,2.4,0.7,3.9,1.5c1.5,0.8,2.8,2.1,4,3.9s1.9,4.1,1.9,7
		c0,3-0.7,5.8-2,8.4c-1.3,2.6-3,4.7-4.9,6.3c-1.9,1.7-3.8,2.7-5.6,3.1c-1.8,0.4-3.8,0.7-6.1,0.7H16.3l0.3-1.6h2.6L25.1,38.7z
		 M32.6,38.7l-5.8,28h3.7c2.7,0,4.7-0.2,5.9-0.7s2.3-1.3,3.3-2.6c1-1.2,2-4.2,3-8.8c1-4.7,1.5-8.1,1.5-10.2c0-3.7-2.7-5.6-8.1-5.6
		H32.6z"/>
</g>
<line class="st2" x1="73.4" y1="79.3" x2="65.4" y2="71.3"/>
</svg>
