<svg width="21" height="20" viewBox="0 0 21 20" fill="none" xmlns="http://www.w3.org/2000/svg">
<path d="M6.46885 6.63888C6.8997 6.63888 7.24898 6.28319 7.24898 5.84443C7.24898 5.40567 6.8997 5.04999 6.46885 5.04999C6.038 5.04999 5.68872 5.40567 5.68872 5.84443C5.68872 6.28319 6.038 6.63888 6.46885 6.63888Z" fill="url(#paint0_linear)"/>
<path d="M18.149 10.6667L10.184 2.55556C10.0836 2.45124 9.96396 2.3681 9.83197 2.3109C9.69998 2.2537 9.55821 2.22357 9.41477 2.22223H4.00296C3.71358 2.22223 3.43606 2.33929 3.23144 2.54767C3.02682 2.75604 2.91187 3.03866 2.91187 3.33334V8.84445C2.91308 9.13866 3.02884 9.42037 3.23374 9.62778L11.1987 17.7389C11.3 17.8422 11.4204 17.9242 11.5528 17.9801C11.6853 18.036 11.8273 18.0648 11.9707 18.0648C12.114 18.0648 12.256 18.036 12.3885 17.9801C12.5209 17.9242 12.6413 17.8422 12.7426 17.7389L18.1435 12.2389C18.2453 12.1361 18.3262 12.0138 18.3816 11.8791C18.437 11.7444 18.4657 11.6 18.4662 11.4539C18.4667 11.3079 18.439 11.1632 18.3845 11.0281C18.3301 10.8931 18.25 10.7702 18.149 10.6667ZM11.9788 16.9556L4.00296 8.8389V3.33334H9.41477L17.3797 11.4556L11.9788 16.9556Z" fill="url(#paint1_linear)"/>
<defs>
<linearGradient id="paint0_linear" x1="5.68872" y1="5.04999" x2="7.52157" y2="5.48177" gradientUnits="userSpaceOnUse">
<stop stop-color="#6B73FF"/>
<stop offset="1" stop-color="#3C2BFF"/>
</linearGradient>
<linearGradient id="paint1_linear" x1="2.91187" y1="2.22223" x2="21.184" y2="6.52599" gradientUnits="userSpaceOnUse">
<stop stop-color="#6B73FF"/>
<stop offset="1" stop-color="#3C2BFF"/>
</linearGradient>
</defs>
</svg>
