<?xml version="1.0" encoding="utf-8"?>
<!-- Generator: Adobe Illustrator 24.1.2, SVG Export Plug-In . SVG Version: 6.00 Build 0)  -->
<svg version="1.1" xmlns="http://www.w3.org/2000/svg" xmlns:xlink="http://www.w3.org/1999/xlink" x="0px" y="0px"
	 viewBox="0 0 60 60" style="enable-background:new 0 0 60 60;" xml:space="preserve">
<style type="text/css">
	.st0{fill:none;}
	.st1{fill-rule:evenodd;clip-rule:evenodd;fill:#1D1D1B;}
	.st2{fill:none;stroke:#000000;stroke-miterlimit:10;}
</style>
<g id="Слой_4">
	<g>
		<g>
			<path d="M7.1,37.2c2.2,0,4.3,0,6.5-0.1c0.3,0,0.6,0,0.9,0c0.6,0,0.6-1,0-1c-2.2,0-4.3,0-6.5,0.1c-0.3,0-0.6,0-0.9,0
				C6.4,36.3,6.4,37.3,7.1,37.2L7.1,37.2z"/>
		</g>
	</g>
	<g>
		<g>
			<path d="M46.8,36.3c-1.2,0.4-2.5,0.6-3.8,0.9c-0.3,0.1-0.4,0.4-0.3,0.6c0.1,0.3,0.3,0.4,0.6,0.3c1.3-0.3,2.6-0.5,3.8-0.9
				C47.6,37.1,47.4,36.1,46.8,36.3L46.8,36.3z"/>
		</g>
	</g>
	<g>
		<g>
			<path d="M47,37.2c0.1,0,0.2-0.1,0.3-0.1c0,0,0,0,0.1,0c0,0,0,0,0,0c0.1,0-0.1,0-0.1,0c0,0,0.1,0,0.2,0c0.1,0,0.1,0,0.2,0
				c0,0,0.1,0,0.1,0c0.1,0-0.1,0,0,0c0.1,0,0.1,0,0.2,0c0,0,0,0,0,0c0,0-0.1,0-0.1,0c0,0,0.1,0,0.1,0c0,0,0.1,0,0.1,0.1
				c0,0-0.1-0.1,0,0c0,0,0,0,0,0c0,0,0,0.1,0.1,0.1c0,0-0.1-0.1,0,0c0,0,0,0,0,0.1c0,0,0,0,0,0c0,0,0-0.1,0-0.1c0,0,0,0.1,0,0
				c0-0.1,0,0,0,0c0,0,0,0.1,0,0.1c0,0.1,0,0.1,0,0.2c0,0,0-0.1,0-0.1c0,0,0,0,0,0c0,0,0,0.1,0,0.1c0,0.2-0.1,0.3-0.1,0.5
				c0,0,0,0,0,0c0,0.1,0,0,0,0c0,0,0,0.1-0.1,0.1c0,0.1-0.1,0.2-0.1,0.2c-0.1,0.2-0.1,0.6,0.2,0.7c0.2,0.1,0.5,0.1,0.7-0.2
				c0.2-0.3,0.3-0.6,0.4-1c0.1-0.3,0.1-0.7,0-1.1c-0.2-0.7-1.1-1-1.8-0.9c-0.2,0-0.4,0.1-0.6,0.1c-0.2,0.1-0.4,0.3-0.3,0.6
				C46.5,37.1,46.8,37.3,47,37.2L47,37.2z"/>
		</g>
	</g>
	<g>
		<g>
			<path d="M7.1,42c1.9,0,3.9,0,5.8,0c0.3,0,0.6,0,0.8,0c0.6,0,0.6-1,0-1c-1.9,0-3.9,0-5.8,0c-0.3,0-0.6,0-0.8,0
				C6.4,41,6.4,42,7.1,42L7.1,42z"/>
		</g>
	</g>
	<g>
		<g>
			<path d="M6.6,36.7c0,1.4,0,2.8,0,4.2c0,0.2,0,0.4,0,0.6c0,0.6,1,0.6,1,0c0-1.4,0-2.8,0-4.2c0-0.2,0-0.4,0-0.6
				C7.6,36.1,6.6,36.1,6.6,36.7L6.6,36.7z"/>
		</g>
	</g>
	<g>
		<g>
			<path d="M8.5,20.5c-1.1,2.6-1.7,5.4-2,8.2c-0.3,2.8-0.1,5.7,1.5,8.2c0.3,0.5,1.2,0,0.9-0.5c-1.5-2.4-1.6-5.2-1.3-7.9
				c0.3-2.7,0.9-5.2,1.9-7.7C9.7,20.2,8.7,19.9,8.5,20.5L8.5,20.5z"/>
		</g>
	</g>
	<g>
		<g>
			<path d="M9.1,20.2C7.9,20,8,18.2,8,17.4c0-0.8,0-1.7,0.2-2.6c0.2-0.8,0.4-1.2,1.1-1.7c1.8-1.2,4.2-0.7,6.3-0.6
				c1.2,0,2.5,0.1,3.7,0c0.6,0,0.6-1,0-1c-1.1,0-2.2,0-3.2,0c-1.9-0.1-3.9-0.4-5.8,0.1c-1.4,0.4-2.6,1.2-3,2.6
				c-0.4,1.4-0.3,3-0.1,4.5c0.1,1,0.6,2.2,1.7,2.3C9.4,21.2,9.7,20.2,9.1,20.2L9.1,20.2z"/>
		</g>
	</g>
	<g>
		<g>
			<path d="M8.8,21.1c1.7,0.3,3.4,0.4,5.1,0.2c1.2-0.1,2.4-0.3,3.5-1c1.5-0.9,2-2.5,2.2-4.1c0.2-1.4,0.2-2.8,0.1-4.1
				c-0.1-0.6-1.1-0.6-1,0c0.1,1,0.1,1.9,0.1,2.9c-0.1,1.6-0.3,3.4-1.7,4.4c-1.8,1.2-4.3,1.1-6.3,0.9c-0.6,0-1.1-0.1-1.7-0.2
				C8.4,20.1,8.2,21,8.8,21.1L8.8,21.1z"/>
		</g>
	</g>
	<g>
		<g>
			<path d="M19.2,12.6c1.6,0,3.2,0,4.8,0c0.2,0,0.5,0,0.7,0c0.6,0,0.6-1,0-1c-1.6,0-3.2,0-4.8,0c-0.2,0-0.5,0-0.7,0
				C18.6,11.6,18.6,12.6,19.2,12.6L19.2,12.6z"/>
		</g>
	</g>
	<g>
		<g>
			<path d="M39.3,29.5c-3.2-0.8-5.9-3.1-8.3-5.3c-1.5-1.4-3.1-3-4.2-4.7c-0.8-1.3-1.1-2.9-1.4-4.4c-0.1-1-0.2-2-0.2-3
				c0-0.6-1-0.6-1,0c0,2.4,0.4,5.1,1.5,7.3c0.9,1.8,2.5,3.4,3.9,4.8c1.6,1.5,3.3,3,5.1,4.2c1.3,0.9,2.8,1.6,4.3,2
				C39.7,30.6,40,29.7,39.3,29.5L39.3,29.5z"/>
		</g>
	</g>
	<g>
		<g>
			<path d="M39.2,30.5c1.5-0.1,3-0.1,4.5,0.1c0.3,0,0.8,0.1,1,0.2c0.2,0.1,0.2,0.1,0.3,0.2c0.2,0.2,0.4,0.4,0.5,0.7
				c0.6,0.9,0.8,2,0.8,3c0,0.5,0,0.9,0,1.4c0,0.1,0,0.3,0,0.4c0,0.1,0,0.2,0,0.1c0,0.3,0.1,0.5,0.3,0.6c0.2,0.1,0.6-0.1,0.6-0.3
				c0.2-1.7,0.1-3.7-0.7-5.2c-0.5-0.9-1.1-1.7-2.2-1.9c-1-0.2-2.1-0.3-3.1-0.3c-0.7,0-1.4,0-2.2,0C38.6,29.5,38.6,30.5,39.2,30.5
				L39.2,30.5z"/>
		</g>
	</g>
	<g>
		<g>
			<g>
				<g>
					<g>
						<g>
							<path class="st0" d="M9.1,30.5c0.4,0.1,0.9,0.2,1.4,0.3c0.5,0.1,1,0.3,1.4,0.4c0.4,0.2,0.8,0.3,1.1,0.5
								c0.2,0.1,0.2,0.2,0.3,0.2c0,0,0,0,0.1,0.1l0.2,0.2L19,27c-0.2-0.2-0.3-0.3-0.5-0.5L18,26c-0.4-0.3-0.8-0.6-1.2-0.8
								c-0.8-0.5-1.5-0.8-2.3-1.1c-0.7-0.3-1.4-0.5-2.2-0.7c-0.7-0.2-1.4-0.3-2.2-0.5L9.1,30.5z"/>
						</g>
						<path class="st1" d="M14.9,28.2l-0.4,0.7c0.4,0.2,0.7,0.5,1,0.7l0.5-0.6C15.7,28.7,15.3,28.4,14.9,28.2z"/>
						<path class="st1" d="M12.6,27.2l-0.2,0.7c0.4,0.1,0.8,0.3,1.2,0.5l0.3-0.7C13.5,27.5,13.1,27.3,12.6,27.2z"/>
						<path class="st1" d="M10.2,26.6l-0.1,0.7c0.4,0.1,0.9,0.2,1.3,0.3l0.2-0.7C11.1,26.8,10.7,26.7,10.2,26.6z"/>
					</g>
				</g>
				<g>
					<g>
						<g>
							<path class="st0" d="M13.6,32.2c1.1,1.1,2,3,2.4,4.8l7.3-1.8c-0.4-1.5-0.9-2.9-1.5-4.2c-0.7-1.4-1.5-2.7-2.7-4L13.6,32.2z"/>
						</g>
						<path class="st1" d="M19.3,34.2l-0.7,0.3c0.2,0.4,0.3,0.8,0.4,1.3l0.7-0.2C19.6,35.1,19.5,34.6,19.3,34.2z"/>
						<path class="st1" d="M18.3,31.9l-0.7,0.4c0.2,0.4,0.4,0.8,0.6,1.2l0.7-0.3C18.7,32.7,18.5,32.3,18.3,31.9z"/>
						<path class="st1" d="M16.9,29.8l-0.6,0.5c0.3,0.3,0.5,0.7,0.8,1.1l0.6-0.4C17.5,30.6,17.2,30.2,16.9,29.8z"/>
					</g>
				</g>
			</g>
		</g>
	</g>
	<g>
		<g>
			<g>
				<g>
					<g>
						<path class="st0" d="M37.8,35.1c0.4-0.4,0.8-0.7,1.3-1.1c0.1-0.1,0.3-0.2,0.4-0.2c0.1,0,0.2-0.1,0.2-0.1l0.1,0c0,0,0.1,0,0,0
							l-1.3-7.4c-0.4,0.1-0.4,0.1-0.6,0.1l-0.5,0.1c-0.3,0.1-0.6,0.2-0.9,0.3c-0.6,0.2-1.1,0.5-1.6,0.9c-0.8,0.6-1.6,1.2-2.4,1.9
							L37.8,35.1z"/>
					</g>
					<path class="st1" d="M37.9,30.1l0.3,0.7c0.2-0.1,0.5-0.2,0.8-0.3l-0.2-0.7C38.5,29.9,38.2,30,37.9,30.1z"/>
					<path class="st1" d="M36.5,31l0.4,0.6c0.2-0.2,0.5-0.3,0.7-0.5l-0.4-0.7C37,30.6,36.8,30.8,36.5,31z"/>
					<path class="st1" d="M35.3,32l0.5,0.6c0.2-0.2,0.4-0.4,0.6-0.5L36,31.4C35.8,31.6,35.5,31.8,35.3,32z"/>
				</g>
			</g>
		</g>
	</g>
	<g>
		<g>
			<path d="M21.5,13.6c0,0.9,0,1.9,0,2.8c0,0.1,0,0.3,0,0.4c0,0.3,0.2,0.5,0.5,0.5c0.3,0,0.5-0.2,0.5-0.5c0-0.9,0-1.9,0-2.8
				c0-0.1,0-0.3,0-0.4c0-0.3-0.2-0.5-0.5-0.5C21.7,13.1,21.5,13.4,21.5,13.6L21.5,13.6z"/>
		</g>
	</g>
	<g>
		<g>
			<path d="M22.1,20.8c0.7-0.1,1.3-0.2,2-0.4c0.8-0.2,1.6-0.5,2.2-0.9c0.2-0.2,0.3-0.4,0.2-0.7c-0.1-0.2-0.5-0.3-0.7-0.2
				c-0.6,0.4-1.3,0.7-2,0.9c-0.6,0.2-1.3,0.3-1.9,0.4c-0.3,0-0.4,0.4-0.3,0.6C21.6,20.7,21.8,20.8,22.1,20.8L22.1,20.8z"/>
		</g>
	</g>
	<g>
		<g>
			<path d="M24.1,24.1c0.7-0.1,1.5-0.3,2.2-0.4c0.5-0.1,1.1-0.3,1.6-0.6c0.3-0.2,0.6-0.4,0.8-0.8c0.1-0.2,0.1-0.5-0.2-0.7
				c-0.2-0.1-0.6-0.1-0.7,0.2c0,0,0,0,0,0.1c0,0,0,0,0,0.1c0,0.1,0.1-0.1,0,0c-0.2,0.2-0.2,0.2-0.4,0.3c-0.4,0.2-1,0.3-1.4,0.4
				c-0.7,0.2-1.4,0.3-2,0.4c-0.3,0-0.4,0.4-0.3,0.6C23.6,24,23.9,24.1,24.1,24.1L24.1,24.1z"/>
		</g>
	</g>
	<g>
		<g>
			<path d="M27,27.2c0.8-0.2,1.6-0.4,2.3-0.7c0.6-0.2,1.2-0.4,1.6-0.9c0.2-0.3,0.5-0.6,0.4-1c0-0.6-1-0.6-1,0c0,0,0,0.1,0,0
				c0-0.1,0,0.1,0,0.1c0,0.1,0.1-0.1,0,0c0,0-0.1,0.1-0.1,0.1c0,0.1,0,0,0,0c0,0-0.1,0.1-0.1,0.1c-0.1,0.1-0.4,0.2-0.6,0.3
				c0.1,0-0.1,0-0.1,0.1c-0.1,0-0.1,0-0.2,0.1c-0.1,0-0.3,0.1-0.4,0.1c-0.7,0.2-1.4,0.4-2.1,0.6c-0.3,0.1-0.4,0.4-0.3,0.6
				C26.4,27.2,26.7,27.3,27,27.2L27,27.2z"/>
		</g>
	</g>
	<g>
		<g>
			<path d="M30.1,30.1c0.8-0.2,1.5-0.5,2.3-0.8c0.5-0.2,1.1-0.5,1.5-0.9c0.2-0.3,0.5-0.6,0.6-0.9c0.1-0.3-0.1-0.5-0.3-0.6
				c-0.3-0.1-0.5,0.1-0.6,0.3c0-0.1,0.1-0.1,0,0c0,0.1-0.1,0.1-0.1,0.2c-0.1,0.2-0.2,0.3-0.3,0.4c-0.3,0.3-0.8,0.6-1.2,0.7
				c-0.6,0.3-1.3,0.5-2,0.7C29.2,29.3,29.5,30.2,30.1,30.1L30.1,30.1z"/>
		</g>
	</g>
	<g>
		<g>
			<path d="M29.1,29.6c0.3,0.3,0.6,0.6,0.9,0.9c0,0,0.1,0.1,0.1,0.1c0.1,0.1,0.2,0.1,0.4,0.1c0.1,0,0.3-0.1,0.4-0.1
				c0.1-0.1,0.2-0.2,0.1-0.4c0-0.1-0.1-0.3-0.1-0.4c-0.3-0.3-0.6-0.6-0.9-0.9c0,0-0.1-0.1-0.1-0.1c-0.1-0.1-0.2-0.1-0.4-0.1
				c-0.1,0-0.3,0.1-0.4,0.1C29,28.9,29,29.1,29,29.2C29,29.3,29,29.5,29.1,29.6L29.1,29.6z"/>
		</g>
	</g>
	<g>
		<g>
			<path d="M25.8,26.6c0.3,0.3,0.6,0.6,0.9,0.9c0,0,0.1,0.1,0.1,0.1c0.1,0.1,0.2,0.1,0.4,0.1c0.1,0,0.3-0.1,0.4-0.1
				c0.1-0.1,0.2-0.2,0.1-0.4c0-0.1-0.1-0.3-0.1-0.4c-0.3-0.3-0.6-0.6-0.9-0.9c0,0-0.1-0.1-0.1-0.1c-0.1-0.1-0.2-0.1-0.4-0.1
				c-0.1,0-0.3,0.1-0.4,0.1c-0.1,0.1-0.2,0.2-0.1,0.4C25.6,26.4,25.7,26.5,25.8,26.6L25.8,26.6z"/>
		</g>
	</g>
	<g>
		<g>
			<path d="M22.9,23.5c0.3,0.3,0.6,0.6,0.9,0.9c0,0,0.1,0.1,0.1,0.1c0.1,0.1,0.2,0.1,0.4,0.1c0.1,0,0.3-0.1,0.4-0.1
				c0.1-0.1,0.2-0.2,0.1-0.4c0-0.1-0.1-0.3-0.1-0.4c-0.3-0.3-0.6-0.6-0.9-0.9c0,0-0.1-0.1-0.1-0.1c-0.1-0.1-0.2-0.1-0.4-0.1
				c-0.1,0-0.3,0.1-0.4,0.1c-0.1,0.1-0.2,0.2-0.1,0.4C22.8,23.2,22.8,23.4,22.9,23.5L22.9,23.5z"/>
		</g>
	</g>
	<g>
		<g>
			<path d="M21.1,20.1c0.3,0.3,0.6,0.6,0.9,0.9c0,0,0.1,0.1,0.1,0.1c0.1,0.1,0.2,0.1,0.4,0.1c0.1,0,0.3-0.1,0.4-0.1
				c0.1-0.1,0.2-0.2,0.1-0.4c0-0.1-0.1-0.3-0.1-0.4c-0.3-0.3-0.6-0.6-0.9-0.9c0,0-0.1-0.1-0.1-0.1c-0.1-0.1-0.2-0.1-0.4-0.1
				c-0.1,0-0.3,0.1-0.4,0.1C21,19.5,21,19.6,21,19.7C21,19.9,21,20,21.1,20.1L21.1,20.1z"/>
		</g>
	</g>
</g>
<g id="Слой_3">
	<g>
		<g>
			<path d="M13.8,45.4c4.4,0.2,8.8,0.4,13.2,0.4c3.9,0.1,7.8,0.1,11.7,0.1c1.9,0,3.9-0.1,5.8-0.1c1.8-0.1,3.6-0.1,5.4-0.4
				c2.5-0.4,5.6-1.4,7.1-3.5c0.4-0.5-0.5-1-0.9-0.5c0,0.1,0.1-0.1,0,0c-0.1,0.1-0.2,0.2-0.3,0.3c-0.3,0.3-0.6,0.6-1,0.8
				c-1.3,1-2.9,1.5-4.5,1.8c-1.8,0.3-3.7,0.4-5.6,0.4c-1.9,0.1-3.7,0.1-5.6,0.1c-7,0.1-14-0.1-20.9-0.3c-1.5-0.1-3.1-0.1-4.6-0.2
				C13.2,44.4,13.2,45.4,13.8,45.4L13.8,45.4z"/>
		</g>
	</g>
	<g>
		<g>
			<path d="M13.8,49.2c4.4,0.2,8.8,0.4,13.2,0.4c3.9,0.1,7.8,0.1,11.7,0.1c1.9,0,3.9-0.1,5.8-0.1c1.8-0.1,3.6-0.1,5.4-0.4
				c2.5-0.4,5.6-1.4,7.1-3.5c0.4-0.5-0.5-1-0.9-0.5c0,0.1,0.1-0.1,0,0c-0.1,0.1-0.2,0.2-0.3,0.3c-0.3,0.3-0.6,0.6-1,0.8
				c-1.3,1-2.9,1.5-4.5,1.8c-1.8,0.3-3.7,0.4-5.6,0.4c-1.9,0.1-3.7,0.1-5.6,0.1c-7,0.1-14-0.1-20.9-0.3c-1.5-0.1-3.1-0.1-4.6-0.2
				C13.2,48.2,13.2,49.2,13.8,49.2L13.8,49.2z"/>
		</g>
	</g>
	<g>
		<g>
			<path d="M32.9,35.4c2.3,1.5,4.6,3.1,6.9,4.6c-0.1-0.2-0.1-0.5-0.2-0.7c-0.3,0.4-0.5,0.8-0.8,1.2c0.2-0.1,0.5-0.1,0.7-0.2
				c-2.2-1.5-4.4-3-6.6-4.4c-0.3-0.2-0.4-0.3-0.8-0.2c-0.7,0.2-1.4,0.4-2.1,0.5c-1.3,0.3-2.7,0.5-4,0.5c-1.4,0.1-3,0.1-4.4-0.3
				c-1.9-0.6-3.7-2-5.1-3.5c-0.2-0.3-0.6-0.1-0.8,0.1c-1.7,2.3-2,5.3-2.2,8.1c-0.2,2.5-0.2,5-0.1,7.6c0,0.6,1,0.6,1,0
				c-0.1-2.4-0.1-4.8,0.1-7.2c0.2-2.7,0.4-5.7,2.1-8c-0.3,0-0.5,0.1-0.8,0.1c1.4,1.5,3.2,2.8,5.1,3.6c1.5,0.6,3.3,0.6,4.9,0.5
				c1.5-0.1,3-0.3,4.5-0.6c0.8-0.2,1.6-0.3,2.3-0.6c-0.1,0-0.3,0-0.4-0.1c2.3,1.5,4.6,3.1,6.9,4.6c0.2,0.2,0.5,0,0.7-0.2
				c0.3-0.4,0.5-0.8,0.8-1.2c0.2-0.2,0-0.5-0.2-0.7c-2.3-1.5-4.6-3.1-6.9-4.6C32.9,34.2,32.4,35,32.9,35.4L32.9,35.4z"/>
		</g>
	</g>
	<g>
		<g>
			<path d="M38.2,34.5c-0.9-0.7-1.7-1.5-2.6-2.2c-0.3-0.2-0.7-0.5-1.1-0.7c-0.3-0.2-0.7-0.4-1-0.4c-0.4,0-0.7,0.3-0.8,0.6
				c-0.1,0.2,0,0.5,0,0.7c0-0.1,0-0.2,0,0c0,0.1,0,0.2,0,0.3c0,0.3,0,0.5,0,0.8c0,0.5,0,0.9,0,1.4c0,0.6,1,0.6,1,0
				c0-0.8,0.1-1.6,0.1-2.4c0-0.1,0-0.2,0-0.3c0,0.2,0,0,0-0.1c0-0.1,0,0,0,0c0-0.1,0,0,0,0c0,0-0.1,0.1-0.1,0.1c0,0-0.1,0-0.1,0
				c0,0,0.1,0,0.1,0c0.1,0.1,0.3,0.1,0.4,0.2c0.3,0.2,0.7,0.4,1,0.6c0.9,0.6,1.7,1.4,2.6,2.1c0.2,0.2,0.5,0.2,0.7,0
				C38.4,35,38.4,34.7,38.2,34.5L38.2,34.5z"/>
		</g>
	</g>
	<g>
		<g>
			<path d="M57.2,41.6c0-0.6-0.2-1.4-0.7-1.7c-0.3-0.2-0.6-0.2-0.9-0.2c-0.1,0-0.3,0-0.4,0c0.2,0,0.1,0,0.1,0
				c-1.3,0.1-2.5,0-3.8-0.1c-2.3-0.2-4.6-0.7-6.8-1.5c-2.4-0.8-4.4-1.9-6.3-3.6c-0.5-0.4-1.2,0.3-0.7,0.7c1.7,1.4,3.4,2.5,5.5,3.3
				c2.1,0.9,4.4,1.5,6.6,1.8c1.6,0.2,3.2,0.4,4.9,0.4c0.3,0,0.5,0,0.8,0c0.2,0,0.5-0.1,0.7,0.1c0.2,0.2,0.2,0.6,0.2,0.8
				C56.2,42.3,57.2,42.3,57.2,41.6L57.2,41.6z"/>
		</g>
	</g>
	<g>
		<g>
			<path d="M56.2,41.6c0,1.1,0,2.2,0,3.4c0,0.2,0,0.3,0,0.5c0,0.6,1,0.6,1,0c0-1.1,0-2.2,0-3.4c0-0.2,0-0.3,0-0.5
				C57.2,41,56.2,41,56.2,41.6L56.2,41.6z"/>
		</g>
	</g>
	<path class="st2" d="M13.9,40.8c0,0,0.5-1.8,1.6-2.2c0.4-0.1,0.8-0.2,1.2-0.1c0.7,0.1,1.3,0.2,1.9,0.3c0.4,0,0.7,0,0.9-0.1
		c1.1-0.3,1.1-2.1,1.1-2.1"/>
</g>
</svg>
