<?xml version="1.0" encoding="utf-8"?>
<!-- Generator: Adobe Illustrator 24.1.2, SVG Export Plug-In . SVG Version: 6.00 Build 0)  -->
<svg version="1.1" id="Слой_3" xmlns="http://www.w3.org/2000/svg" xmlns:xlink="http://www.w3.org/1999/xlink" x="0px" y="0px"
	 viewBox="0 0 60 60" style="enable-background:new 0 0 60 60;" xml:space="preserve">
<style type="text/css">
	.st0{fill:#FFFFFF;}
</style>
<g>
	<line class="st0" x1="5" y1="38" x2="11" y2="9"/>
	<g>
		<path d="M5.72,38.2c1.75-8.48,3.51-16.96,5.26-25.43c0.25-1.19,0.49-2.38,0.74-3.57c0.19-0.94-1.25-1.34-1.45-0.4
			c-1.75,8.48-3.51,16.96-5.26,25.43c-0.25,1.19-0.49,2.38-0.74,3.57C4.08,38.74,5.53,39.15,5.72,38.2L5.72,38.2z"/>
	</g>
</g>
<g>
	<g>
		<path d="M19.35,2.62c-0.92,1.42-2.27,2.77-3.77,3.67c-1.47,0.89-3.12,1.56-4.78,1.98c-0.93,0.24-0.54,1.69,0.4,1.45
			c3.78-0.97,7.29-3.03,9.45-6.34C21.18,2.57,19.88,1.81,19.35,2.62L19.35,2.62z"/>
	</g>
</g>
<g>
	<g>
		<path d="M26,2.25c-1.75,0-3.5,0-5.26,0c-0.25,0-0.5,0-0.74,0c-0.97,0-0.97,1.5,0,1.5c1.75,0,3.5,0,5.26,0c0.25,0,0.5,0,0.74,0
			C26.97,3.75,26.97,2.25,26,2.25L26,2.25z"/>
	</g>
</g>
<g>
	<g>
		<path d="M35,8.25c0.36,0.05,0.11,0.02,0.03,0c-0.13-0.02-0.27-0.05-0.4-0.07C34.22,8.1,33.82,8,33.42,7.88
			c-1.2-0.35-2.36-0.84-3.39-1.55c-1.35-0.94-2.51-2.32-3.38-3.71c-0.51-0.82-1.81-0.06-1.3,0.76c1.02,1.61,2.35,3.16,3.92,4.24
			C30.93,8.77,33,9.49,35,9.75C35.4,9.8,35.75,9.37,35.75,9C35.75,8.55,35.4,8.3,35,8.25L35,8.25z"/>
	</g>
</g>
<g>
	<g>
		<path d="M23.72,20.8c-0.87-5.24-1.75-10.49-2.62-15.73c-0.13-0.76-0.25-1.51-0.38-2.27c-0.16-0.95-1.6-0.55-1.45,0.4
			c0.87,5.24,1.75,10.49,2.62,15.73c0.13,0.76,0.25,1.51,0.38,2.27C22.44,22.15,23.88,21.75,23.72,20.8L23.72,20.8z"/>
	</g>
</g>
<g>
	<g>
		<path d="M25.28,2.8c-0.87,5.24-1.75,10.49-2.62,15.73c-0.13,0.76-0.25,1.51-0.38,2.27c-0.16,0.94,1.29,1.35,1.45,0.4
			c0.87-5.24,1.75-10.49,2.62-15.73c0.13-0.76,0.25-1.51,0.38-2.27C26.88,2.26,25.44,1.85,25.28,2.8L25.28,2.8z"/>
	</g>
</g>
<g>
	<g>
		<path d="M16.65,10.38c1.17-2.05,2.34-4.09,3.51-6.14c0.16-0.29,0.33-0.58,0.49-0.86c0.48-0.84-0.82-1.6-1.3-0.76
			c-1.17,2.05-2.34,4.09-3.51,6.14c-0.16,0.29-0.33,0.58-0.49,0.86C14.87,10.46,16.17,11.22,16.65,10.38L16.65,10.38z"/>
	</g>
</g>
<g>
	<g>
		<path d="M20.2,10.28c-1.17-0.29-2.34-0.58-3.51-0.88c-0.16-0.04-0.33-0.08-0.49-0.12c-0.38-0.1-0.83,0.12-0.92,0.52
			c-0.09,0.39,0.12,0.82,0.52,0.92c1.17,0.29,2.34,0.58,3.51,0.88c0.16,0.04,0.33,0.08,0.49,0.12c0.38,0.1,0.83-0.12,0.92-0.52
			C20.81,10.81,20.61,10.38,20.2,10.28L20.2,10.28z"/>
	</g>
</g>
<g>
	<g>
		<path d="M17.65,13.38c0.29-0.58,0.58-1.17,0.88-1.75c0.04-0.08,0.08-0.17,0.12-0.25c0.09-0.18,0.13-0.38,0.08-0.58
			c-0.05-0.17-0.18-0.36-0.34-0.45c-0.34-0.18-0.84-0.11-1.03,0.27c-0.29,0.58-0.58,1.17-0.88,1.75c-0.04,0.08-0.08,0.17-0.12,0.25
			c-0.09,0.18-0.13,0.38-0.08,0.58c0.05,0.17,0.18,0.36,0.34,0.45C16.96,13.83,17.46,13.75,17.65,13.38L17.65,13.38z"/>
	</g>
</g>
<g>
	<g>
		<path d="M23.65,21.62c-1.75-2.63-3.5-5.25-5.25-7.88c-0.25-0.37-0.5-0.75-0.75-1.12c-0.53-0.8-1.83-0.05-1.3,0.76
			c1.75,2.63,3.5,5.25,5.25,7.88c0.25,0.37,0.5,0.75,0.75,1.12C22.89,23.18,24.19,22.43,23.65,21.62L23.65,21.62z"/>
	</g>
</g>
<g>
	<g>
		<path d="M28.35,12.62c-1.75,2.63-3.5,5.25-5.25,7.88c-0.25,0.37-0.5,0.75-0.75,1.12c-0.54,0.81,0.76,1.56,1.3,0.76
			c1.75-2.63,3.5-5.25,5.25-7.88c0.25-0.37,0.5-0.75,0.75-1.12C30.18,12.57,28.89,11.82,28.35,12.62L28.35,12.62z"/>
	</g>
</g>
<g>
	<g>
		<path d="M25.35,3.38c0.88,2.05,1.75,4.09,2.63,6.14c0.12,0.29,0.25,0.58,0.37,0.86c0.16,0.37,0.71,0.46,1.03,0.27
			c0.39-0.23,0.43-0.65,0.27-1.03c-0.88-2.05-1.75-4.09-2.63-6.14c-0.12-0.29-0.25-0.58-0.37-0.86c-0.16-0.37-0.71-0.46-1.03-0.27
			C25.24,2.58,25.19,3,25.35,3.38L25.35,3.38z"/>
	</g>
</g>
<g>
	<line class="st0" x1="10" y1="39" x2="5" y2="38"/>
	<g>
		<path d="M10.2,38.28c-1.46-0.29-2.91-0.58-4.37-0.87c-0.21-0.04-0.42-0.08-0.63-0.13c-0.38-0.08-0.83,0.11-0.92,0.52
			c-0.08,0.37,0.11,0.84,0.52,0.92c1.46,0.29,2.91,0.58,4.37,0.87c0.21,0.04,0.42,0.08,0.63,0.13c0.38,0.08,0.83-0.11,0.92-0.52
			C10.81,38.83,10.61,38.36,10.2,38.28L10.2,38.28z"/>
	</g>
</g>
<g>
	<line class="st0" x1="13" y1="23" x2="10" y2="39"/>
	<g>
		<path d="M12.28,22.8c-0.87,4.66-1.75,9.32-2.62,13.98c-0.13,0.67-0.25,1.35-0.38,2.02c-0.18,0.94,1.27,1.35,1.45,0.4
			c0.87-4.66,1.75-9.32,2.62-13.98c0.13-0.67,0.25-1.35,0.38-2.02C13.9,22.26,12.45,21.85,12.28,22.8L12.28,22.8z"/>
	</g>
</g>
<g>
	<g>
		<path d="M12.5,43.25c1.46,0,2.92,0,4.38,0c0.21,0,0.41,0,0.62,0c0.39,0,0.77-0.34,0.75-0.75c-0.02-0.41-0.33-0.75-0.75-0.75
			c-1.46,0-2.92,0-4.38,0c-0.21,0-0.41,0-0.62,0c-0.39,0-0.77,0.34-0.75,0.75C11.77,42.91,12.08,43.25,12.5,43.25L12.5,43.25z"/>
	</g>
</g>
<g>
	<g>
		<path d="M11.78,8.7c0.62,1.82,0.81,3.84,0.92,5.75c0.2,3.46,0.02,6.97-0.1,10.43C12.41,30.59,12.12,36.3,11.75,42
			c-0.06,0.96,1.44,0.96,1.5,0c0.38-5.84,0.67-11.68,0.86-17.52c0.17-5.23,0.82-11.13-0.89-16.18C12.92,7.39,11.47,7.78,11.78,8.7
			L11.78,8.7z"/>
	</g>
</g>
<g>
	<line class="st0" x1="16" y1="16.5" x2="18.5" y2="16.5"/>
	<g>
		<path d="M16,17.25c0.73,0,1.46,0,2.19,0c0.1,0,0.21,0,0.31,0c0.39,0,0.77-0.34,0.75-0.75c-0.02-0.41-0.33-0.75-0.75-0.75
			c-0.73,0-1.46,0-2.19,0c-0.1,0-0.21,0-0.31,0c-0.39,0-0.77,0.34-0.75,0.75C15.27,16.91,15.58,17.25,16,17.25L16,17.25z"/>
	</g>
</g>
<g>
	<g>
		<path d="M14.5,31.25c1.17,0,2.34,0,3.5,0c0.17,0,0.33,0,0.5,0c0.39,0,0.77-0.34,0.75-0.75c-0.02-0.41-0.33-0.75-0.75-0.75
			c-1.17,0-2.34,0-3.5,0c-0.17,0-0.33,0-0.5,0c-0.39,0-0.77,0.34-0.75,0.75C13.77,30.91,14.08,31.25,14.5,31.25L14.5,31.25z"/>
	</g>
</g>
<g>
	<g>
		<path d="M19.25,32.5c0-0.58,0-1.17,0-1.75c0-0.08,0-0.17,0-0.25c0-0.39-0.34-0.77-0.75-0.75c-0.41,0.02-0.75,0.33-0.75,0.75
			c0,0.58,0,1.17,0,1.75c0,0.08,0,0.17,0,0.25c0,0.39,0.34,0.77,0.75,0.75C18.91,33.23,19.25,32.92,19.25,32.5L19.25,32.5z"/>
	</g>
</g>
<g>
	<g>
		<path d="M15,33.25c0.88,0,1.75,0,2.63,0c0.12,0,0.25,0,0.37,0c0.39,0,0.77-0.34,0.75-0.75c-0.02-0.41-0.33-0.75-0.75-0.75
			c-0.88,0-1.75,0-2.63,0c-0.12,0-0.25,0-0.37,0c-0.39,0-0.77,0.34-0.75,0.75C14.27,32.91,14.58,33.25,15,33.25L15,33.25z"/>
	</g>
</g>
<g>
	<g>
		<path d="M29.53,12.47c-0.58-0.58-1.17-1.17-1.75-1.75c-0.08-0.08-0.17-0.17-0.25-0.25c-0.28-0.28-0.79-0.3-1.06,0
			c-0.27,0.3-0.3,0.76,0,1.06c0.58,0.58,1.17,1.17,1.75,1.75c0.08,0.08,0.17,0.17,0.25,0.25c0.28,0.28,0.79,0.3,1.06,0
			C29.81,13.23,29.83,12.77,29.53,12.47L29.53,12.47z"/>
	</g>
</g>
<g>
	<line class="st0" x1="29" y1="10" x2="25" y2="11"/>
	<g>
		<path d="M28.8,9.28c-1.17,0.29-2.34,0.58-3.51,0.88c-0.16,0.04-0.33,0.08-0.49,0.12c-0.38,0.1-0.65,0.54-0.52,0.92
			c0.13,0.39,0.51,0.63,0.92,0.52c1.17-0.29,2.34-0.58,3.51-0.88c0.16-0.04,0.33-0.08,0.49-0.12c0.38-0.1,0.65-0.54,0.52-0.92
			C29.6,9.41,29.21,9.17,28.8,9.28L28.8,9.28z"/>
	</g>
</g>
<g>
	<line class="st0" x1="35" y1="9" x2="36" y2="15"/>
	<g>
		<path d="M34.28,9.2c0.29,1.75,0.58,3.5,0.87,5.24c0.04,0.25,0.08,0.5,0.13,0.76c0.07,0.4,0.56,0.62,0.92,0.52
			c0.42-0.12,0.59-0.52,0.52-0.92c-0.29-1.75-0.58-3.5-0.87-5.24c-0.04-0.25-0.08-0.5-0.13-0.76c-0.07-0.4-0.56-0.62-0.92-0.52
			C34.38,8.39,34.21,8.8,34.28,9.2L34.28,9.2z"/>
	</g>
</g>
<g>
	<g>
		<path d="M32.77,8.68c-0.58,1.17-0.79,2.45-0.9,3.73c-0.09,1.02-0.13,2.06-0.12,3.09c0.01,0.96,1.51,0.97,1.5,0
			c-0.01-0.96,0.03-1.92,0.1-2.88c0.05-0.71,0.13-1.42,0.32-2.11c0.08-0.3,0.19-0.59,0.3-0.88c0.05-0.14-0.03,0.07,0,0
			c0.01-0.03,0.03-0.06,0.04-0.1c0.01-0.03,0.03-0.07,0.05-0.1c0.18-0.36,0.1-0.81-0.27-1.03C33.47,8.22,32.95,8.32,32.77,8.68
			L32.77,8.68z"/>
	</g>
</g>
<g>
	<g>
		<path d="M40.75,17c0-0.06,0.04-0.11,0.05-0.16c-0.01,0.07-0.04,0.02-0.01,0.03c0.02,0.01-0.1,0.09-0.06,0.06
			c-0.2,0.15-0.42,0.25-0.65,0.32c-0.66,0.23-1.35,0.35-2.05,0.42c-1.6,0.15-3.31,0.13-4.87-0.34c-0.24-0.07-0.48-0.16-0.7-0.28
			c-0.04-0.02-0.21-0.14-0.17-0.1c-0.03-0.02-0.05-0.06-0.08-0.08c-0.01-0.01-0.03,0.04-0.02-0.03c-0.01,0.06,0.02,0.21,0.02,0.28
			c0,0.01-0.04,0.03,0.02-0.03c0.08-0.06,0.28-0.2,0.46-0.28c1.4-0.61,3.13-0.62,4.62-0.55c0.85,0.04,1.69,0.15,2.51,0.39
			c0.26,0.08,0.51,0.17,0.74,0.31c0.15,0.09,0.1,0.08,0.2,0.16c0.09,0.06-0.03-0.01-0.01-0.02C40.8,17.09,40.76,17.18,40.75,17
			c0.06,0.96,1.56,0.97,1.5,0c-0.1-1.65-2.56-1.98-3.8-2.13c-2.01-0.25-4.34-0.23-6.24,0.55c-0.6,0.25-1.26,0.62-1.42,1.3
			c-0.17,0.7,0.32,1.27,0.88,1.61c0.73,0.44,1.62,0.62,2.45,0.74c1.15,0.17,2.32,0.22,3.48,0.14c1.08-0.07,2.19-0.22,3.2-0.63
			c0.71-0.29,1.4-0.75,1.45-1.58C42.31,16.04,40.81,16.04,40.75,17z"/>
	</g>
</g>
<g>
	<g>
		<path d="M31.12,21.15c1.61,0.83,3.51,1.48,5.33,1.46c1.85-0.02,3.81-0.56,5.42-1.46c0.84-0.47,0.09-1.77-0.76-1.3
			c-1.39,0.78-3.08,1.24-4.67,1.26c-1.56,0.01-3.2-0.55-4.58-1.26C31.02,19.41,30.26,20.71,31.12,21.15L31.12,21.15z"/>
	</g>
</g>
<g>
	<g>
		<path d="M32.25,20.5c0-0.88,0-1.75,0-2.63c0-0.12,0-0.25,0-0.37c0-0.39-0.34-0.77-0.75-0.75c-0.41,0.02-0.75,0.33-0.75,0.75
			c0,0.88,0,1.75,0,2.63c0,0.12,0,0.25,0,0.37c0,0.39,0.34,0.77,0.75,0.75C31.91,21.23,32.25,20.92,32.25,20.5L32.25,20.5z"/>
	</g>
</g>
<g>
	<g>
		<path d="M42.25,20.5c0-0.88,0-1.75,0-2.63c0-0.12,0-0.25,0-0.37c0-0.39-0.34-0.77-0.75-0.75c-0.41,0.02-0.75,0.33-0.75,0.75
			c0,0.88,0,1.75,0,2.63c0,0.12,0,0.25,0,0.37c0,0.39,0.34,0.77,0.75,0.75C41.91,21.23,42.25,20.92,42.25,20.5L42.25,20.5z"/>
	</g>
</g>
<g>
	<g>
		<path d="M18.25,50.5c0.32-3.71,0.85-7.41,1.51-11.07c0.56-3.15,1.23-6.28,2.15-9.35c0.81-2.71,1.66-6.11,4.2-7.7
			c1.55-0.97,3.58-1.35,5.39-1.13c0.96,0.12,0.95-1.38,0-1.5c-1.63-0.2-3.42,0.09-4.92,0.71c-2.91,1.2-4.2,3.71-5.23,6.52
			c-2.2,6.01-3.25,12.48-4.07,18.8c-0.2,1.57-0.39,3.14-0.53,4.71C16.67,51.46,18.17,51.46,18.25,50.5L18.25,50.5z"/>
	</g>
</g>
<g>
	<g>
		<path d="M41.5,21.25c1.53,0,3.12,0.34,4.53,0.91c2.96,1.21,4.07,3.61,4.94,6.52c1.7,5.66,2.31,11.67,2.63,17.55
			c0.08,1.42,0.14,2.85,0.15,4.27c0.01,0.96,1.51,0.97,1.5,0c-0.03-4.26-0.37-8.54-0.93-12.76c-0.44-3.34-1.03-6.69-2.04-9.91
			c-0.9-2.84-2.08-5.29-4.86-6.68c-1.79-0.9-3.91-1.4-5.92-1.4C40.53,19.75,40.53,21.25,41.5,21.25L41.5,21.25z"/>
	</g>
</g>
<g>
	<g>
		<path d="M17.5,51.25c1.75,0,3.5,0,5.26,0c0.25,0,0.5,0,0.74,0c0.97,0,0.97-1.5,0-1.5c-1.75,0-3.5,0-5.26,0c-0.25,0-0.5,0-0.74,0
			C16.53,49.75,16.53,51.25,17.5,51.25L17.5,51.25z"/>
	</g>
</g>
<g>
	<g>
		<path d="M54.5,49.75c-1.75,0-3.5,0-5.26,0c-0.25,0-0.5,0-0.74,0c-0.97,0-0.97,1.5,0,1.5c1.75,0,3.5,0,5.26,0c0.25,0,0.5,0,0.74,0
			C55.47,51.25,55.47,49.75,54.5,49.75L54.5,49.75z"/>
	</g>
</g>
<g>
	<g>
		<path d="M45.75,35.5c0.58,4.38,1.17,8.76,1.75,13.14c0.08,0.62,0.17,1.24,0.25,1.86c0.13,0.94,1.63,0.96,1.5,0
			c-0.58-4.38-1.17-8.76-1.75-13.14c-0.08-0.62-0.17-1.24-0.25-1.86C47.12,34.56,45.62,34.54,45.75,35.5L45.75,35.5z"/>
	</g>
</g>
<g>
	<g>
		<path d="M24.22,50.7c0.87-4.37,1.75-8.74,2.62-13.11c0.13-0.63,0.25-1.26,0.38-1.89c0.19-0.94-1.26-1.35-1.45-0.4
			c-0.87,4.37-1.75,8.74-2.62,13.11c-0.13,0.63-0.25,1.26-0.38,1.89C22.59,51.24,24.03,51.65,24.22,50.7L24.22,50.7z"/>
	</g>
</g>
<g>
	<g>
		<path d="M24.79,22.22c1.87,5.36,1.63,11.06,1.48,16.65c-0.1,3.88-0.27,7.76-0.53,11.63c-0.06,0.96,1.44,0.96,1.5,0
			c0.27-4,0.44-8,0.54-12c0.14-5.61,0.32-11.3-1.55-16.68C25.93,20.91,24.48,21.3,24.79,22.22L24.79,22.22z"/>
	</g>
</g>
<g>
	<g>
		<path d="M46.25,50.5c0-3.98,0.06-7.96,0.17-11.94c0.08-3.06,0.19-6.11,0.4-9.16c0.15-2.12,0.47-4.64,1.33-6.51
			c0.4-0.87-0.89-1.63-1.3-0.76c-0.87,1.87-1.22,4.01-1.43,6.05c-0.34,3.2-0.39,6.45-0.48,9.67c-0.12,4.22-0.19,8.44-0.19,12.67
			C44.75,51.47,46.25,51.47,46.25,50.5L46.25,50.5z"/>
	</g>
</g>
<g>
	<g>
		<path d="M26.12,51.15c3.03,1.69,6.71,1.72,10.07,1.73c3.15,0.01,6.9,0,9.68-1.73c0.82-0.51,0.07-1.81-0.76-1.3
			c-2.55,1.58-6.04,1.53-8.93,1.52c-3.09-0.01-6.54,0.03-9.32-1.52C26.03,49.38,25.28,50.68,26.12,51.15L26.12,51.15z"/>
	</g>
</g>
<g>
	<g>
		<path d="M26.75,51.5c0,0.58,0,1.17,0,1.75c0,0.08,0,0.17,0,0.25c0,0.39,0.34,0.77,0.75,0.75c0.41-0.02,0.75-0.33,0.75-0.75
			c0-0.58,0-1.17,0-1.75c0-0.08,0-0.17,0-0.25c0-0.39-0.34-0.77-0.75-0.75C27.09,50.77,26.75,51.08,26.75,51.5L26.75,51.5z"/>
	</g>
</g>
<g>
	<g>
		<path d="M43.75,51.5c0,0.58,0,1.17,0,1.75c0,0.08,0,0.17,0,0.25c0,0.39,0.34,0.77,0.75,0.75c0.41-0.02,0.75-0.33,0.75-0.75
			c0-0.58,0-1.17,0-1.75c0-0.08,0-0.17,0-0.25c0-0.39-0.34-0.77-0.75-0.75C44.09,50.77,43.75,51.08,43.75,51.5L43.75,51.5z"/>
	</g>
</g>
<g>
	<g>
		<path d="M44.12,52.85c-2.31,1.33-5.47,1.15-8.03,1.12c-2.82-0.03-5.75-0.09-8.39-1.2c-0.89-0.37-1.28,1.08-0.4,1.45
			c2.84,1.19,6.06,1.23,9.09,1.25c2.75,0.02,6.01,0.1,8.49-1.33C45.71,53.66,44.96,52.37,44.12,52.85L44.12,52.85z"/>
	</g>
</g>
<g>
	<g>
		<path d="M17.75,50.5c0,0.58,0,1.17,0,1.75c0,0.08,0,0.17,0,0.25c0,0.39,0.34,0.77,0.75,0.75c0.41-0.02,0.75-0.33,0.75-0.75
			c0-0.58,0-1.17,0-1.75c0-0.08,0-0.17,0-0.25c0-0.39-0.34-0.77-0.75-0.75C18.09,49.77,17.75,50.08,17.75,50.5L17.75,50.5z"/>
	</g>
</g>
<g>
	<g>
		<path d="M21.75,50.5c0,0.58,0,1.17,0,1.75c0,0.08,0,0.17,0,0.25c0,0.39,0.34,0.77,0.75,0.75c0.41-0.02,0.75-0.33,0.75-0.75
			c0-0.58,0-1.17,0-1.75c0-0.08,0-0.17,0-0.25c0-0.39-0.34-0.77-0.75-0.75C22.09,49.77,21.75,50.08,21.75,50.5L21.75,50.5z"/>
	</g>
</g>
<g>
	<g>
		<path d="M18.5,53.25c1.17,0,2.34,0,3.5,0c0.17,0,0.33,0,0.5,0c0.39,0,0.77-0.34,0.75-0.75c-0.02-0.41-0.33-0.75-0.75-0.75
			c-1.17,0-2.34,0-3.5,0c-0.17,0-0.33,0-0.5,0c-0.39,0-0.77,0.34-0.75,0.75C17.77,52.91,18.08,53.25,18.5,53.25L18.5,53.25z"/>
	</g>
</g>
<g>
	<g>
		<path d="M48.75,51c0,0.44,0,0.88,0,1.31c0,0.06,0,0.12,0,0.19c0,0.19,0.08,0.39,0.22,0.53c0.13,0.13,0.34,0.23,0.53,0.22
			c0.19-0.01,0.4-0.07,0.53-0.22c0.13-0.15,0.22-0.33,0.22-0.53c0-0.44,0-0.88,0-1.31c0-0.06,0-0.12,0-0.19
			c0-0.19-0.08-0.39-0.22-0.53c-0.13-0.13-0.34-0.23-0.53-0.22c-0.19,0.01-0.4,0.07-0.53,0.22C48.83,50.62,48.75,50.8,48.75,51
			L48.75,51z"/>
	</g>
</g>
<g>
	<g>
		<path d="M52.75,50.5c0,0.58,0,1.17,0,1.75c0,0.08,0,0.17,0,0.25c0,0.39,0.34,0.77,0.75,0.75c0.41-0.02,0.75-0.33,0.75-0.75
			c0-0.58,0-1.17,0-1.75c0-0.08,0-0.17,0-0.25c0-0.39-0.34-0.77-0.75-0.75C53.09,49.77,52.75,50.08,52.75,50.5L52.75,50.5z"/>
	</g>
</g>
<g>
	<g>
		<path d="M49.5,53.25c1.17,0,2.34,0,3.5,0c0.17,0,0.33,0,0.5,0c0.39,0,0.77-0.34,0.75-0.75c-0.02-0.41-0.33-0.75-0.75-0.75
			c-1.17,0-2.34,0-3.5,0c-0.17,0-0.33,0-0.5,0c-0.39,0-0.77,0.34-0.75,0.75C48.77,52.91,49.08,53.25,49.5,53.25L49.5,53.25z"/>
	</g>
</g>
<g>
	<g>
		<path d="M26.85,28.88c0.29,0.58,0.58,1.17,0.88,1.75c0.04,0.08,0.08,0.17,0.12,0.25c0.08,0.16,0.28,0.3,0.45,0.34
			c0.18,0.05,0.42,0.03,0.58-0.08c0.36-0.23,0.46-0.65,0.27-1.03c-0.29-0.58-0.58-1.17-0.88-1.75c-0.04-0.08-0.08-0.17-0.12-0.25
			c-0.08-0.16-0.28-0.3-0.45-0.34c-0.18-0.05-0.42-0.03-0.58,0.08C26.76,28.08,26.66,28.5,26.85,28.88L26.85,28.88z"/>
	</g>
</g>
<g>
	<g>
		<path d="M31.12,27.85c-0.88,0.58-1.75,1.17-2.63,1.75c-0.12,0.08-0.25,0.17-0.37,0.25c-0.33,0.22-0.5,0.67-0.27,1.03
			c0.21,0.32,0.68,0.5,1.03,0.27c0.88-0.58,1.75-1.17,2.63-1.75c0.12-0.08,0.25-0.17,0.37-0.25c0.33-0.22,0.5-0.67,0.27-1.03
			C31.94,27.8,31.47,27.62,31.12,27.85L31.12,27.85z"/>
	</g>
</g>
<g>
	<g>
		<path d="M34.88,29.85c-0.88-0.58-1.75-1.17-2.63-1.75c-0.12-0.08-0.25-0.17-0.37-0.25c-0.33-0.22-0.84-0.07-1.03,0.27
			c-0.2,0.38-0.08,0.79,0.27,1.03c0.88,0.58,1.75,1.17,2.63,1.75c0.12,0.08,0.25,0.17,0.37,0.25c0.33,0.22,0.84,0.07,1.03-0.27
			C35.35,30.5,35.23,30.09,34.88,29.85L34.88,29.85z"/>
	</g>
</g>
<g>
	<g>
		<path d="M35.97,27.97c-0.58,0.58-1.17,1.17-1.75,1.75c-0.08,0.08-0.17,0.17-0.25,0.25c-0.28,0.28-0.3,0.79,0,1.06
			c0.3,0.27,0.76,0.3,1.06,0c0.58-0.58,1.17-1.17,1.75-1.75c0.08-0.08,0.17-0.17,0.25-0.25c0.28-0.28,0.3-0.79,0-1.06
			C36.73,27.69,36.27,27.67,35.97,27.97L35.97,27.97z"/>
	</g>
</g>
<g>
	<g>
		<path d="M39.03,29.97c-0.58-0.58-1.17-1.17-1.75-1.75c-0.08-0.08-0.17-0.17-0.25-0.25c-0.28-0.28-0.79-0.3-1.06,0
			c-0.27,0.3-0.3,0.76,0,1.06c0.58,0.58,1.17,1.17,1.75,1.75c0.08,0.08,0.17,0.17,0.25,0.25c0.28,0.28,0.79,0.3,1.06,0
			C39.31,30.73,39.33,30.27,39.03,29.97L39.03,29.97z"/>
	</g>
</g>
<g>
	<g>
		<path d="M41.12,27.85c-0.88,0.58-1.75,1.17-2.63,1.75c-0.12,0.08-0.25,0.17-0.37,0.25c-0.33,0.22-0.5,0.67-0.27,1.03
			c0.21,0.32,0.68,0.5,1.03,0.27c0.88-0.58,1.75-1.17,2.63-1.75c0.12-0.08,0.25-0.17,0.37-0.25c0.33-0.22,0.5-0.67,0.27-1.03
			C41.94,27.8,41.47,27.62,41.12,27.85L41.12,27.85z"/>
	</g>
</g>
<g>
	<g>
		<path d="M44.03,29.97c-0.58-0.58-1.17-1.17-1.75-1.75c-0.08-0.08-0.17-0.17-0.25-0.25c-0.28-0.28-0.79-0.3-1.06,0
			c-0.27,0.3-0.3,0.76,0,1.06c0.58,0.58,1.17,1.17,1.75,1.75c0.08,0.08,0.17,0.17,0.25,0.25c0.28,0.28,0.79,0.3,1.06,0
			C44.31,30.73,44.33,30.27,44.03,29.97L44.03,29.97z"/>
	</g>
</g>
<g>
	<g>
		<path d="M44.97,27.97c-0.58,0.58-1.17,1.17-1.75,1.75c-0.08,0.08-0.17,0.17-0.25,0.25c-0.28,0.28-0.3,0.79,0,1.06
			c0.3,0.27,0.76,0.3,1.06,0c0.58-0.58,1.17-1.17,1.75-1.75c0.08-0.08,0.17-0.17,0.25-0.25c0.28-0.28,0.3-0.79,0-1.06
			C45.73,27.69,45.27,27.67,44.97,27.97L44.97,27.97z"/>
	</g>
</g>
<g>
	<g>
		<path d="M27.13,32c0.29,0.58,0.58,1.17,0.88,1.75c0.04,0.08,0.08,0.17,0.12,0.25c0.08,0.16,0.28,0.3,0.45,0.34
			c0.18,0.05,0.42,0.03,0.58-0.08c0.36-0.23,0.46-0.65,0.27-1.03c-0.29-0.58-0.58-1.17-0.88-1.75c-0.04-0.08-0.08-0.17-0.12-0.25
			c-0.08-0.16-0.28-0.3-0.45-0.34c-0.18-0.05-0.42-0.03-0.58,0.08C27.04,31.2,26.95,31.62,27.13,32L27.13,32z"/>
	</g>
</g>
<g>
	<g>
		<path d="M31.4,30.97c-0.88,0.58-1.75,1.17-2.63,1.75c-0.12,0.08-0.25,0.17-0.37,0.25c-0.33,0.22-0.5,0.67-0.27,1.03
			c0.21,0.32,0.68,0.5,1.03,0.27c0.88-0.58,1.75-1.17,2.63-1.75c0.12-0.08,0.25-0.17,0.37-0.25c0.33-0.22,0.5-0.67,0.27-1.03
			C32.22,30.92,31.75,30.74,31.4,30.97L31.4,30.97z"/>
	</g>
</g>
<g>
	<g>
		<path d="M35.16,32.97c-0.88-0.58-1.75-1.17-2.63-1.75c-0.12-0.08-0.25-0.17-0.37-0.25c-0.33-0.22-0.84-0.07-1.03,0.27
			c-0.2,0.38-0.08,0.79,0.27,1.03c0.88,0.58,1.75,1.17,2.63,1.75c0.12,0.08,0.25,0.17,0.37,0.25c0.33,0.22,0.84,0.07,1.03-0.27
			C35.63,33.62,35.51,33.21,35.16,32.97L35.16,32.97z"/>
	</g>
</g>
<g>
	<g>
		<path d="M36.25,31.09c-0.58,0.58-1.17,1.17-1.75,1.75c-0.08,0.08-0.17,0.17-0.25,0.25c-0.28,0.28-0.3,0.79,0,1.06
			c0.3,0.27,0.76,0.3,1.06,0c0.58-0.58,1.17-1.17,1.75-1.75c0.08-0.08,0.17-0.17,0.25-0.25c0.28-0.28,0.3-0.79,0-1.06
			C37.01,30.82,36.55,30.79,36.25,31.09L36.25,31.09z"/>
	</g>
</g>
<g>
	<g>
		<path d="M39.31,33.09c-0.58-0.58-1.17-1.17-1.75-1.75c-0.08-0.08-0.17-0.17-0.25-0.25c-0.28-0.28-0.79-0.3-1.06,0
			c-0.27,0.3-0.3,0.76,0,1.06c0.58,0.58,1.17,1.17,1.75,1.75c0.08,0.08,0.17,0.17,0.25,0.25c0.28,0.28,0.79,0.3,1.06,0
			C39.59,33.85,39.61,33.39,39.31,33.09L39.31,33.09z"/>
	</g>
</g>
<g>
	<g>
		<path d="M41.4,30.97c-0.88,0.58-1.75,1.17-2.63,1.75c-0.12,0.08-0.25,0.17-0.37,0.25c-0.33,0.22-0.5,0.67-0.27,1.03
			c0.21,0.32,0.68,0.5,1.03,0.27c0.88-0.58,1.75-1.17,2.63-1.75c0.12-0.08,0.25-0.17,0.37-0.25c0.33-0.22,0.5-0.67,0.27-1.03
			C42.22,30.92,41.75,30.74,41.4,30.97L41.4,30.97z"/>
	</g>
</g>
<g>
	<g>
		<path d="M44.31,33.09c-0.58-0.58-1.17-1.17-1.75-1.75c-0.08-0.08-0.17-0.17-0.25-0.25c-0.28-0.28-0.79-0.3-1.06,0
			c-0.27,0.3-0.3,0.76,0,1.06c0.58,0.58,1.17,1.17,1.75,1.75c0.08,0.08,0.17,0.17,0.25,0.25c0.28,0.28,0.79,0.3,1.06,0
			C44.59,33.85,44.61,33.39,44.31,33.09L44.31,33.09z"/>
	</g>
</g>
<g>
	<g>
		<path d="M45.25,31.09c-0.58,0.58-1.17,1.17-1.75,1.75c-0.08,0.08-0.17,0.17-0.25,0.25c-0.28,0.28-0.3,0.79,0,1.06
			c0.3,0.27,0.76,0.3,1.06,0c0.58-0.58,1.17-1.17,1.75-1.75c0.08-0.08,0.17-0.17,0.25-0.25c0.28-0.28,0.3-0.79,0-1.06
			C46.01,30.82,45.55,30.79,45.25,31.09L45.25,31.09z"/>
	</g>
</g>
<g>
	<g>
		<path d="M27.13,35c0.29,0.58,0.58,1.17,0.88,1.75c0.04,0.08,0.08,0.17,0.12,0.25c0.08,0.16,0.28,0.3,0.45,0.34
			c0.18,0.05,0.42,0.03,0.58-0.08c0.36-0.23,0.46-0.65,0.27-1.03c-0.29-0.58-0.58-1.17-0.88-1.75c-0.04-0.08-0.08-0.17-0.12-0.25
			c-0.08-0.16-0.28-0.3-0.45-0.34c-0.18-0.05-0.42-0.03-0.58,0.08C27.04,34.2,26.95,34.62,27.13,35L27.13,35z"/>
	</g>
</g>
<g>
	<g>
		<path d="M31.4,33.97c-0.88,0.58-1.75,1.17-2.63,1.75c-0.12,0.08-0.25,0.17-0.37,0.25c-0.33,0.22-0.5,0.67-0.27,1.03
			c0.21,0.32,0.68,0.5,1.03,0.27c0.88-0.58,1.75-1.17,2.63-1.75c0.12-0.08,0.25-0.17,0.37-0.25c0.33-0.22,0.5-0.67,0.27-1.03
			C32.22,33.92,31.75,33.74,31.4,33.97L31.4,33.97z"/>
	</g>
</g>
<g>
	<g>
		<path d="M35.16,35.97c-0.88-0.58-1.75-1.17-2.63-1.75c-0.12-0.08-0.25-0.17-0.37-0.25c-0.33-0.22-0.84-0.07-1.03,0.27
			c-0.2,0.38-0.08,0.79,0.27,1.03c0.88,0.58,1.75,1.17,2.63,1.75c0.12,0.08,0.25,0.17,0.37,0.25c0.33,0.22,0.84,0.07,1.03-0.27
			C35.63,36.62,35.51,36.21,35.16,35.97L35.16,35.97z"/>
	</g>
</g>
<g>
	<g>
		<path d="M36.25,34.09c-0.58,0.58-1.17,1.17-1.75,1.75c-0.08,0.08-0.17,0.17-0.25,0.25c-0.28,0.28-0.3,0.79,0,1.06
			c0.3,0.27,0.76,0.3,1.06,0c0.58-0.58,1.17-1.17,1.75-1.75c0.08-0.08,0.17-0.17,0.25-0.25c0.28-0.28,0.3-0.79,0-1.06
			C37.01,33.82,36.55,33.79,36.25,34.09L36.25,34.09z"/>
	</g>
</g>
<g>
	<g>
		<path d="M39.31,36.09c-0.58-0.58-1.17-1.17-1.75-1.75c-0.08-0.08-0.17-0.17-0.25-0.25c-0.28-0.28-0.79-0.3-1.06,0
			c-0.27,0.3-0.3,0.76,0,1.06c0.58,0.58,1.17,1.17,1.75,1.75c0.08,0.08,0.17,0.17,0.25,0.25c0.28,0.28,0.79,0.3,1.06,0
			C39.59,36.85,39.61,36.39,39.31,36.09L39.31,36.09z"/>
	</g>
</g>
<g>
	<g>
		<path d="M41.4,33.97c-0.88,0.58-1.75,1.17-2.63,1.75c-0.12,0.08-0.25,0.17-0.37,0.25c-0.33,0.22-0.5,0.67-0.27,1.03
			c0.21,0.32,0.68,0.5,1.03,0.27c0.88-0.58,1.75-1.17,2.63-1.75c0.12-0.08,0.25-0.17,0.37-0.25c0.33-0.22,0.5-0.67,0.27-1.03
			C42.22,33.92,41.75,33.74,41.4,33.97L41.4,33.97z"/>
	</g>
</g>
<g>
	<g>
		<path d="M44.31,36.09c-0.58-0.58-1.17-1.17-1.75-1.75c-0.08-0.08-0.17-0.17-0.25-0.25c-0.28-0.28-0.79-0.3-1.06,0
			c-0.27,0.3-0.3,0.76,0,1.06c0.58,0.58,1.17,1.17,1.75,1.75c0.08,0.08,0.17,0.17,0.25,0.25c0.28,0.28,0.79,0.3,1.06,0
			C44.59,36.85,44.61,36.39,44.31,36.09L44.31,36.09z"/>
	</g>
</g>
<g>
	<g>
		<path d="M45.25,34.09c-0.58,0.58-1.17,1.17-1.75,1.75c-0.08,0.08-0.17,0.17-0.25,0.25c-0.28,0.28-0.3,0.79,0,1.06
			c0.3,0.27,0.76,0.3,1.06,0c0.58-0.58,1.17-1.17,1.75-1.75c0.08-0.08,0.17-0.17,0.25-0.25c0.28-0.28,0.3-0.79,0-1.06
			C46.01,33.82,45.55,33.79,45.25,34.09L45.25,34.09z"/>
	</g>
</g>
</svg>
