<?xml version="1.0" encoding="utf-8"?>
<!-- Generator: Adobe Illustrator 24.1.2, SVG Export Plug-In . SVG Version: 6.00 Build 0)  -->
<svg version="1.1" id="Слой_3" xmlns="http://www.w3.org/2000/svg" xmlns:xlink="http://www.w3.org/1999/xlink" x="0px" y="0px"
	 viewBox="0 0 60 60" style="enable-background:new 0 0 60 60;" xml:space="preserve">
<style type="text/css">
	.st0{fill:#FFFFFF;}
</style>
<g>
	<g>
		<path class="st0" d="M82.52-29.82c0.97,0,0.97-1.5,0-1.5C81.55-31.32,81.55-29.82,82.52-29.82L82.52-29.82z"/>
	</g>
</g>
<g>
	<g>
		<path class="st0" d="M25.59,27.49c1.45,0,1.45-2.25,0-2.25C24.14,25.24,24.14,27.49,25.59,27.49L25.59,27.49z"/>
	</g>
</g>
<g>
	<g>
		<path d="M27.12,49.31c0-6.58,0-13.17,0-19.75c0-0.93,0-1.86,0-2.79c0-1.45-2.25-1.45-2.25,0c0,6.58,0,13.17,0,19.75
			c0,0.93,0,1.86,0,2.79C24.87,50.75,27.12,50.76,27.12,49.31L27.12,49.31z"/>
	</g>
</g>
<g>
	<g>
		<path d="M26.29,27.04c2.29-0.88,4.05-2.62,5.5-4.54c0.16-0.22,0.18-0.62,0.11-0.87c-0.07-0.26-0.27-0.54-0.52-0.67
			c-0.26-0.14-0.58-0.21-0.87-0.11c-0.3,0.1-0.48,0.27-0.67,0.52c-0.1,0.13,0.19-0.25,0.12-0.15c-0.05,0.06-0.09,0.12-0.14,0.17
			c-0.15,0.19-0.31,0.38-0.47,0.57c-0.43,0.5-0.87,0.99-1.36,1.43c-0.14,0.13-0.28,0.25-0.43,0.36c-0.24,0.2,0.18-0.13-0.06,0.05
			c-0.08,0.06-0.17,0.12-0.25,0.18c-0.29,0.2-0.58,0.38-0.88,0.55c-0.22,0.12-0.44,0.24-0.67,0.34c-0.11,0.05-0.41,0.18,0.05-0.02
			c-0.02,0.01-0.04,0.02-0.07,0.03c-0.55,0.21-0.99,0.77-0.79,1.38C25.08,26.79,25.7,27.27,26.29,27.04L26.29,27.04z"/>
	</g>
</g>
<g>
	<g>
		<path d="M27.12,26.76c0-0.24,0-0.47,0-0.71c0-0.03,0-0.07,0-0.1c0.01-0.15-0.03-0.3-0.1-0.43c-0.05-0.14-0.12-0.26-0.23-0.36
			c-0.1-0.11-0.22-0.19-0.36-0.23c-0.13-0.07-0.28-0.1-0.43-0.1c-0.1,0.01-0.2,0.03-0.3,0.04c-0.19,0.05-0.36,0.15-0.5,0.29
			c-0.06,0.08-0.12,0.15-0.18,0.23c-0.1,0.18-0.15,0.36-0.15,0.57c0,0.24,0,0.47,0,0.71c0,0.03,0,0.07,0,0.1
			c-0.01,0.15,0.03,0.3,0.1,0.43c0.05,0.14,0.12,0.26,0.23,0.36c0.1,0.11,0.22,0.19,0.36,0.23c0.13,0.07,0.28,0.1,0.43,0.1
			c0.1-0.01,0.2-0.03,0.3-0.04c0.19-0.05,0.36-0.15,0.5-0.29c0.06-0.08,0.12-0.15,0.18-0.23C27.07,27.16,27.12,26.97,27.12,26.76
			L27.12,26.76z"/>
	</g>
</g>
<g>
	<g>
		<path d="M30.82,23.06c1.88,0,3.76,0,5.64,0c0.27,0,0.53,0,0.8,0c0.59,0,1.15-0.52,1.13-1.13c-0.03-0.61-0.49-1.13-1.13-1.13
			c-1.88,0-3.76,0-5.64,0c-0.27,0-0.53,0-0.8,0c-0.59,0-1.15,0.52-1.13,1.13C29.72,22.54,30.19,23.06,30.82,23.06L30.82,23.06z"/>
	</g>
</g>
<g>
	<g>
		<path d="M42.39,24.87c-0.02-0.01-0.05-0.02-0.07-0.03c-0.09-0.03-0.22-0.1,0.16,0.07c-0.04-0.02-0.07-0.03-0.11-0.05
			c-0.23-0.1-0.45-0.21-0.67-0.32c-0.29-0.15-0.58-0.31-0.86-0.49c-0.16-0.1-0.31-0.2-0.46-0.3c-0.07-0.05-0.13-0.1-0.2-0.14
			c-0.1-0.07-0.09-0.07,0.03,0.03c-0.04-0.03-0.09-0.07-0.13-0.1c-0.28-0.23-0.54-0.49-0.79-0.76c-0.12-0.13-0.23-0.26-0.34-0.39
			c-0.06-0.07-0.12-0.14-0.17-0.21c-0.15-0.19,0.16,0.21,0.02,0.02c-0.2-0.27-0.4-0.54-0.58-0.83c-0.31-0.5-1.02-0.74-1.54-0.4
			c-0.5,0.33-0.73,1-0.4,1.54c0.6,0.99,1.38,1.94,2.27,2.67c0.97,0.79,2.06,1.42,3.23,1.87c0.55,0.21,1.26-0.23,1.38-0.79
			C43.33,25.61,42.98,25.1,42.39,24.87L42.39,24.87z"/>
	</g>
</g>
<g>
	<g>
		<path d="M43.22,49.31c0-6.82,0-13.64,0-20.45c0-0.96,0-1.93,0-2.89c0-1.45-2.25-1.45-2.25,0c0,6.82,0,13.64,0,20.45
			c0,0.96,0,1.93,0,2.89C40.97,50.75,43.22,50.76,43.22,49.31L43.22,49.31z"/>
	</g>
</g>
<g>
	<g>
		<path d="M41.3,48.51C41.73,48.17,41.41,48.43,41.3,48.51c-0.17,0.11-0.34,0.23-0.51,0.35c-0.57,0.38-1.15,0.74-1.75,1.06
			c-1.53,0.83-3.25,1.54-5.01,1.62c-2.63,0.12-5.42-1.4-7.24-3.04c-1.07-0.97-2.67,0.62-1.59,1.59c2.33,2.1,5.63,3.84,8.83,3.7
			c3.2-0.15,6.36-1.76,8.86-3.7c0.48-0.38,0.39-1.2,0-1.59C42.42,48.03,41.78,48.14,41.3,48.51L41.3,48.51z"/>
	</g>
</g>
<g>
	<g>
		<path d="M32.44,25.16c-0.47,0.47-0.94,0.94-1.41,1.41c-0.07,0.07-0.13,0.13-0.2,0.2c-0.2,0.2-0.33,0.51-0.33,0.8
			c0,0.28,0.12,0.61,0.33,0.8c0.21,0.2,0.5,0.34,0.8,0.33c0.3-0.01,0.58-0.11,0.8-0.33c0.47-0.47,0.94-0.94,1.41-1.41
			c0.07-0.07,0.13-0.13,0.2-0.2c0.2-0.2,0.33-0.51,0.33-0.8c0-0.28-0.12-0.61-0.33-0.8c-0.21-0.2-0.5-0.34-0.8-0.33
			C32.94,24.85,32.66,24.95,32.44,25.16L32.44,25.16z"/>
	</g>
</g>
<g>
	<g>
		<path d="M29.85,22.5c0.71,1.18,1.41,2.35,2.12,3.53c0.1,0.17,0.2,0.33,0.3,0.5c0.3,0.5,1.02,0.74,1.54,0.4
			c0.51-0.33,0.73-1,0.4-1.54c-0.71-1.18-1.41-2.35-2.12-3.53c-0.1-0.17-0.2-0.33-0.3-0.5c-0.3-0.5-1.02-0.74-1.54-0.4
			C29.75,21.29,29.53,21.96,29.85,22.5L29.85,22.5z"/>
	</g>
</g>
<g>
	<g>
		<path d="M31.6,28c-0.62-0.89-1.24-1.79-1.86-2.68c-0.09-0.13-0.18-0.26-0.27-0.38c-0.17-0.24-0.38-0.44-0.67-0.52
			c-0.27-0.07-0.63-0.04-0.87,0.11c-0.24,0.15-0.45,0.39-0.52,0.67c-0.06,0.28-0.06,0.62,0.11,0.87c0.62,0.89,1.24,1.79,1.86,2.68
			c0.09,0.13,0.18,0.26,0.27,0.38c0.17,0.24,0.38,0.44,0.67,0.52c0.27,0.07,0.63,0.04,0.87-0.11c0.24-0.15,0.45-0.39,0.52-0.67
			C31.78,28.59,31.77,28.25,31.6,28L31.6,28z"/>
	</g>
</g>
<g>
	<g>
		<path d="M33.25,26.75c0.47,0.47,0.94,0.94,1.41,1.41c0.07,0.07,0.13,0.13,0.2,0.2c0.2,0.2,0.51,0.33,0.8,0.33
			c0.28,0,0.61-0.12,0.8-0.33c0.2-0.21,0.34-0.5,0.33-0.8c-0.01-0.3-0.11-0.58-0.33-0.8c-0.47-0.47-0.94-0.94-1.41-1.41
			c-0.07-0.07-0.13-0.13-0.2-0.2c-0.2-0.2-0.51-0.33-0.8-0.33c-0.28,0-0.61,0.12-0.8,0.33c-0.2,0.21-0.34,0.5-0.33,0.8
			C32.93,26.26,33.03,26.54,33.25,26.75L33.25,26.75z"/>
	</g>
</g>
<g>
	<g>
		<path d="M38.7,24.7c-0.83,0.9-1.66,1.79-2.5,2.69c-0.12,0.13-0.23,0.25-0.35,0.38c-0.4,0.43-0.46,1.17,0,1.59
			c0.44,0.4,1.16,0.46,1.59,0c0.83-0.9,1.66-1.79,2.5-2.69c0.12-0.13,0.23-0.25,0.35-0.38c0.4-0.43,0.46-1.17,0-1.59
			C39.86,24.3,39.13,24.24,38.7,24.7L38.7,24.7z"/>
	</g>
</g>
<g>
	<g>
		<path d="M36.47,21.14c-0.94,1.18-1.88,2.35-2.82,3.53c-0.13,0.17-0.27,0.33-0.4,0.5c-0.19,0.24-0.33,0.47-0.33,0.8
			c0,0.28,0.12,0.61,0.33,0.8c0.41,0.37,1.2,0.49,1.59,0c0.94-1.18,1.88-2.35,2.82-3.53c0.13-0.17,0.27-0.33,0.4-0.5
			c0.19-0.24,0.33-0.47,0.33-0.8c0-0.28-0.12-0.61-0.33-0.8C37.65,20.76,36.86,20.65,36.47,21.14L36.47,21.14z"/>
	</g>
</g>
<g>
	<g>
		<path d="M33.24,27.08c0.24,0,0.47,0,0.71,0c0.03,0,0.07,0,0.1,0c0.15,0.01,0.3-0.03,0.43-0.1c0.14-0.05,0.26-0.12,0.36-0.23
			c0.11-0.1,0.19-0.22,0.23-0.36c0.07-0.13,0.1-0.28,0.1-0.43c-0.01-0.1-0.03-0.2-0.04-0.3c-0.05-0.19-0.15-0.36-0.29-0.5
			c-0.08-0.06-0.15-0.12-0.23-0.18c-0.18-0.1-0.36-0.15-0.57-0.15c-0.24,0-0.47,0-0.71,0c-0.03,0-0.07,0-0.1,0
			c-0.15-0.01-0.3,0.03-0.43,0.1c-0.14,0.05-0.26,0.12-0.36,0.23c-0.11,0.1-0.19,0.22-0.23,0.36c-0.07,0.13-0.1,0.28-0.1,0.43
			c0.01,0.1,0.03,0.2,0.04,0.3c0.05,0.19,0.15,0.36,0.29,0.5c0.08,0.06,0.15,0.12,0.23,0.18C32.85,27.03,33.03,27.08,33.24,27.08
			L33.24,27.08z"/>
	</g>
</g>
<g>
	<g>
		<path d="M31.31,26.76c0,7.53,0,15.06,0,22.59c0,1.06,0,2.12,0,3.18c0,1.45,2.25,1.45,2.25,0c0-7.53,0-15.06,0-22.59
			c0-1.06,0-2.12,0-3.18C33.56,25.32,31.31,25.31,31.31,26.76L31.31,26.76z"/>
	</g>
</g>
<g>
	<g>
		<path d="M33.72,26.76c0,7.53,0,15.06,0,22.59c0,1.06,0,2.12,0,3.18c0,1.45,2.25,1.45,2.25,0c0-7.53,0-15.06,0-22.59
			c0-1.06,0-2.12,0-3.18C35.97,25.32,33.72,25.31,33.72,26.76L33.72,26.76z"/>
	</g>
</g>
<g>
	<g>
		<path d="M41.12,26.53c3.52,6.1,7.04,12.21,10.56,18.31c0.5,0.87,1.01,1.75,1.51,2.62c0.72,1.25,2.67,0.12,1.94-1.14
			c-3.52-6.1-7.04-12.21-10.56-18.31c-0.5-0.87-1.01-1.75-1.51-2.62C42.34,24.14,40.4,25.27,41.12,26.53L41.12,26.53z"/>
	</g>
</g>
<g>
	<g>
		<path d="M51.52,50.28c0.94-0.7,1.88-1.41,2.82-2.11c0.13-0.1,0.27-0.2,0.4-0.3c0.24-0.18,0.43-0.37,0.52-0.67
			c0.07-0.27,0.04-0.63-0.11-0.87c-0.15-0.24-0.39-0.45-0.67-0.52c-0.28-0.06-0.63-0.06-0.87,0.11c-0.94,0.7-1.88,1.41-2.82,2.11
			c-0.13,0.1-0.27,0.2-0.4,0.3c-0.24,0.18-0.43,0.37-0.52,0.67c-0.07,0.27-0.04,0.63,0.11,0.87c0.15,0.24,0.39,0.45,0.67,0.52
			C50.93,50.45,51.28,50.45,51.52,50.28L51.52,50.28z"/>
	</g>
</g>
<g>
	<g>
		<path d="M41.12,36.19c2.58,3.99,5.17,7.99,7.75,11.98c0.37,0.57,0.74,1.14,1.1,1.71c0.78,1.21,2.73,0.08,1.94-1.14
			c-2.58-3.99-5.17-7.99-7.75-11.98c-0.37-0.57-0.74-1.14-1.1-1.71C42.28,33.84,40.33,34.97,41.12,36.19L41.12,36.19z"/>
	</g>
</g>
<g>
	<g>
		<path d="M49.91,47.86c0.94-0.7,1.88-1.41,2.82-2.11c0.13-0.1,0.27-0.2,0.4-0.3c0.24-0.18,0.43-0.37,0.52-0.67
			c0.07-0.27,0.04-0.63-0.11-0.87c-0.15-0.24-0.39-0.45-0.67-0.52c-0.28-0.06-0.63-0.06-0.87,0.11c-0.94,0.7-1.88,1.41-2.82,2.11
			c-0.13,0.1-0.27,0.2-0.4,0.3c-0.24,0.18-0.43,0.37-0.52,0.67c-0.07,0.27-0.04,0.63,0.11,0.87c0.15,0.24,0.39,0.45,0.67,0.52
			C49.32,48.04,49.67,48.04,49.91,47.86L49.91,47.86z"/>
	</g>
</g>
<g>
	<g>
		<path d="M17.3,49.87c2.82-4,5.64-7.99,8.46-11.99c0.4-0.57,0.8-1.13,1.2-1.7c0.84-1.19-1.11-2.31-1.94-1.14
			c-2.82,4-5.64,7.99-8.46,11.99c-0.4,0.57-0.8,1.13-1.2,1.7C14.52,49.92,16.47,51.05,17.3,49.87L17.3,49.87z"/>
	</g>
</g>
<g>
	<g>
		<path d="M18.51,45.92c-0.94-0.7-1.88-1.41-2.82-2.11c-0.13-0.1-0.27-0.2-0.4-0.3c-0.22-0.16-0.62-0.18-0.87-0.11
			c-0.26,0.07-0.54,0.27-0.67,0.52c-0.14,0.26-0.21,0.58-0.11,0.87c0.1,0.3,0.27,0.49,0.52,0.67c0.94,0.7,1.88,1.41,2.82,2.11
			c0.13,0.1,0.27,0.2,0.4,0.3c0.22,0.16,0.62,0.18,0.87,0.11c0.26-0.07,0.54-0.27,0.67-0.52c0.14-0.26,0.21-0.58,0.11-0.87
			C18.93,46.3,18.76,46.1,18.51,45.92L18.51,45.92z"/>
	</g>
</g>
<g>
	<g>
		<path d="M14.08,47.46c3.76-6.11,7.52-12.22,11.28-18.33c0.53-0.87,1.07-1.73,1.6-2.6c0.76-1.24-1.18-2.37-1.94-1.14
			c-3.76,6.11-7.52,12.22-11.28,18.33c-0.53,0.87-1.07,1.73-1.6,2.6C11.38,47.56,13.32,48.69,14.08,47.46L14.08,47.46z"/>
	</g>
</g>
<g>
	<g>
		<path d="M16.9,48.33c-0.94-0.7-1.88-1.41-2.82-2.11c-0.13-0.1-0.27-0.2-0.4-0.3c-0.22-0.16-0.62-0.18-0.87-0.11
			c-0.26,0.07-0.54,0.27-0.67,0.52c-0.14,0.26-0.21,0.58-0.11,0.87c0.1,0.3,0.27,0.49,0.52,0.67c0.94,0.7,1.88,1.41,2.82,2.11
			c0.13,0.1,0.27,0.2,0.4,0.3c0.22,0.16,0.62,0.18,0.87,0.11c0.26-0.07,0.54-0.27,0.67-0.52c0.14-0.26,0.21-0.58,0.11-0.87
			C17.32,48.71,17.15,48.52,16.9,48.33L16.9,48.33z"/>
	</g>
</g>
<g>
	<g>
		<path d="M16.57,37.4c0.47,0.24,0.94,0.47,1.41,0.71c0.07,0.03,0.13,0.07,0.2,0.1c0.13,0.08,0.27,0.13,0.42,0.13
			c0.15,0.03,0.3,0.03,0.45-0.02c0.26-0.07,0.54-0.27,0.67-0.52c0.14-0.26,0.21-0.58,0.11-0.87c-0.09-0.27-0.26-0.54-0.52-0.67
			c-0.47-0.24-0.94-0.47-1.41-0.71c-0.07-0.03-0.13-0.07-0.2-0.1c-0.13-0.08-0.27-0.13-0.42-0.13c-0.15-0.03-0.3-0.03-0.45,0.02
			c-0.26,0.07-0.54,0.27-0.67,0.52c-0.14,0.26-0.21,0.58-0.11,0.87C16.14,36.99,16.31,37.27,16.57,37.4L16.57,37.4z"/>
	</g>
</g>
<g>
	<g>
		<path d="M16.01,17.1c0,5.64,0,11.29,0,16.93c0,0.8,0,1.6,0,2.39c0,1.45,2.25,1.45,2.25,0c0-5.64,0-11.29,0-16.93
			c0-0.8,0-1.6,0-2.39C18.26,15.65,16.01,15.65,16.01,17.1L16.01,17.1z"/>
	</g>
</g>
<g>
	<g>
		<path d="M15.69,21.7c0.71-1.18,1.41-2.35,2.12-3.53c0.1-0.17,0.2-0.33,0.3-0.5c0.3-0.51,0.13-1.26-0.4-1.54
			c-0.54-0.29-1.22-0.14-1.54,0.4c-0.71,1.18-1.41,2.35-2.12,3.53c-0.1,0.17-0.2,0.33-0.3,0.5c-0.3,0.51-0.13,1.26,0.4,1.54
			C14.7,22.39,15.37,22.23,15.69,21.7L15.69,21.7z"/>
	</g>
</g>
<g>
	<g>
		<path d="M10.13,19.68c1.18,0.71,2.35,1.41,3.53,2.12c0.17,0.1,0.33,0.2,0.5,0.3c0.51,0.3,1.26,0.13,1.54-0.4
			c0.29-0.54,0.14-1.22-0.4-1.54c-1.18-0.71-2.35-1.41-3.53-2.12c-0.17-0.1-0.33-0.2-0.5-0.3c-0.51-0.3-1.26-0.13-1.54,0.4
			C9.44,18.69,9.59,19.36,10.13,19.68L10.13,19.68z"/>
	</g>
</g>
<g>
	<g>
		<path d="M12.83,10.36c-0.94,2.34-1.88,4.69-2.81,7.03c-0.14,0.34-0.27,0.68-0.41,1.02c-0.23,0.56,0.25,1.24,0.79,1.38
			c0.64,0.18,1.16-0.22,1.38-0.79c0.94-2.34,1.88-4.69,2.81-7.03c0.14-0.34,0.27-0.68,0.41-1.02c0.23-0.56-0.25-1.24-0.79-1.38
			C13.57,9.4,13.06,9.8,12.83,10.36L12.83,10.36z"/>
	</g>
</g>
<g>
	<g>
		<path d="M20.06,5.55c-2.63,0.83-5.02,2.34-6.94,4.31c-0.41,0.42-0.45,1.18,0,1.59c0.44,0.41,1.15,0.45,1.59,0
			c0.27-0.28,0.55-0.54,0.84-0.8c0.28-0.25,0.57-0.49,0.87-0.73c0.2-0.16-0.08,0.06,0.11-0.08c0.09-0.06,0.17-0.13,0.26-0.19
			c0.2-0.14,0.39-0.28,0.6-0.41c0.39-0.25,0.8-0.48,1.21-0.69c0.19-0.09,0.38-0.18,0.57-0.27c0.09-0.04,0.18-0.08,0.27-0.12
			c0.29-0.13-0.21,0.08,0.07-0.03c0.38-0.15,0.76-0.3,1.15-0.42c0.56-0.18,0.98-0.79,0.79-1.38C21.26,5.77,20.66,5.36,20.06,5.55
			L20.06,5.55z"/>
	</g>
</g>
<g>
	<g>
		<path d="M40.76,18.41c-0.94-2.34-1.88-4.69-2.81-7.03c-0.14-0.34-0.27-0.68-0.41-1.02c-0.23-0.56-0.75-0.96-1.38-0.79
			c-0.54,0.15-1.01,0.82-0.79,1.38c0.94,2.34,1.88,4.69,2.81,7.03c0.14,0.34,0.27,0.68,0.41,1.02c0.23,0.56,0.75,0.96,1.38,0.79
			C40.51,19.65,40.99,18.98,40.76,18.41L40.76,18.41z"/>
	</g>
</g>
<g>
	<g>
		<path d="M28.91,7.72c1.33,0.45,2.3,0.83,3.49,1.45c0.46,0.24,0.91,0.5,1.34,0.79c0.2,0.13,0.39,0.26,0.58,0.4
			c0.09,0.06,0.17,0.13,0.26,0.19c0.05,0.04,0.11,0.08,0.16,0.12c-0.09-0.07-0.1-0.08-0.04-0.03c0.33,0.26,0.66,0.53,0.95,0.82
			c0.43,0.43,1.16,0.43,1.59,0c0.43-0.43,0.43-1.16,0-1.59c-2.11-2.1-4.96-3.37-7.74-4.31c-0.56-0.19-1.25,0.22-1.38,0.79
			C27.99,6.96,28.32,7.52,28.91,7.72L28.91,7.72z"/>
	</g>
</g>
<g>
	<g>
		<path d="M19.56,7.43c1.47,1.14,3.31,2.01,5.2,2.06c1.9,0.05,3.78-0.92,5.25-2.06c0.48-0.37,0.39-1.2,0-1.59
			c-0.47-0.47-1.11-0.37-1.59,0c0.49-0.38-0.06,0.03-0.18,0.12c-0.31,0.21-0.63,0.4-0.96,0.57c-0.78,0.41-1.65,0.73-2.51,0.71
			c-0.87-0.02-1.78-0.37-2.53-0.76c-0.3-0.16-0.6-0.33-0.89-0.52c-0.13-0.08-0.68-0.5-0.19-0.11c-0.48-0.37-1.12-0.47-1.59,0
			C19.17,6.23,19.08,7.06,19.56,7.43L19.56,7.43z"/>
	</g>
</g>
<g>
	<g>
		<path d="M39.11,17.74c-1.18,0.71-2.35,1.41-3.53,2.12c-0.17,0.1-0.33,0.2-0.5,0.3c-0.5,0.3-0.74,1.02-0.4,1.54
			c0.33,0.51,1,0.73,1.54,0.4c1.18-0.71,2.35-1.41,3.53-2.12c0.17-0.1,0.33-0.2,0.5-0.3c0.5-0.3,0.74-1.02,0.4-1.54
			C40.32,17.64,39.65,17.42,39.11,17.74L39.11,17.74z"/>
	</g>
</g>
<g>
	<g>
		<path d="M31.64,17.9c0.94,1.18,1.88,2.35,2.82,3.53c0.13,0.17,0.27,0.33,0.4,0.5c0.17,0.21,0.54,0.33,0.8,0.33
			c0.28,0,0.61-0.12,0.8-0.33c0.2-0.21,0.34-0.5,0.33-0.8c-0.01-0.32-0.13-0.55-0.33-0.8c-0.94-1.18-1.88-2.35-2.82-3.53
			c-0.13-0.17-0.27-0.33-0.4-0.5c-0.17-0.21-0.54-0.33-0.8-0.33c-0.28,0-0.61,0.12-0.8,0.33c-0.2,0.21-0.34,0.5-0.33,0.8
			C31.32,17.42,31.44,17.65,31.64,17.9L31.64,17.9z"/>
	</g>
</g>
<g>
	<g>
		<path d="M33.56,21.93c0-1.41,0-2.82,0-4.23c0-0.2,0-0.4,0-0.6c0-0.59-0.52-1.15-1.13-1.13c-0.61,0.03-1.13,0.49-1.13,1.13
			c0,1.41,0,2.82,0,4.23c0,0.2,0,0.4,0,0.6c0,0.59,0.52,1.15,1.13,1.13C33.04,23.03,33.56,22.56,33.56,21.93L33.56,21.93z"/>
	</g>
</g>
</svg>
