<?xml version="1.0" encoding="utf-8"?>
<!-- Generator: Adobe Illustrator 24.1.2, SVG Export Plug-In . SVG Version: 6.00 Build 0)  -->
<svg version="1.1" id="Слой_4" xmlns="http://www.w3.org/2000/svg" xmlns:xlink="http://www.w3.org/1999/xlink" x="0px" y="0px"
	 viewBox="0 0 108 108" style="enable-background:new 0 0 108 108;" xml:space="preserve">
<style type="text/css">
	.st0{fill:#1D1D1B;}
</style>
<g>
	<g>
		<path class="st0" d="M103.1,64.1c-8.8,3.3-18.6,3.1-27.1-1c-7.1-3.4-12.9-9.3-16.2-16.5c-2-4.3-3-8.9-3.1-13.6
			c0-0.2-0.2-0.4-0.4-0.4c-3.2,0-6.4,0-9.7,0c0.1,0.2,0.2,0.4,0.3,0.6c5.2-9,10.4-18.1,15.7-27.1c0.7-1.3,1.5-2.5,2.2-3.8
			c-0.2,0-0.4,0-0.6,0c4.7,8.1,9.4,16.2,14.1,24.3c1.3,2.2,2.5,4.4,3.8,6.6c0.1-0.2,0.2-0.4,0.3-0.6c-3.5,0-6.9,0-10.4,0
			c-0.2,0-0.4,0.2-0.4,0.4c1.1,12.8,9.2,24.2,21.1,29.2c3.4,1.4,6.9,2.3,10.5,2.6C103.6,64.9,103.6,64.1,103.1,64.1
			c-12.4-1.2-23.5-9.2-28.3-20.8c-1.4-3.3-2.2-6.7-2.5-10.3c-0.1,0.1-0.3,0.3-0.4,0.4c3.5,0,6.9,0,10.4,0c0.3,0,0.5-0.3,0.3-0.6
			C77.8,24.4,73,16.1,68.2,7.7c-1.1-1.9-2.2-3.9-3.3-5.8c-0.1-0.2-0.5-0.2-0.6,0C59,10.9,53.7,20,48.5,29c-0.7,1.3-1.5,2.5-2.2,3.8
			c-0.1,0.2,0,0.6,0.3,0.6c3.2,0,6.4,0,9.7,0c-0.1-0.1-0.3-0.3-0.4-0.4c0.3,17,13.2,31.6,30.1,33.9c5.8,0.8,11.7,0,17.2-2.1
			C103.7,64.6,103.5,63.9,103.1,64.1z"/>
	</g>
</g>
</svg>
