<?xml version="1.0" encoding="utf-8"?>
<!-- Generator: Adobe Illustrator 24.1.2, SVG Export Plug-In . SVG Version: 6.00 Build 0)  -->
<svg version="1.1" xmlns="http://www.w3.org/2000/svg" xmlns:xlink="http://www.w3.org/1999/xlink" x="0px" y="0px"
	 viewBox="0 0 60 60" style="enable-background:new 0 0 60 60;" xml:space="preserve">
<style type="text/css">
	.st0{display:none;}
	.st1{display:inline;}
	.st2{fill:#FFFFFF;}
</style>
<g id="Слой_2" class="st0">
	<g class="st1">
		
			<image style="overflow:visible;" width="42" height="70" xlink:href="58F785C9.jpg"  transform="matrix(0.7422 0 0 -0.7586 12.2513 56.55)">
		</image>
	</g>
</g>
<g id="Слой_3">
	<g>
		<line class="st2" x1="29.8" y1="56.3" x2="29.8" y2="38.2"/>
		<g>
			<path d="M31.3,56.3c0-5.3,0-10.5,0-15.8c0-0.7,0-1.5,0-2.2c0-1.9-3-1.9-3,0c0,5.3,0,10.5,0,15.8c0,0.7,0,1.5,0,2.2
				C28.3,58.2,31.3,58.2,31.3,56.3L31.3,56.3z"/>
		</g>
	</g>
	<g>
		<g>
			<path d="M20.6,39.7c5.5,0,11,0,16.5,0c0.8,0,1.6,0,2.3,0c1.9,0,1.9-3,0-3c-5.5,0-11,0-16.5,0c-0.8,0-1.6,0-2.3,0
				C18.7,36.7,18.7,39.7,20.6,39.7L20.6,39.7z"/>
		</g>
	</g>
	<g>
		<g>
			<path d="M19.1,31.9c0,1.9,0,3.7,0,5.6c0,0.3,0,0.5,0,0.8c0,0.8,0.7,1.5,1.5,1.5c0.8,0,1.5-0.7,1.5-1.5c0-1.9,0-3.7,0-5.6
				c0-0.3,0-0.5,0-0.8c0-0.8-0.7-1.5-1.5-1.5C19.8,30.4,19.1,31,19.1,31.9L19.1,31.9z"/>
		</g>
	</g>
	<g>
		<g>
			<path d="M37.9,31.9c0,1.9,0,3.7,0,5.6c0,0.3,0,0.5,0,0.8c0,0.8,0.7,1.5,1.5,1.5c0.8,0,1.5-0.7,1.5-1.5c0-1.9,0-3.7,0-5.6
				c0-0.3,0-0.5,0-0.8c0-0.8-0.7-1.5-1.5-1.5C38.6,30.4,37.9,31,37.9,31.9L37.9,31.9z"/>
		</g>
	</g>
	<g>
		<g>
			<path d="M19.1,12.2c0,1.3,0.2,2.6,0.4,3.9c0.3,2.3,1.2,4.5,1.9,6.7c0.6,1.9,1.1,3.6,0.1,5.4c-0.5,0.9-1.1,1.8-1.9,2.5
				c-1.4,1.4,0.8,3.5,2.1,2.1c0.9-0.9,1.6-1.9,2.2-2.9c1.2-2,1.4-4,0.8-6.2c-0.6-2.5-1.7-4.8-2.2-7.4c-0.3-1.4-0.4-2.8-0.4-4.2
				C22.1,10.3,19.1,10.3,19.1,12.2L19.1,12.2z"/>
		</g>
	</g>
	<g>
		<g>
			<path d="M40.5,30.8c-0.7-0.6-1.4-1.3-1.9-2c-1.1-1.7-1.2-3.2-0.8-5.1c0.6-2.4,1.7-4.7,2.3-7.2c0.4-1.4,0.6-2.9,0.7-4.3
				c0.1-1.9-2.9-1.9-3,0c-0.3,4.1-2.7,8.1-3.3,12.3c-0.5,3.2,1.2,6.4,3.8,8.4c0.6,0.5,1.5,0.6,2.1,0C41,32.4,41.1,31.3,40.5,30.8
				L40.5,30.8z"/>
		</g>
	</g>
	<g>
		<g>
			<path d="M27.2,9.4c1.6,0,3.2,0,4.8,0c0.2,0,0.4,0,0.7,0c0.8,0,1.5-0.7,1.5-1.5c0-0.8-0.7-1.5-1.5-1.5c-1.6,0-3.2,0-4.8,0
				c-0.2,0-0.4,0-0.7,0c-0.8,0-1.5,0.7-1.5,1.5C25.7,8.8,26.3,9.4,27.2,9.4L27.2,9.4z"/>
		</g>
	</g>
	<g>
		<g>
			<path d="M21,13.7c1.5-0.2,3-0.7,4.3-1.4c1.5-0.8,2.8-2.3,3.3-4c0.2-0.8-0.3-1.7-1-1.8c-0.8-0.2-1.6,0.2-1.8,1c0,0,0,0.1,0,0.1
				c0,0,0,0.1,0,0.1c-0.1,0.2,0.2-0.4,0.1-0.2c-0.1,0.3-0.3,0.6-0.5,0.9c-0.1,0.1-0.1,0.2-0.2,0.3c-0.2,0.3,0.2-0.3,0,0
				c-0.2,0.2-0.3,0.4-0.5,0.5c0,0-0.1,0.1-0.2,0.1c0,0,0.1-0.1,0.1-0.1c-0.1,0.1-0.2,0.2-0.3,0.2c-0.2,0.1-0.4,0.2-0.6,0.3
				c-0.1,0-0.2,0.1-0.3,0.1c-0.1,0.1-0.1,0.1,0.1,0c-0.1,0-0.1,0-0.2,0.1c-0.2,0.1-0.4,0.2-0.6,0.2c-0.4,0.1-0.8,0.2-1.2,0.3
				c-0.4,0.1-0.8,0.2-1.3,0.3c-0.3,0.1-0.7,0.4-0.9,0.7c-0.2,0.3-0.3,0.8-0.2,1.2C19.4,13.5,20.2,13.8,21,13.7L21,13.7z"/>
		</g>
	</g>
	<g>
		<g>
			<path d="M31.2,8.3c0.6,1.6,1.7,3.3,3.2,4.1c1.5,0.9,3.4,1.3,5.1,1.3c0.8,0,1.5-0.7,1.5-1.5c0-0.8-0.7-1.5-1.5-1.5
				c-0.1,0-0.3,0-0.4,0c-0.1,0-0.3,0-0.4,0c-0.1,0-0.2,0-0.3,0c-0.3,0,0.4,0.1,0,0c-0.4-0.1-0.8-0.2-1.3-0.3c-0.1,0-0.3-0.1-0.4-0.1
				c-0.1,0-0.3-0.1-0.4-0.1c0.2,0.1,0.2,0.1,0.1,0.1c0,0-0.1,0-0.1-0.1c-0.1-0.1-0.2-0.1-0.4-0.2c-0.1-0.1-0.2-0.1-0.3-0.2
				c0,0-0.1,0-0.1-0.1c-0.1-0.1-0.1-0.1,0.1,0.1c0-0.1-0.2-0.2-0.3-0.2c-0.1-0.1-0.2-0.2-0.3-0.3C35,9.2,35,9.1,34.9,9
				c-0.1-0.1-0.1-0.1,0.1,0.1c0,0-0.1-0.1-0.1-0.1c-0.1-0.2-0.2-0.3-0.3-0.5c-0.2-0.3-0.3-0.6-0.5-0.9c0-0.1,0-0.1-0.1-0.2
				c-0.1-0.2,0.2,0.4,0.1,0.2c0,0,0-0.1,0-0.1c-0.3-0.7-1-1.3-1.8-1C31.5,6.7,30.9,7.6,31.2,8.3L31.2,8.3z"/>
		</g>
	</g>
	<g>
		<g>
			<path d="M21.4,57.8c0.7,0,1.4-0.1,2-0.3c1.3-0.4,2.3-1.2,3.1-2.2c0.5-0.6,0.9-1.2,1.3-1.8c0.1-0.1,0.2-0.2,0.2-0.3
				c-0.2,0.2,0.1-0.1,0.2-0.2c0.1-0.1,0.4-0.2,0.1-0.1c0.1-0.1,0.2-0.1,0.3-0.2c0.3-0.2-0.2,0,0.1,0c0.1,0,0.2-0.1,0.3-0.1
				c0.1,0,0.2-0.1,0.3-0.1c0.3-0.1-0.4,0-0.1,0c0.2,0,0.4,0,0.5,0c0.8,0.1,1.5-0.7,1.5-1.5c0-0.9-0.7-1.4-1.5-1.5
				c-0.6-0.1-1.3,0.1-1.9,0.3c-0.7,0.2-1.3,0.6-1.8,1.1c-0.5,0.5-0.9,1.1-1.3,1.7c-0.1,0.1-0.2,0.3-0.3,0.4c0,0-0.3,0.4-0.1,0.2
				c-0.2,0.3-0.4,0.5-0.6,0.7c-0.1,0.1-0.2,0.2-0.3,0.3c0.3-0.2-0.1,0.1-0.2,0.1c-0.1,0.1-0.2,0.1-0.3,0.2c-0.3,0.1,0.3-0.1-0.1,0
				c-0.2,0.1-0.4,0.1-0.6,0.2c-0.1,0-0.2,0-0.4,0.1c0.1,0,0.3,0,0.1,0c-0.2,0-0.4,0-0.6,0c-0.8,0-1.5,0.7-1.5,1.5
				C19.9,57.1,20.6,57.7,21.4,57.8L21.4,57.8z"/>
		</g>
	</g>
	<g>
		<g>
			<path d="M37.7,54.8c-0.1,0-0.1,0-0.2,0C37.6,54.7,38,54.8,37.7,54.8c0,0-0.1,0-0.2,0c-0.2,0-0.4-0.1-0.5-0.1
				c-0.1,0-0.2-0.1-0.3-0.1c0.1,0,0.1,0,0.2,0.1c-0.1,0-0.1-0.1-0.2-0.1c-0.2-0.1-0.4-0.2-0.6-0.4c0.3,0.2-0.1-0.1-0.1-0.1
				c-0.1-0.1-0.2-0.2-0.3-0.3c-0.4-0.4-0.8-0.9-1.1-1.3c-0.7-0.9-1.4-1.6-2.5-2.1c-0.6-0.2-1.2-0.5-1.8-0.6
				c-0.4-0.1-0.8-0.1-1.2,0.2c-0.3,0.2-0.6,0.5-0.7,0.9c-0.2,0.7,0.2,1.7,1,1.8c0.2,0,0.3,0.1,0.5,0.1c0.2,0,0.3,0.1,0.5,0.2
				c0.1,0,0.2,0.1,0.3,0.1c0.3,0.1-0.3-0.1,0,0c0.2,0.1,0.4,0.2,0.6,0.4c0.3,0.2-0.2-0.2,0,0c0.1,0.1,0.2,0.1,0.2,0.2
				c0.4,0.4,0.8,1,1.2,1.4c0.8,1,1.7,1.8,2.9,2.3c0.7,0.3,1.4,0.5,2.1,0.5c0.8,0,1.5-0.7,1.5-1.5C39.2,55.4,38.5,54.8,37.7,54.8
				L37.7,54.8z"/>
		</g>
	</g>
</g>
</svg>
