<?xml version="1.0" encoding="utf-8"?>
<!-- Generator: Adobe Illustrator 24.1.2, SVG Export Plug-In . SVG Version: 6.00 Build 0)  -->
<svg version="1.1" xmlns="http://www.w3.org/2000/svg" xmlns:xlink="http://www.w3.org/1999/xlink" x="0px" y="0px"
	 viewBox="0 0 60 60" style="enable-background:new 0 0 60 60;" xml:space="preserve">
<style type="text/css">
	.st0{display:none;}
	.st1{display:inline;}
</style>
<g id="Слой_2" class="st0">
	<g class="st1">
		
			<image style="overflow:visible;" width="157" height="182" xlink:href="5FAFB18C.jpg"  transform="matrix(0.3737 0 0 -0.3758 1.6308 64.2)">
		</image>
	</g>
</g>
<g id="Слой_3">
	<g>
		<g>
			<path d="M48.6,52c-5.1,0-10.3,0-15.4,0c-7.1,0-14.3,0-21.4,0c-0.6,0-1.3,0.1-1.8,0c-0.7-0.1-0.7-0.5-0.8-1.1c-0.1-2,0-4.1,0-6.1
				c0-7.8,0-15.6,0-23.4c0-3.5,0-7,0-10.5c0-1.7-0.2-3.6,0-5.3c0.1-1.3,2.5-0.8,3.4-0.8c3.3,0,6.5,0,9.8,0c7.5,0,15.1,0,22.6,0
				c1,0,2,0,2.9,0c0.6,0,1.2-0.1,1.4,0.7c0.1,0.4,0,0.9,0,1.3c0,1.1,0,2.1,0,3.2c0,7.5,0,14.9,0,22.4c0,6.1,0,12.2,0,18.2
				C49.3,51.1,49.4,52,48.6,52c-1.4,0.1-1.4,2.4,0,2.3c3.1-0.3,2.9-2.9,2.9-5.2c0-3.1,0-6.1,0-9.2c0-8.3,0-16.7,0-25
				c0-2.7,0-5.4,0-8.1c0-0.4,0-0.9,0-1.4c-0.1-1.8-1.4-2.9-3.1-2.9c-6.2-0.2-12.5,0-18.7,0c-6.5,0-13-0.1-19.5,0
				C8.6,2.5,7.2,3.2,7,4.9c-0.1,0.5,0,1,0,1.5c0,2.6,0,5.2,0,7.7c0,8.3,0,16.6,0,24.9c0,3.2,0,6.3,0,9.5c0,2-0.4,4.6,1.9,5.5
				c0.7,0.3,1.4,0.2,2.1,0.2c1.1,0,2.3,0,3.4,0c3.8,0,7.6,0,11.4,0c7.2,0,14.4,0,21.6,0c0.4,0,0.9,0,1.3,0
				C50.1,54.3,50.1,52,48.6,52z"/>
		</g>
	</g>
	<g>
		<g>
			<path d="M12,53.2c0,1.2,0,2.4,0,3.7c0,0.2,0,0.3,0,0.5c0,0.6,0.5,1.2,1.1,1.1c0.6,0,1.1-0.5,1.1-1.1c0-1.2,0-2.4,0-3.7
				c0-0.2,0-0.3,0-0.5c0-0.6-0.5-1.2-1.1-1.1C12.5,52.1,12,52.5,12,53.2L12,53.2z"/>
		</g>
	</g>
	<g>
		<g>
			<path d="M46.5,57.3c0-1.2,0-2.4-0.1-3.7c0-0.2,0-0.4,0-0.5c0-0.6-0.5-1.2-1.1-1.1c-0.6,0-1.1,0.5-1.1,1.1c0,1.2,0,2.4,0.1,3.7
				c0,0.2,0,0.4,0,0.5c0,0.6,0.5,1.2,1.1,1.1C46,58.4,46.5,58,46.5,57.3L46.5,57.3z"/>
		</g>
	</g>
	<g>
		<g>
			<path d="M8,44.1c12.4,0,24.8,0,37.1,0c1.7,0,3.5,0,5.2,0c1.4,0,1.5-2.3,0-2.3c-12.4,0-24.8,0-37.1,0c-1.7,0-3.5,0-5.2,0
				C6.6,41.9,6.6,44.1,8,44.1L8,44.1z"/>
		</g>
	</g>
	<g>
		<g>
			<path d="M28.9,3.6c0,5.6,0,11.1,0,16.7c0,8.9,0,17.8,0,26.8c0,2,0,4.1,0,6.1c0,1.4,2.3,1.5,2.3,0c0-5.6,0-11.1,0-16.7
				c0-8.9,0-17.8,0-26.8c0-2,0-4.1,0-6.1C31.1,2.1,28.9,2.1,28.9,3.6L28.9,3.6z"/>
		</g>
	</g>
	<g>
		<g>
			<path d="M8,13.6c6.4,0,12.8,0,19.2,0c0.9,0,1.8,0,2.7,0c1.4,0,1.5-2.3,0-2.3c-6.4,0-12.8,0-19.2,0c-0.9,0-1.8,0-2.7,0
				C6.6,11.4,6.6,13.6,8,13.6L8,13.6z"/>
		</g>
	</g>
	<g>
		<g>
			<path d="M11.5,21.8c4.4,0,8.9,0,13.3,0c0.6,0,1.3,0,1.9,0c1.4,0,1.5-2.3,0-2.3c-4.4,0-8.9,0-13.3,0c-0.6,0-1.3,0-1.9,0
				C10,19.6,10,21.8,11.5,21.8L11.5,21.8z"/>
		</g>
	</g>
	<g>
		<g>
			<path d="M20.1,15.9c0-1,0-2,0-3c0-0.1,0-0.3,0-0.4c0-0.6-0.5-1.2-1.1-1.1c-0.6,0-1.1,0.5-1.1,1.1c0,1,0,2,0,3c0,0.1,0,0.3,0,0.4
				c0,0.6,0.5,1.2,1.1,1.1C19.6,17,20.1,16.6,20.1,15.9L20.1,15.9z"/>
		</g>
	</g>
	<g>
		<g>
			<path d="M12,21.7c2.2-1.4,4.4-2.8,6.6-4.2c0.3-0.2,0.6-0.4,0.9-0.6c0.5-0.3,0.7-1,0.4-1.5c-0.3-0.5-1-0.7-1.5-0.4
				c-2.2,1.4-4.4,2.8-6.6,4.2c-0.3,0.2-0.6,0.4-0.9,0.6c-0.5,0.3-0.7,1-0.4,1.5C10.8,21.8,11.5,22,12,21.7L12,21.7z"/>
		</g>
	</g>
	<g>
		<g>
			<path d="M27.2,19.7c-2.2-1.4-4.5-2.8-6.7-4.2c-0.3-0.2-0.6-0.4-1-0.6c-0.5-0.3-1.2-0.1-1.5,0.4c-0.3,0.5-0.1,1.2,0.4,1.5
				c2.2,1.4,4.5,2.8,6.7,4.2c0.3,0.2,0.6,0.4,1,0.6c0.5,0.3,1.2,0.1,1.5-0.4C28,20.7,27.8,20.1,27.2,19.7L27.2,19.7z"/>
		</g>
	</g>
	<g>
		<g>
			<path d="M32.5,23.8c0,1.3,0,2.6,0,4c0,0.2,0,0.4,0,0.6c0,0.6,0.5,1.2,1.1,1.1c0.6,0,1.1-0.5,1.1-1.1c0-1.3,0-2.6,0-4
				c0-0.2,0-0.4,0-0.6c0-0.6-0.5-1.2-1.1-1.1C33,22.8,32.5,23.2,32.5,23.8L32.5,23.8z"/>
		</g>
	</g>
	<g>
		<g>
			<path d="M15.8,49.4c1.3,0,2.6,0,4,0c0.2,0,0.4,0,0.6,0c0.6,0,1.2-0.5,1.1-1.1c0-0.6-0.5-1.1-1.1-1.1c-1.3,0-2.6,0-4,0
				c-0.2,0-0.4,0-0.6,0c-0.6,0-1.2,0.5-1.1,1.1C14.7,48.9,15.2,49.4,15.8,49.4L15.8,49.4z"/>
		</g>
	</g>
	<g>
		<g>
			<path d="M38,49.4c1.3,0,2.6,0,4,0c0.2,0,0.4,0,0.6,0c0.6,0,1.2-0.5,1.1-1.1c0-0.6-0.5-1.1-1.1-1.1c-1.3,0-2.6,0-4,0
				c-0.2,0-0.4,0-0.6,0c-0.6,0-1.2,0.5-1.1,1.1C36.9,48.9,37.3,49.4,38,49.4L38,49.4z"/>
		</g>
	</g>
</g>
</svg>
